G04 EAGLE Gerber RS-274X export*
G75*
%MOIN*%
%FSLAX24Y24*%
%LPD*%
%INTop Copper*%
%IPPOS*%
%AMOC8*
5,1,8,0,0,1.08239X$1,22.5*%
G01*
%ADD10R,0.078740X0.059055*%
%ADD11R,0.059055X0.078740*%
%ADD12R,0.051181X0.062992*%
%ADD13R,0.098425X0.118110*%
%ADD14R,0.062992X0.039370*%
%ADD15R,0.031496X0.094488*%
%ADD16R,0.066000X0.009000*%
%ADD17R,0.009000X0.066000*%
%ADD18R,0.039370X0.082677*%
%ADD19R,0.048031X0.131890*%
%ADD20R,0.106299X0.044094*%
%ADD21R,0.055118X0.039370*%
%ADD22R,0.224000X0.243000*%
%ADD23R,0.055000X0.090000*%
%ADD24P,0.068191X8X292.500000*%
%ADD25R,0.047244X0.021654*%
%ADD26R,0.062992X0.051181*%
%ADD27R,0.055000X0.009000*%
%ADD28R,0.050000X0.031496*%
%ADD29R,0.031496X0.050000*%
%ADD30P,0.092003X8X202.500000*%
%ADD31P,0.092003X8X292.500000*%
%ADD32R,0.040157X0.074409*%
%ADD33C,0.074000*%
%ADD34P,0.092003X8X112.500000*%
%ADD35P,0.092003X8X22.500000*%
%ADD36C,0.027748*%
%ADD37C,0.008000*%
%ADD38C,0.032000*%
%ADD39C,0.010000*%
%ADD40C,0.016000*%
%ADD41C,0.006000*%
%ADD42C,0.020000*%
%ADD43C,0.040000*%
%ADD44C,0.030000*%
%ADD45C,0.050000*%
%ADD46C,0.024000*%

G36*
X30675Y18902D02*
X30675Y18902D01*
X30680Y18902D01*
X30681Y18903D01*
X30682Y18903D01*
X30687Y18905D01*
X30692Y18906D01*
X30693Y18907D01*
X30694Y18907D01*
X30698Y18910D01*
X30702Y18913D01*
X30703Y18914D01*
X30704Y18915D01*
X30707Y18919D01*
X30710Y18922D01*
X30711Y18923D01*
X30712Y18924D01*
X30714Y18929D01*
X30716Y18933D01*
X30716Y18934D01*
X30717Y18936D01*
X30719Y18948D01*
X30719Y18949D01*
X30719Y18950D01*
X30719Y19264D01*
X30849Y19393D01*
X30851Y19397D01*
X30854Y19400D01*
X30855Y19402D01*
X30856Y19403D01*
X30858Y19407D01*
X30860Y19411D01*
X30860Y19412D01*
X30861Y19415D01*
X30863Y19427D01*
X30863Y19428D01*
X30863Y20580D01*
X30862Y20585D01*
X30862Y20590D01*
X30862Y20591D01*
X30861Y20592D01*
X30860Y20597D01*
X30858Y20602D01*
X30857Y20603D01*
X30857Y20604D01*
X30854Y20608D01*
X30851Y20612D01*
X30850Y20613D01*
X30849Y20614D01*
X30846Y20617D01*
X30842Y20620D01*
X30841Y20621D01*
X30840Y20622D01*
X30835Y20624D01*
X30831Y20626D01*
X30830Y20626D01*
X30829Y20627D01*
X30816Y20629D01*
X30815Y20629D01*
X30814Y20629D01*
X30803Y20629D01*
X30755Y20677D01*
X30755Y21243D01*
X30803Y21291D01*
X31185Y21291D01*
X31232Y21243D01*
X31232Y20677D01*
X31185Y20629D01*
X31174Y20629D01*
X31169Y20629D01*
X31164Y20628D01*
X31163Y20628D01*
X31161Y20628D01*
X31157Y20626D01*
X31152Y20624D01*
X31151Y20624D01*
X31150Y20623D01*
X31146Y20620D01*
X31142Y20617D01*
X31141Y20616D01*
X31140Y20616D01*
X31137Y20612D01*
X31133Y20608D01*
X31133Y20607D01*
X31132Y20606D01*
X31130Y20602D01*
X31128Y20597D01*
X31127Y20596D01*
X31127Y20595D01*
X31125Y20583D01*
X31125Y20581D01*
X31124Y20580D01*
X31124Y20324D01*
X31125Y20320D01*
X31125Y20315D01*
X31126Y20313D01*
X31126Y20312D01*
X31128Y20308D01*
X31129Y20303D01*
X31130Y20302D01*
X31131Y20301D01*
X31134Y20297D01*
X31136Y20293D01*
X31137Y20292D01*
X31138Y20291D01*
X31142Y20287D01*
X31145Y20284D01*
X31147Y20284D01*
X31148Y20283D01*
X31152Y20281D01*
X31156Y20278D01*
X31157Y20278D01*
X31159Y20278D01*
X31171Y20275D01*
X31173Y20275D01*
X31174Y20275D01*
X31395Y20275D01*
X31399Y20276D01*
X31403Y20276D01*
X31405Y20277D01*
X31407Y20277D01*
X31411Y20278D01*
X31415Y20280D01*
X31416Y20281D01*
X31418Y20281D01*
X31428Y20289D01*
X31429Y20289D01*
X31429Y20290D01*
X31465Y20325D01*
X31467Y20328D01*
X31470Y20332D01*
X31471Y20333D01*
X31472Y20335D01*
X31474Y20339D01*
X31476Y20343D01*
X31476Y20344D01*
X31477Y20346D01*
X31479Y20359D01*
X31479Y20360D01*
X31479Y20760D01*
X31800Y21081D01*
X32419Y21081D01*
X32424Y21081D01*
X32429Y21082D01*
X32430Y21082D01*
X32431Y21082D01*
X32436Y21084D01*
X32440Y21086D01*
X32441Y21086D01*
X32443Y21087D01*
X32447Y21090D01*
X32451Y21093D01*
X32452Y21094D01*
X32453Y21094D01*
X32456Y21098D01*
X32459Y21102D01*
X32460Y21103D01*
X32461Y21104D01*
X32463Y21108D01*
X32465Y21113D01*
X32465Y21114D01*
X32466Y21115D01*
X32468Y21127D01*
X32468Y21129D01*
X32468Y21130D01*
X32468Y21243D01*
X32515Y21291D01*
X32897Y21291D01*
X32945Y21243D01*
X32945Y20677D01*
X32933Y20665D01*
X32929Y20660D01*
X32926Y20656D01*
X32925Y20655D01*
X32923Y20650D01*
X32921Y20645D01*
X32921Y20644D01*
X32920Y20644D01*
X32919Y20638D01*
X32918Y20633D01*
X32918Y20632D01*
X32918Y20631D01*
X32919Y20626D01*
X32919Y20620D01*
X32920Y20620D01*
X32920Y20619D01*
X32922Y20614D01*
X32923Y20608D01*
X32924Y20608D01*
X32924Y20607D01*
X32927Y20603D01*
X32930Y20598D01*
X32931Y20598D01*
X32931Y20597D01*
X32935Y20593D01*
X32939Y20590D01*
X32940Y20589D01*
X32945Y20586D01*
X32950Y20584D01*
X32951Y20584D01*
X32952Y20583D01*
X32964Y20581D01*
X32966Y20581D01*
X32968Y20581D01*
X33232Y20581D01*
X33238Y20581D01*
X33243Y20582D01*
X33244Y20582D01*
X33245Y20582D01*
X33250Y20584D01*
X33255Y20586D01*
X33256Y20587D01*
X33261Y20590D01*
X33265Y20593D01*
X33266Y20594D01*
X33270Y20599D01*
X33273Y20603D01*
X33274Y20603D01*
X33274Y20604D01*
X33276Y20609D01*
X33279Y20614D01*
X33279Y20615D01*
X33280Y20621D01*
X33281Y20626D01*
X33281Y20627D01*
X33282Y20627D01*
X33281Y20633D01*
X33281Y20639D01*
X33281Y20640D01*
X33279Y20645D01*
X33277Y20650D01*
X33277Y20651D01*
X33277Y20652D01*
X33270Y20662D01*
X33268Y20664D01*
X33267Y20665D01*
X33255Y20677D01*
X33255Y21243D01*
X33303Y21291D01*
X33685Y21291D01*
X33732Y21243D01*
X33732Y20677D01*
X33685Y20629D01*
X33664Y20629D01*
X33659Y20629D01*
X33654Y20628D01*
X33653Y20628D01*
X33651Y20628D01*
X33647Y20626D01*
X33642Y20624D01*
X33641Y20624D01*
X33640Y20623D01*
X33636Y20620D01*
X33632Y20617D01*
X33631Y20616D01*
X33630Y20616D01*
X33627Y20612D01*
X33623Y20608D01*
X33623Y20607D01*
X33622Y20606D01*
X33620Y20602D01*
X33618Y20597D01*
X33617Y20596D01*
X33617Y20595D01*
X33615Y20583D01*
X33615Y20581D01*
X33614Y20580D01*
X33614Y20554D01*
X33430Y20369D01*
X33428Y20366D01*
X33425Y20363D01*
X33424Y20361D01*
X33423Y20360D01*
X33421Y20356D01*
X33419Y20352D01*
X33419Y20350D01*
X33418Y20348D01*
X33416Y20336D01*
X33416Y20335D01*
X33416Y20038D01*
X33235Y20038D01*
X33235Y20223D01*
X33242Y20249D01*
X33252Y20265D01*
X33254Y20270D01*
X33256Y20275D01*
X33256Y20276D01*
X33257Y20277D01*
X33257Y20282D01*
X33258Y20287D01*
X33258Y20288D01*
X33258Y20289D01*
X33258Y20294D01*
X33257Y20300D01*
X33257Y20301D01*
X33255Y20306D01*
X33253Y20312D01*
X33253Y20313D01*
X33250Y20317D01*
X33247Y20322D01*
X33246Y20323D01*
X33241Y20327D01*
X33237Y20330D01*
X33237Y20331D01*
X33236Y20331D01*
X33231Y20334D01*
X33226Y20336D01*
X33225Y20337D01*
X33213Y20339D01*
X33211Y20339D01*
X33209Y20339D01*
X32968Y20339D01*
X32962Y20339D01*
X32957Y20338D01*
X32956Y20338D01*
X32955Y20338D01*
X32950Y20336D01*
X32945Y20334D01*
X32944Y20333D01*
X32939Y20330D01*
X32935Y20327D01*
X32934Y20326D01*
X32930Y20321D01*
X32927Y20317D01*
X32926Y20317D01*
X32926Y20316D01*
X32924Y20311D01*
X32921Y20306D01*
X32921Y20305D01*
X32920Y20299D01*
X32919Y20294D01*
X32919Y20293D01*
X32918Y20293D01*
X32919Y20287D01*
X32919Y20281D01*
X32919Y20280D01*
X32921Y20275D01*
X32923Y20270D01*
X32923Y20269D01*
X32923Y20268D01*
X32930Y20258D01*
X32932Y20256D01*
X32933Y20255D01*
X32945Y20243D01*
X32945Y19677D01*
X32897Y19629D01*
X32515Y19629D01*
X32468Y19677D01*
X32468Y19780D01*
X32467Y19785D01*
X32467Y19790D01*
X32467Y19791D01*
X32467Y19792D01*
X32465Y19797D01*
X32463Y19802D01*
X32462Y19803D01*
X32462Y19804D01*
X32459Y19808D01*
X32456Y19812D01*
X32455Y19813D01*
X32455Y19814D01*
X32451Y19817D01*
X32447Y19820D01*
X32446Y19821D01*
X32445Y19822D01*
X32440Y19824D01*
X32436Y19826D01*
X32435Y19826D01*
X32434Y19827D01*
X32421Y19829D01*
X32420Y19829D01*
X32419Y19829D01*
X31885Y19829D01*
X31880Y19829D01*
X31875Y19828D01*
X31874Y19828D01*
X31873Y19828D01*
X31868Y19826D01*
X31863Y19824D01*
X31862Y19824D01*
X31861Y19823D01*
X31857Y19820D01*
X31853Y19817D01*
X31852Y19816D01*
X31851Y19816D01*
X31848Y19812D01*
X31845Y19808D01*
X31844Y19807D01*
X31843Y19806D01*
X31843Y19805D01*
X31460Y19805D01*
X31455Y19804D01*
X31450Y19804D01*
X31449Y19803D01*
X31448Y19803D01*
X31443Y19801D01*
X31438Y19800D01*
X31437Y19799D01*
X31436Y19799D01*
X31432Y19796D01*
X31428Y19793D01*
X31427Y19792D01*
X31426Y19791D01*
X31423Y19787D01*
X31420Y19784D01*
X31419Y19783D01*
X31418Y19782D01*
X31416Y19777D01*
X31414Y19773D01*
X31414Y19772D01*
X31413Y19770D01*
X31411Y19758D01*
X31411Y19757D01*
X31411Y19755D01*
X31411Y19559D01*
X31411Y19554D01*
X31412Y19549D01*
X31412Y19547D01*
X31412Y19546D01*
X31414Y19542D01*
X31416Y19537D01*
X31416Y19536D01*
X31417Y19535D01*
X31420Y19531D01*
X31423Y19527D01*
X31424Y19526D01*
X31424Y19525D01*
X31428Y19521D01*
X31432Y19518D01*
X31433Y19518D01*
X31434Y19517D01*
X31438Y19515D01*
X31443Y19512D01*
X31444Y19512D01*
X31445Y19512D01*
X31457Y19509D01*
X31459Y19509D01*
X31460Y19509D01*
X31836Y19509D01*
X31836Y19500D01*
X31829Y19475D01*
X31822Y19463D01*
X31821Y19460D01*
X31819Y19456D01*
X31819Y19454D01*
X31818Y19452D01*
X31816Y19440D01*
X31816Y19439D01*
X31816Y19344D01*
X31816Y19340D01*
X31817Y19335D01*
X31817Y19333D01*
X31817Y19332D01*
X31819Y19328D01*
X31821Y19323D01*
X31821Y19322D01*
X31822Y19321D01*
X31825Y19317D01*
X31828Y19313D01*
X31829Y19312D01*
X31829Y19311D01*
X31833Y19307D01*
X31837Y19304D01*
X31838Y19304D01*
X31839Y19303D01*
X31843Y19301D01*
X31848Y19298D01*
X31849Y19298D01*
X31850Y19298D01*
X31862Y19295D01*
X31864Y19295D01*
X31865Y19295D01*
X31950Y19295D01*
X32140Y19105D01*
X32143Y19103D01*
X32146Y19100D01*
X32148Y19099D01*
X32150Y19098D01*
X32154Y19096D01*
X32157Y19094D01*
X32159Y19094D01*
X32161Y19093D01*
X32173Y19091D01*
X32174Y19091D01*
X32175Y19091D01*
X32419Y19091D01*
X32424Y19091D01*
X32429Y19092D01*
X32430Y19092D01*
X32431Y19092D01*
X32436Y19094D01*
X32440Y19096D01*
X32441Y19096D01*
X32443Y19097D01*
X32447Y19100D01*
X32451Y19103D01*
X32452Y19104D01*
X32453Y19104D01*
X32456Y19108D01*
X32459Y19112D01*
X32460Y19113D01*
X32461Y19114D01*
X32463Y19118D01*
X32465Y19123D01*
X32465Y19124D01*
X32466Y19125D01*
X32468Y19137D01*
X32468Y19139D01*
X32468Y19140D01*
X32468Y19243D01*
X32515Y19291D01*
X32832Y19291D01*
X32836Y19291D01*
X32840Y19291D01*
X32842Y19292D01*
X32844Y19292D01*
X32848Y19294D01*
X32852Y19295D01*
X32853Y19296D01*
X32856Y19297D01*
X32866Y19304D01*
X32866Y19305D01*
X32867Y19305D01*
X32902Y19341D01*
X33025Y19341D01*
X33030Y19341D01*
X33034Y19341D01*
X33036Y19342D01*
X33038Y19342D01*
X33042Y19344D01*
X33046Y19345D01*
X33047Y19346D01*
X33049Y19347D01*
X33059Y19354D01*
X33060Y19355D01*
X33205Y19500D01*
X33270Y19564D01*
X33273Y19568D01*
X33276Y19572D01*
X33276Y19573D01*
X33277Y19574D01*
X33279Y19579D01*
X33281Y19583D01*
X33282Y19585D01*
X33282Y19586D01*
X33283Y19591D01*
X33284Y19595D01*
X33284Y19597D01*
X33284Y19598D01*
X33284Y19603D01*
X33283Y19608D01*
X33283Y19609D01*
X33283Y19610D01*
X33281Y19615D01*
X33280Y19620D01*
X33279Y19621D01*
X33278Y19622D01*
X33271Y19632D01*
X33270Y19633D01*
X33270Y19634D01*
X33256Y19648D01*
X33242Y19671D01*
X33235Y19697D01*
X33235Y19882D01*
X33465Y19882D01*
X33470Y19883D01*
X33475Y19883D01*
X33476Y19883D01*
X33477Y19884D01*
X33482Y19885D01*
X33487Y19887D01*
X33488Y19888D01*
X33489Y19888D01*
X33493Y19891D01*
X33493Y19892D01*
X33494Y19891D01*
X33495Y19890D01*
X33496Y19889D01*
X33501Y19887D01*
X33505Y19885D01*
X33506Y19885D01*
X33508Y19884D01*
X33520Y19882D01*
X33521Y19882D01*
X33522Y19882D01*
X33752Y19882D01*
X33752Y19697D01*
X33745Y19670D01*
X33744Y19664D01*
X33743Y19658D01*
X33743Y19657D01*
X33744Y19651D01*
X33744Y19646D01*
X33744Y19645D01*
X33747Y19639D01*
X33749Y19634D01*
X33749Y19633D01*
X33752Y19629D01*
X33756Y19624D01*
X33756Y19623D01*
X33761Y19619D01*
X33765Y19616D01*
X33766Y19615D01*
X33771Y19613D01*
X33776Y19610D01*
X33777Y19610D01*
X33783Y19609D01*
X33788Y19608D01*
X33789Y19608D01*
X33795Y19608D01*
X33801Y19608D01*
X33802Y19608D01*
X33807Y19610D01*
X33813Y19612D01*
X33824Y19619D01*
X33826Y19621D01*
X33827Y19622D01*
X33955Y19750D01*
X33957Y19753D01*
X33960Y19756D01*
X33961Y19758D01*
X33962Y19760D01*
X33964Y19764D01*
X33966Y19767D01*
X33966Y19769D01*
X33967Y19771D01*
X33969Y19783D01*
X33969Y19784D01*
X33969Y19785D01*
X33969Y26514D01*
X34086Y26631D01*
X34089Y26634D01*
X34092Y26638D01*
X34093Y26639D01*
X34094Y26641D01*
X34095Y26645D01*
X34097Y26649D01*
X34098Y26650D01*
X34099Y26652D01*
X34100Y26665D01*
X34101Y26666D01*
X34101Y26724D01*
X34134Y26804D01*
X34196Y26866D01*
X34276Y26899D01*
X34350Y26899D01*
X34355Y26900D01*
X34360Y26900D01*
X34361Y26901D01*
X34362Y26901D01*
X34367Y26903D01*
X34372Y26904D01*
X34373Y26905D01*
X34374Y26906D01*
X34378Y26909D01*
X34382Y26911D01*
X34383Y26912D01*
X34384Y26913D01*
X34387Y26917D01*
X34390Y26920D01*
X34391Y26922D01*
X34392Y26923D01*
X34394Y26927D01*
X34396Y26931D01*
X34396Y26932D01*
X34397Y26934D01*
X34399Y26946D01*
X34399Y26948D01*
X34399Y26949D01*
X34399Y27000D01*
X34399Y27005D01*
X34398Y27010D01*
X34398Y27011D01*
X34398Y27012D01*
X34396Y27017D01*
X34394Y27022D01*
X34394Y27023D01*
X34393Y27024D01*
X34390Y27028D01*
X34387Y27032D01*
X34386Y27033D01*
X34386Y27034D01*
X34382Y27037D01*
X34378Y27040D01*
X34377Y27041D01*
X34376Y27042D01*
X34372Y27044D01*
X34367Y27046D01*
X34366Y27046D01*
X34365Y27047D01*
X34353Y27049D01*
X34351Y27049D01*
X34350Y27049D01*
X33530Y27049D01*
X33525Y27049D01*
X33520Y27048D01*
X33519Y27048D01*
X33518Y27048D01*
X33513Y27046D01*
X33508Y27044D01*
X33507Y27044D01*
X33506Y27043D01*
X33502Y27040D01*
X33498Y27037D01*
X33497Y27036D01*
X33496Y27036D01*
X33493Y27032D01*
X33490Y27028D01*
X33489Y27027D01*
X33488Y27026D01*
X33486Y27022D01*
X33484Y27017D01*
X33484Y27016D01*
X33483Y27015D01*
X33481Y27003D01*
X33481Y27001D01*
X33481Y27000D01*
X33481Y26015D01*
X33481Y26010D01*
X33482Y26005D01*
X33482Y26004D01*
X33482Y26003D01*
X33484Y25998D01*
X33486Y25993D01*
X33486Y25992D01*
X33487Y25991D01*
X33490Y25987D01*
X33493Y25983D01*
X33494Y25982D01*
X33494Y25981D01*
X33498Y25978D01*
X33502Y25975D01*
X33503Y25974D01*
X33504Y25973D01*
X33508Y25971D01*
X33513Y25969D01*
X33514Y25969D01*
X33515Y25968D01*
X33527Y25966D01*
X33529Y25966D01*
X33530Y25966D01*
X33559Y25966D01*
X33856Y25669D01*
X33856Y25251D01*
X33619Y25014D01*
X33616Y25010D01*
X33613Y25006D01*
X33612Y25005D01*
X33612Y25004D01*
X33610Y25000D01*
X33607Y24995D01*
X33607Y24994D01*
X33607Y24993D01*
X33606Y24988D01*
X33605Y24983D01*
X33605Y24982D01*
X33605Y24980D01*
X33605Y24976D01*
X33606Y24971D01*
X33606Y24969D01*
X33606Y24968D01*
X33608Y24963D01*
X33609Y24959D01*
X33610Y24958D01*
X33610Y24956D01*
X33617Y24946D01*
X33619Y24945D01*
X33619Y24944D01*
X33846Y24718D01*
X33846Y24599D01*
X33370Y24599D01*
X33365Y24599D01*
X33360Y24598D01*
X33359Y24598D01*
X33358Y24598D01*
X33353Y24596D01*
X33348Y24594D01*
X33347Y24594D01*
X33346Y24593D01*
X33342Y24590D01*
X33338Y24587D01*
X33337Y24586D01*
X33336Y24586D01*
X33333Y24582D01*
X33330Y24578D01*
X33329Y24577D01*
X33328Y24576D01*
X33326Y24572D01*
X33324Y24567D01*
X33324Y24566D01*
X33323Y24565D01*
X33321Y24553D01*
X33321Y24551D01*
X33321Y24550D01*
X33321Y24499D01*
X33319Y24499D01*
X33319Y24550D01*
X33319Y24555D01*
X33318Y24560D01*
X33318Y24561D01*
X33318Y24562D01*
X33316Y24567D01*
X33314Y24572D01*
X33314Y24573D01*
X33313Y24574D01*
X33310Y24578D01*
X33307Y24582D01*
X33306Y24583D01*
X33306Y24584D01*
X33302Y24587D01*
X33298Y24590D01*
X33297Y24591D01*
X33296Y24592D01*
X33292Y24594D01*
X33287Y24596D01*
X33286Y24596D01*
X33285Y24597D01*
X33273Y24599D01*
X33271Y24599D01*
X33270Y24599D01*
X32794Y24599D01*
X32794Y24718D01*
X33051Y24974D01*
X33054Y24978D01*
X33057Y24982D01*
X33058Y24983D01*
X33058Y24984D01*
X33060Y24989D01*
X33063Y24993D01*
X33063Y24994D01*
X33063Y24996D01*
X33064Y25000D01*
X33065Y25005D01*
X33065Y25007D01*
X33065Y25008D01*
X33065Y25013D01*
X33064Y25018D01*
X33064Y25019D01*
X33064Y25020D01*
X33062Y25025D01*
X33061Y25030D01*
X33060Y25030D01*
X33060Y25032D01*
X33053Y25042D01*
X33051Y25043D01*
X33051Y25044D01*
X32844Y25251D01*
X32844Y25669D01*
X33141Y25966D01*
X33170Y25966D01*
X33175Y25966D01*
X33180Y25967D01*
X33181Y25967D01*
X33182Y25967D01*
X33187Y25969D01*
X33192Y25971D01*
X33193Y25971D01*
X33194Y25972D01*
X33198Y25975D01*
X33202Y25978D01*
X33203Y25979D01*
X33204Y25979D01*
X33207Y25983D01*
X33210Y25987D01*
X33211Y25988D01*
X33212Y25989D01*
X33214Y25993D01*
X33216Y25998D01*
X33216Y25999D01*
X33217Y26000D01*
X33219Y26012D01*
X33219Y26014D01*
X33219Y26015D01*
X33219Y26885D01*
X33219Y26890D01*
X33219Y26894D01*
X33218Y26896D01*
X33218Y26898D01*
X33216Y26902D01*
X33215Y26906D01*
X33214Y26907D01*
X33213Y26909D01*
X33206Y26919D01*
X33205Y26920D01*
X33090Y27035D01*
X33087Y27037D01*
X33084Y27040D01*
X33082Y27041D01*
X33080Y27042D01*
X33076Y27044D01*
X33073Y27046D01*
X33071Y27046D01*
X33069Y27047D01*
X33057Y27049D01*
X33056Y27049D01*
X33055Y27049D01*
X32065Y27049D01*
X32059Y27049D01*
X32053Y27048D01*
X32052Y27048D01*
X32047Y27046D01*
X32042Y27044D01*
X32041Y27043D01*
X32036Y27040D01*
X32032Y27037D01*
X32031Y27036D01*
X32027Y27031D01*
X32023Y27027D01*
X32023Y27026D01*
X32020Y27021D01*
X32018Y27016D01*
X32018Y27015D01*
X32017Y27009D01*
X32015Y27004D01*
X32015Y27003D01*
X32016Y26997D01*
X32016Y26991D01*
X32016Y26990D01*
X32018Y26985D01*
X32020Y26980D01*
X32020Y26979D01*
X32020Y26978D01*
X32027Y26968D01*
X32029Y26966D01*
X32030Y26965D01*
X32231Y26764D01*
X32231Y26015D01*
X32231Y26010D01*
X32232Y26005D01*
X32232Y26004D01*
X32232Y26003D01*
X32234Y25998D01*
X32236Y25993D01*
X32236Y25992D01*
X32237Y25991D01*
X32240Y25987D01*
X32243Y25983D01*
X32244Y25982D01*
X32244Y25981D01*
X32248Y25978D01*
X32252Y25975D01*
X32253Y25974D01*
X32254Y25973D01*
X32258Y25971D01*
X32263Y25969D01*
X32264Y25969D01*
X32265Y25968D01*
X32277Y25966D01*
X32279Y25966D01*
X32280Y25966D01*
X32309Y25966D01*
X32606Y25669D01*
X32606Y25251D01*
X32350Y24995D01*
X32347Y24991D01*
X32344Y24987D01*
X32343Y24986D01*
X32342Y24985D01*
X32341Y24980D01*
X32338Y24976D01*
X32338Y24975D01*
X32338Y24974D01*
X32337Y24969D01*
X32336Y24964D01*
X32336Y24963D01*
X32336Y24961D01*
X32336Y24956D01*
X32336Y24951D01*
X32337Y24950D01*
X32337Y24949D01*
X32339Y24944D01*
X32340Y24940D01*
X32341Y24939D01*
X32341Y24937D01*
X32348Y24927D01*
X32349Y24926D01*
X32350Y24925D01*
X32606Y24669D01*
X32606Y24251D01*
X32309Y23954D01*
X31891Y23954D01*
X31594Y24251D01*
X31594Y24669D01*
X31850Y24925D01*
X31853Y24929D01*
X31856Y24933D01*
X31857Y24934D01*
X31858Y24935D01*
X31859Y24940D01*
X31862Y24944D01*
X31862Y24945D01*
X31862Y24946D01*
X31863Y24951D01*
X31864Y24956D01*
X31864Y24957D01*
X31864Y24959D01*
X31864Y24964D01*
X31864Y24969D01*
X31863Y24970D01*
X31863Y24971D01*
X31861Y24976D01*
X31860Y24980D01*
X31859Y24981D01*
X31859Y24983D01*
X31852Y24993D01*
X31851Y24994D01*
X31850Y24995D01*
X31594Y25251D01*
X31594Y25669D01*
X31891Y25966D01*
X31920Y25966D01*
X31925Y25966D01*
X31930Y25967D01*
X31931Y25967D01*
X31932Y25967D01*
X31937Y25969D01*
X31942Y25971D01*
X31943Y25971D01*
X31944Y25972D01*
X31948Y25975D01*
X31952Y25978D01*
X31953Y25979D01*
X31954Y25979D01*
X31957Y25983D01*
X31960Y25987D01*
X31961Y25988D01*
X31962Y25989D01*
X31964Y25993D01*
X31966Y25998D01*
X31966Y25999D01*
X31967Y26000D01*
X31969Y26012D01*
X31969Y26014D01*
X31969Y26015D01*
X31969Y26635D01*
X31969Y26640D01*
X31969Y26644D01*
X31968Y26646D01*
X31968Y26648D01*
X31966Y26652D01*
X31965Y26656D01*
X31964Y26657D01*
X31963Y26659D01*
X31956Y26669D01*
X31955Y26670D01*
X31810Y26815D01*
X31807Y26817D01*
X31804Y26820D01*
X31802Y26821D01*
X31800Y26822D01*
X31796Y26824D01*
X31793Y26826D01*
X31791Y26826D01*
X31789Y26827D01*
X31777Y26829D01*
X31776Y26829D01*
X31775Y26829D01*
X30785Y26829D01*
X30779Y26829D01*
X30773Y26828D01*
X30772Y26828D01*
X30767Y26826D01*
X30762Y26824D01*
X30761Y26823D01*
X30756Y26820D01*
X30752Y26817D01*
X30751Y26816D01*
X30747Y26811D01*
X30743Y26807D01*
X30743Y26806D01*
X30740Y26801D01*
X30738Y26796D01*
X30738Y26795D01*
X30737Y26789D01*
X30735Y26784D01*
X30735Y26783D01*
X30736Y26777D01*
X30736Y26771D01*
X30736Y26770D01*
X30738Y26765D01*
X30740Y26760D01*
X30740Y26759D01*
X30740Y26758D01*
X30747Y26748D01*
X30749Y26746D01*
X30750Y26745D01*
X30890Y26605D01*
X30981Y26514D01*
X30981Y26015D01*
X30981Y26010D01*
X30982Y26005D01*
X30982Y26004D01*
X30982Y26003D01*
X30984Y25998D01*
X30986Y25993D01*
X30986Y25992D01*
X30987Y25991D01*
X30990Y25987D01*
X30993Y25983D01*
X30994Y25982D01*
X30994Y25981D01*
X30998Y25978D01*
X31002Y25975D01*
X31003Y25974D01*
X31004Y25973D01*
X31008Y25971D01*
X31013Y25969D01*
X31014Y25969D01*
X31015Y25968D01*
X31027Y25966D01*
X31029Y25966D01*
X31030Y25966D01*
X31059Y25966D01*
X31356Y25669D01*
X31356Y25251D01*
X31100Y24995D01*
X31097Y24991D01*
X31094Y24987D01*
X31093Y24986D01*
X31092Y24985D01*
X31091Y24980D01*
X31088Y24976D01*
X31088Y24975D01*
X31088Y24974D01*
X31087Y24969D01*
X31086Y24964D01*
X31086Y24963D01*
X31086Y24961D01*
X31086Y24956D01*
X31086Y24951D01*
X31087Y24950D01*
X31087Y24949D01*
X31089Y24944D01*
X31090Y24940D01*
X31091Y24939D01*
X31091Y24937D01*
X31098Y24927D01*
X31099Y24926D01*
X31100Y24925D01*
X31356Y24669D01*
X31356Y24251D01*
X31059Y23954D01*
X31030Y23954D01*
X31025Y23954D01*
X31020Y23953D01*
X31019Y23953D01*
X31018Y23953D01*
X31013Y23951D01*
X31008Y23949D01*
X31007Y23949D01*
X31006Y23948D01*
X31002Y23945D01*
X30998Y23942D01*
X30997Y23941D01*
X30996Y23941D01*
X30993Y23937D01*
X30990Y23933D01*
X30989Y23932D01*
X30988Y23931D01*
X30986Y23927D01*
X30984Y23922D01*
X30984Y23921D01*
X30983Y23920D01*
X30981Y23908D01*
X30981Y23907D01*
X30981Y23906D01*
X30981Y23905D01*
X30981Y21906D01*
X30654Y21579D01*
X30425Y21579D01*
X30420Y21579D01*
X30416Y21579D01*
X30414Y21578D01*
X30412Y21578D01*
X30408Y21576D01*
X30404Y21575D01*
X30403Y21574D01*
X30401Y21573D01*
X30391Y21566D01*
X30390Y21565D01*
X30351Y21527D01*
X30349Y21523D01*
X30346Y21520D01*
X30345Y21518D01*
X30344Y21517D01*
X30342Y21513D01*
X30340Y21509D01*
X30340Y21508D01*
X30340Y21507D01*
X30339Y21506D01*
X30339Y21505D01*
X30338Y21498D01*
X30337Y21494D01*
X30337Y21493D01*
X30337Y21492D01*
X30337Y21340D01*
X30338Y21335D01*
X30338Y21330D01*
X30338Y21329D01*
X30339Y21328D01*
X30340Y21323D01*
X30342Y21318D01*
X30343Y21317D01*
X30343Y21316D01*
X30346Y21312D01*
X30349Y21308D01*
X30350Y21307D01*
X30351Y21306D01*
X30354Y21303D01*
X30358Y21300D01*
X30359Y21299D01*
X30360Y21298D01*
X30365Y21296D01*
X30369Y21294D01*
X30370Y21294D01*
X30371Y21293D01*
X30384Y21291D01*
X30385Y21291D01*
X30386Y21291D01*
X30397Y21291D01*
X30445Y21243D01*
X30445Y20677D01*
X30397Y20629D01*
X30015Y20629D01*
X29968Y20677D01*
X29968Y20780D01*
X29967Y20785D01*
X29967Y20790D01*
X29967Y20791D01*
X29967Y20792D01*
X29965Y20797D01*
X29963Y20802D01*
X29962Y20803D01*
X29962Y20804D01*
X29959Y20808D01*
X29956Y20812D01*
X29955Y20813D01*
X29955Y20814D01*
X29951Y20817D01*
X29947Y20820D01*
X29946Y20821D01*
X29945Y20822D01*
X29940Y20824D01*
X29936Y20826D01*
X29935Y20826D01*
X29934Y20827D01*
X29921Y20829D01*
X29920Y20829D01*
X29919Y20829D01*
X29800Y20829D01*
X29796Y20829D01*
X29792Y20829D01*
X29790Y20828D01*
X29788Y20828D01*
X29784Y20826D01*
X29780Y20825D01*
X29778Y20824D01*
X29776Y20823D01*
X29766Y20816D01*
X29766Y20815D01*
X29765Y20815D01*
X29724Y20774D01*
X29644Y20741D01*
X29556Y20741D01*
X29476Y20774D01*
X29414Y20836D01*
X29381Y20916D01*
X29381Y21004D01*
X29414Y21084D01*
X29476Y21146D01*
X29556Y21179D01*
X29644Y21179D01*
X29724Y21146D01*
X29765Y21105D01*
X29769Y21103D01*
X29772Y21100D01*
X29774Y21099D01*
X29775Y21098D01*
X29779Y21096D01*
X29783Y21094D01*
X29784Y21094D01*
X29786Y21093D01*
X29799Y21091D01*
X29800Y21091D01*
X29919Y21091D01*
X29924Y21091D01*
X29929Y21092D01*
X29930Y21092D01*
X29931Y21092D01*
X29936Y21094D01*
X29940Y21096D01*
X29941Y21096D01*
X29943Y21097D01*
X29947Y21100D01*
X29951Y21103D01*
X29952Y21104D01*
X29953Y21104D01*
X29956Y21108D01*
X29959Y21112D01*
X29960Y21113D01*
X29961Y21114D01*
X29963Y21118D01*
X29965Y21123D01*
X29965Y21124D01*
X29966Y21125D01*
X29968Y21137D01*
X29968Y21139D01*
X29968Y21140D01*
X29968Y21243D01*
X30015Y21291D01*
X30026Y21291D01*
X30031Y21291D01*
X30036Y21292D01*
X30037Y21292D01*
X30039Y21292D01*
X30043Y21294D01*
X30048Y21296D01*
X30049Y21296D01*
X30050Y21297D01*
X30054Y21300D01*
X30058Y21303D01*
X30059Y21304D01*
X30060Y21304D01*
X30063Y21308D01*
X30067Y21312D01*
X30067Y21313D01*
X30068Y21314D01*
X30070Y21318D01*
X30072Y21323D01*
X30073Y21324D01*
X30073Y21325D01*
X30075Y21337D01*
X30075Y21339D01*
X30076Y21340D01*
X30076Y21620D01*
X30296Y21841D01*
X30525Y21841D01*
X30530Y21841D01*
X30534Y21841D01*
X30536Y21842D01*
X30538Y21842D01*
X30542Y21844D01*
X30546Y21845D01*
X30547Y21846D01*
X30549Y21847D01*
X30559Y21854D01*
X30560Y21855D01*
X30705Y22000D01*
X30707Y22003D01*
X30710Y22006D01*
X30711Y22008D01*
X30712Y22010D01*
X30714Y22014D01*
X30716Y22017D01*
X30716Y22019D01*
X30717Y22021D01*
X30719Y22033D01*
X30719Y22034D01*
X30719Y22035D01*
X30719Y23905D01*
X30719Y23910D01*
X30718Y23915D01*
X30718Y23916D01*
X30718Y23917D01*
X30716Y23922D01*
X30714Y23927D01*
X30714Y23928D01*
X30713Y23929D01*
X30710Y23933D01*
X30707Y23937D01*
X30706Y23938D01*
X30706Y23939D01*
X30702Y23942D01*
X30698Y23945D01*
X30697Y23946D01*
X30696Y23947D01*
X30692Y23949D01*
X30687Y23951D01*
X30686Y23951D01*
X30685Y23952D01*
X30673Y23954D01*
X30671Y23954D01*
X30670Y23954D01*
X30641Y23954D01*
X30344Y24251D01*
X30344Y24669D01*
X30600Y24925D01*
X30603Y24929D01*
X30606Y24933D01*
X30607Y24934D01*
X30608Y24935D01*
X30609Y24940D01*
X30612Y24944D01*
X30612Y24945D01*
X30612Y24946D01*
X30613Y24951D01*
X30614Y24956D01*
X30614Y24957D01*
X30614Y24959D01*
X30614Y24964D01*
X30614Y24969D01*
X30613Y24970D01*
X30613Y24971D01*
X30611Y24976D01*
X30610Y24980D01*
X30609Y24981D01*
X30609Y24983D01*
X30602Y24993D01*
X30601Y24994D01*
X30600Y24995D01*
X30344Y25251D01*
X30344Y25669D01*
X30641Y25966D01*
X30670Y25966D01*
X30675Y25966D01*
X30680Y25967D01*
X30681Y25967D01*
X30682Y25967D01*
X30687Y25969D01*
X30692Y25971D01*
X30693Y25971D01*
X30694Y25972D01*
X30698Y25975D01*
X30702Y25978D01*
X30703Y25979D01*
X30704Y25979D01*
X30707Y25983D01*
X30710Y25987D01*
X30711Y25988D01*
X30712Y25989D01*
X30714Y25993D01*
X30716Y25998D01*
X30716Y25999D01*
X30717Y26000D01*
X30719Y26012D01*
X30719Y26014D01*
X30719Y26015D01*
X30719Y26385D01*
X30719Y26390D01*
X30719Y26394D01*
X30718Y26396D01*
X30718Y26398D01*
X30716Y26402D01*
X30715Y26406D01*
X30714Y26407D01*
X30713Y26409D01*
X30706Y26419D01*
X30705Y26420D01*
X30560Y26565D01*
X30557Y26567D01*
X30554Y26570D01*
X30552Y26571D01*
X30550Y26572D01*
X30546Y26574D01*
X30543Y26576D01*
X30541Y26576D01*
X30539Y26577D01*
X30527Y26579D01*
X30526Y26579D01*
X30525Y26579D01*
X29535Y26579D01*
X29529Y26579D01*
X29523Y26578D01*
X29522Y26578D01*
X29517Y26576D01*
X29512Y26574D01*
X29511Y26573D01*
X29506Y26570D01*
X29502Y26567D01*
X29501Y26566D01*
X29497Y26561D01*
X29493Y26557D01*
X29493Y26556D01*
X29490Y26551D01*
X29488Y26546D01*
X29488Y26545D01*
X29487Y26539D01*
X29485Y26534D01*
X29485Y26533D01*
X29486Y26527D01*
X29486Y26521D01*
X29486Y26520D01*
X29488Y26515D01*
X29490Y26510D01*
X29490Y26509D01*
X29490Y26508D01*
X29497Y26498D01*
X29499Y26496D01*
X29500Y26495D01*
X29731Y26264D01*
X29731Y26015D01*
X29731Y26010D01*
X29732Y26005D01*
X29732Y26004D01*
X29732Y26003D01*
X29734Y25998D01*
X29736Y25993D01*
X29736Y25992D01*
X29737Y25991D01*
X29740Y25987D01*
X29743Y25983D01*
X29744Y25982D01*
X29744Y25981D01*
X29748Y25978D01*
X29752Y25975D01*
X29753Y25974D01*
X29754Y25973D01*
X29758Y25971D01*
X29763Y25969D01*
X29764Y25969D01*
X29765Y25968D01*
X29777Y25966D01*
X29779Y25966D01*
X29780Y25966D01*
X29809Y25966D01*
X30106Y25669D01*
X30106Y25251D01*
X29850Y24995D01*
X29847Y24991D01*
X29844Y24987D01*
X29843Y24986D01*
X29842Y24985D01*
X29841Y24980D01*
X29838Y24976D01*
X29838Y24975D01*
X29838Y24974D01*
X29837Y24969D01*
X29836Y24964D01*
X29836Y24963D01*
X29836Y24961D01*
X29836Y24956D01*
X29836Y24951D01*
X29837Y24950D01*
X29837Y24949D01*
X29839Y24944D01*
X29840Y24940D01*
X29841Y24939D01*
X29841Y24937D01*
X29848Y24927D01*
X29849Y24926D01*
X29850Y24925D01*
X30106Y24669D01*
X30106Y24251D01*
X29809Y23954D01*
X29780Y23954D01*
X29775Y23954D01*
X29770Y23953D01*
X29769Y23953D01*
X29768Y23953D01*
X29763Y23951D01*
X29758Y23949D01*
X29757Y23949D01*
X29756Y23948D01*
X29752Y23945D01*
X29748Y23942D01*
X29747Y23941D01*
X29746Y23941D01*
X29743Y23937D01*
X29740Y23933D01*
X29739Y23932D01*
X29738Y23931D01*
X29736Y23927D01*
X29734Y23922D01*
X29734Y23921D01*
X29733Y23920D01*
X29731Y23908D01*
X29731Y23907D01*
X29731Y23906D01*
X29731Y23905D01*
X29731Y21906D01*
X29404Y21579D01*
X29175Y21579D01*
X29170Y21579D01*
X29166Y21579D01*
X29164Y21578D01*
X29162Y21578D01*
X29158Y21576D01*
X29154Y21575D01*
X29153Y21574D01*
X29151Y21573D01*
X29141Y21566D01*
X29140Y21565D01*
X28995Y21420D01*
X28993Y21417D01*
X28990Y21414D01*
X28989Y21412D01*
X28988Y21410D01*
X28986Y21406D01*
X28984Y21403D01*
X28984Y21401D01*
X28983Y21399D01*
X28981Y21387D01*
X28981Y21386D01*
X28981Y21385D01*
X28981Y20285D01*
X28981Y20280D01*
X28981Y20276D01*
X28982Y20274D01*
X28982Y20272D01*
X28984Y20268D01*
X28985Y20264D01*
X28986Y20263D01*
X28987Y20261D01*
X28994Y20251D01*
X28995Y20250D01*
X29147Y20098D01*
X29151Y20095D01*
X29154Y20092D01*
X29156Y20091D01*
X29157Y20090D01*
X29161Y20088D01*
X29165Y20086D01*
X29166Y20086D01*
X29168Y20085D01*
X29181Y20083D01*
X29182Y20083D01*
X29315Y20083D01*
X29320Y20084D01*
X29325Y20084D01*
X29326Y20085D01*
X29327Y20085D01*
X29332Y20087D01*
X29337Y20088D01*
X29338Y20089D01*
X29339Y20089D01*
X29343Y20092D01*
X29347Y20095D01*
X29348Y20096D01*
X29349Y20097D01*
X29352Y20100D01*
X29740Y20100D01*
X30116Y20100D01*
X30116Y20091D01*
X30109Y20066D01*
X30102Y20054D01*
X30101Y20051D01*
X30099Y20047D01*
X30099Y20045D01*
X30098Y20043D01*
X30096Y20031D01*
X30096Y20030D01*
X30096Y18950D01*
X30096Y18946D01*
X30097Y18941D01*
X30097Y18939D01*
X30097Y18938D01*
X30099Y18934D01*
X30101Y18929D01*
X30101Y18928D01*
X30102Y18927D01*
X30105Y18923D01*
X30108Y18919D01*
X30109Y18918D01*
X30109Y18917D01*
X30113Y18913D01*
X30117Y18910D01*
X30118Y18910D01*
X30119Y18909D01*
X30123Y18907D01*
X30128Y18904D01*
X30129Y18904D01*
X30130Y18904D01*
X30142Y18901D01*
X30144Y18901D01*
X30145Y18901D01*
X30670Y18901D01*
X30675Y18902D01*
G37*
G36*
X17714Y441D02*
X17714Y441D01*
X17718Y442D01*
X17719Y442D01*
X17723Y444D01*
X17727Y446D01*
X17727Y447D01*
X17728Y447D01*
X17731Y449D01*
X18051Y769D01*
X18053Y773D01*
X18055Y776D01*
X18056Y776D01*
X18056Y777D01*
X18057Y781D01*
X18059Y785D01*
X18059Y786D01*
X18059Y787D01*
X18059Y790D01*
X18059Y2300D01*
X18059Y2304D01*
X18058Y2308D01*
X18058Y2309D01*
X18056Y2313D01*
X18054Y2317D01*
X18053Y2317D01*
X18053Y2318D01*
X18051Y2321D01*
X17961Y2411D01*
X17957Y2413D01*
X17954Y2415D01*
X17954Y2416D01*
X17953Y2416D01*
X17949Y2417D01*
X17945Y2419D01*
X17944Y2419D01*
X17943Y2419D01*
X17940Y2419D01*
X17500Y2419D01*
X17496Y2419D01*
X17492Y2418D01*
X17491Y2418D01*
X17487Y2416D01*
X17483Y2414D01*
X17483Y2413D01*
X17482Y2413D01*
X17479Y2411D01*
X17409Y2341D01*
X17407Y2337D01*
X17405Y2334D01*
X17404Y2334D01*
X17404Y2333D01*
X17403Y2329D01*
X17401Y2325D01*
X17401Y2324D01*
X17401Y2323D01*
X17401Y2320D01*
X17401Y869D01*
X13512Y869D01*
X13359Y1022D01*
X13359Y2228D01*
X13391Y2259D01*
X13392Y2262D01*
X13394Y2264D01*
X13395Y2266D01*
X13396Y2267D01*
X13397Y2270D01*
X13398Y2273D01*
X13398Y2274D01*
X13399Y2276D01*
X13399Y2279D01*
X13399Y2282D01*
X13399Y2284D01*
X13399Y2286D01*
X13398Y2289D01*
X13397Y2291D01*
X13396Y2293D01*
X13395Y2295D01*
X13393Y2297D01*
X13392Y2299D01*
X13390Y2301D01*
X13389Y2302D01*
X13387Y2304D01*
X13384Y2305D01*
X13383Y2306D01*
X13381Y2307D01*
X13378Y2308D01*
X13375Y2309D01*
X13372Y2309D01*
X13371Y2309D01*
X13370Y2309D01*
X11222Y2309D01*
X10811Y2721D01*
X10807Y2723D01*
X10804Y2725D01*
X10804Y2726D01*
X10803Y2726D01*
X10799Y2727D01*
X10795Y2729D01*
X10794Y2729D01*
X10793Y2729D01*
X10790Y2729D01*
X9962Y2729D01*
X9299Y3392D01*
X9299Y4381D01*
X9300Y4381D01*
X9301Y4381D01*
X9302Y4381D01*
X9306Y4382D01*
X9309Y4382D01*
X9310Y4383D01*
X9311Y4383D01*
X9315Y4385D01*
X9318Y4387D01*
X9319Y4388D01*
X9322Y4391D01*
X9324Y4394D01*
X9325Y4395D01*
X9325Y4396D01*
X9327Y4399D01*
X9328Y4403D01*
X9328Y4404D01*
X9329Y4405D01*
X9329Y4410D01*
X9329Y5110D01*
X9329Y5114D01*
X9328Y5118D01*
X9328Y5119D01*
X9326Y5123D01*
X9324Y5127D01*
X9323Y5127D01*
X9323Y5128D01*
X9321Y5131D01*
X8821Y5631D01*
X8817Y5633D01*
X8814Y5635D01*
X8814Y5636D01*
X8813Y5636D01*
X8809Y5637D01*
X8805Y5639D01*
X8804Y5639D01*
X8803Y5639D01*
X8800Y5639D01*
X8412Y5639D01*
X8029Y6022D01*
X8029Y7010D01*
X8029Y7014D01*
X8028Y7018D01*
X8028Y7019D01*
X8026Y7023D01*
X8024Y7027D01*
X8023Y7027D01*
X8023Y7028D01*
X8021Y7031D01*
X7921Y7131D01*
X7917Y7133D01*
X7914Y7135D01*
X7914Y7136D01*
X7913Y7136D01*
X7909Y7137D01*
X7905Y7139D01*
X7904Y7139D01*
X7903Y7139D01*
X7900Y7139D01*
X7712Y7139D01*
X7529Y7322D01*
X7529Y7610D01*
X7529Y7611D01*
X7529Y7612D01*
X7528Y7616D01*
X7528Y7619D01*
X7527Y7620D01*
X7527Y7621D01*
X7525Y7625D01*
X7523Y7628D01*
X7522Y7629D01*
X7519Y7632D01*
X7516Y7634D01*
X7515Y7635D01*
X7514Y7635D01*
X7511Y7637D01*
X7507Y7638D01*
X7506Y7638D01*
X7505Y7639D01*
X7500Y7639D01*
X7229Y7639D01*
X7229Y7810D01*
X7229Y7814D01*
X7228Y7818D01*
X7228Y7819D01*
X7226Y7823D01*
X7224Y7827D01*
X7223Y7827D01*
X7223Y7828D01*
X7221Y7831D01*
X7121Y7931D01*
X7117Y7933D01*
X7114Y7935D01*
X7114Y7936D01*
X7113Y7936D01*
X7109Y7937D01*
X7105Y7939D01*
X7104Y7939D01*
X7103Y7939D01*
X7100Y7939D01*
X4929Y7939D01*
X4929Y9581D01*
X7400Y9581D01*
X7404Y9581D01*
X7408Y9582D01*
X7409Y9582D01*
X7413Y9584D01*
X7417Y9586D01*
X7417Y9587D01*
X7418Y9587D01*
X7421Y9589D01*
X7521Y9689D01*
X7523Y9693D01*
X7525Y9696D01*
X7526Y9696D01*
X7526Y9697D01*
X7527Y9701D01*
X7529Y9705D01*
X7529Y9706D01*
X7529Y9707D01*
X7529Y9710D01*
X7529Y10110D01*
X7529Y10111D01*
X7529Y10112D01*
X7528Y10116D01*
X7528Y10119D01*
X7527Y10120D01*
X7527Y10121D01*
X7525Y10125D01*
X7523Y10128D01*
X7522Y10129D01*
X7519Y10132D01*
X7516Y10134D01*
X7515Y10135D01*
X7514Y10135D01*
X7511Y10137D01*
X7507Y10138D01*
X7506Y10138D01*
X7505Y10139D01*
X7500Y10139D01*
X4400Y10139D01*
X4399Y10139D01*
X4398Y10139D01*
X4394Y10138D01*
X4391Y10138D01*
X4390Y10137D01*
X4389Y10137D01*
X4385Y10135D01*
X4382Y10133D01*
X4381Y10132D01*
X4378Y10129D01*
X4376Y10126D01*
X4375Y10125D01*
X4375Y10124D01*
X4373Y10121D01*
X4372Y10117D01*
X4372Y10116D01*
X4371Y10115D01*
X4371Y10110D01*
X4371Y7410D01*
X4371Y7409D01*
X4371Y7408D01*
X4372Y7404D01*
X4372Y7401D01*
X4373Y7400D01*
X4373Y7399D01*
X4375Y7395D01*
X4377Y7392D01*
X4378Y7391D01*
X4381Y7388D01*
X4384Y7386D01*
X4385Y7385D01*
X4386Y7385D01*
X4389Y7383D01*
X4393Y7382D01*
X4394Y7382D01*
X4395Y7381D01*
X4400Y7381D01*
X6971Y7381D01*
X6971Y6210D01*
X6971Y6206D01*
X6972Y6202D01*
X6972Y6201D01*
X6974Y6197D01*
X6976Y6193D01*
X6977Y6193D01*
X6977Y6192D01*
X6979Y6189D01*
X8601Y4568D01*
X8601Y2510D01*
X8601Y2506D01*
X8602Y2502D01*
X8602Y2501D01*
X8604Y2497D01*
X8606Y2493D01*
X8607Y2493D01*
X8607Y2492D01*
X8609Y2489D01*
X10649Y449D01*
X10653Y447D01*
X10656Y445D01*
X10656Y444D01*
X10657Y444D01*
X10661Y443D01*
X10665Y441D01*
X10666Y441D01*
X10667Y441D01*
X10670Y441D01*
X17710Y441D01*
X17714Y441D01*
G37*
G36*
X31292Y13661D02*
X31292Y13661D01*
X31298Y13662D01*
X31299Y13662D01*
X31304Y13664D01*
X31310Y13666D01*
X31310Y13667D01*
X31311Y13667D01*
X31315Y13670D01*
X31320Y13673D01*
X31320Y13674D01*
X31321Y13674D01*
X31324Y13679D01*
X31328Y13683D01*
X31329Y13684D01*
X31331Y13689D01*
X31333Y13694D01*
X31334Y13695D01*
X31335Y13701D01*
X31336Y13706D01*
X31336Y13707D01*
X31336Y13713D01*
X31335Y13719D01*
X31335Y13720D01*
X31333Y13725D01*
X31332Y13730D01*
X31331Y13731D01*
X31331Y13732D01*
X31324Y13742D01*
X31323Y13744D01*
X31322Y13745D01*
X31074Y13992D01*
X31074Y14111D01*
X31550Y14111D01*
X31555Y14111D01*
X31560Y14112D01*
X31561Y14112D01*
X31562Y14112D01*
X31567Y14114D01*
X31572Y14116D01*
X31573Y14116D01*
X31574Y14117D01*
X31578Y14120D01*
X31582Y14123D01*
X31583Y14124D01*
X31584Y14124D01*
X31587Y14128D01*
X31590Y14132D01*
X31591Y14133D01*
X31592Y14134D01*
X31594Y14138D01*
X31596Y14143D01*
X31596Y14144D01*
X31597Y14145D01*
X31599Y14157D01*
X31599Y14159D01*
X31599Y14160D01*
X31599Y14260D01*
X31599Y14265D01*
X31598Y14270D01*
X31598Y14271D01*
X31598Y14272D01*
X31596Y14277D01*
X31594Y14282D01*
X31594Y14283D01*
X31593Y14284D01*
X31590Y14288D01*
X31587Y14292D01*
X31586Y14293D01*
X31586Y14294D01*
X31582Y14297D01*
X31578Y14300D01*
X31577Y14301D01*
X31576Y14302D01*
X31572Y14304D01*
X31567Y14306D01*
X31566Y14306D01*
X31565Y14307D01*
X31553Y14309D01*
X31551Y14309D01*
X31550Y14309D01*
X31074Y14309D01*
X31074Y14428D01*
X31336Y14689D01*
X31339Y14693D01*
X31342Y14697D01*
X31343Y14698D01*
X31343Y14699D01*
X31345Y14704D01*
X31348Y14708D01*
X31348Y14709D01*
X31348Y14711D01*
X31349Y14715D01*
X31350Y14720D01*
X31350Y14722D01*
X31350Y14723D01*
X31350Y14728D01*
X31349Y14733D01*
X31349Y14734D01*
X31349Y14735D01*
X31347Y14740D01*
X31346Y14745D01*
X31345Y14745D01*
X31345Y14747D01*
X31338Y14757D01*
X31336Y14758D01*
X31336Y14759D01*
X31094Y15001D01*
X31094Y15419D01*
X31350Y15675D01*
X31353Y15679D01*
X31356Y15683D01*
X31357Y15684D01*
X31358Y15685D01*
X31359Y15690D01*
X31362Y15694D01*
X31362Y15695D01*
X31362Y15696D01*
X31363Y15701D01*
X31364Y15706D01*
X31364Y15707D01*
X31364Y15709D01*
X31364Y15714D01*
X31364Y15719D01*
X31363Y15720D01*
X31363Y15721D01*
X31361Y15726D01*
X31360Y15730D01*
X31359Y15731D01*
X31359Y15733D01*
X31352Y15743D01*
X31351Y15744D01*
X31350Y15745D01*
X31094Y16001D01*
X31094Y16419D01*
X31391Y16716D01*
X31809Y16716D01*
X32106Y16419D01*
X32106Y16390D01*
X32106Y16385D01*
X32107Y16380D01*
X32107Y16379D01*
X32107Y16378D01*
X32109Y16373D01*
X32111Y16368D01*
X32111Y16367D01*
X32112Y16366D01*
X32115Y16362D01*
X32118Y16358D01*
X32119Y16357D01*
X32119Y16356D01*
X32123Y16353D01*
X32127Y16350D01*
X32128Y16349D01*
X32129Y16348D01*
X32133Y16346D01*
X32138Y16344D01*
X32139Y16344D01*
X32140Y16343D01*
X32152Y16341D01*
X32154Y16341D01*
X32155Y16341D01*
X32383Y16341D01*
X32385Y16341D01*
X32386Y16341D01*
X32391Y16342D01*
X32396Y16342D01*
X32397Y16343D01*
X32399Y16343D01*
X32403Y16345D01*
X32407Y16347D01*
X32408Y16348D01*
X32410Y16348D01*
X32413Y16351D01*
X32417Y16354D01*
X32418Y16355D01*
X32419Y16356D01*
X32421Y16359D01*
X32425Y16364D01*
X32427Y16369D01*
X32429Y16371D01*
X32468Y16465D01*
X32595Y16592D01*
X32760Y16661D01*
X32940Y16661D01*
X33105Y16592D01*
X33232Y16465D01*
X33271Y16371D01*
X33272Y16370D01*
X33272Y16368D01*
X33275Y16364D01*
X33277Y16360D01*
X33278Y16359D01*
X33279Y16358D01*
X33283Y16355D01*
X33286Y16351D01*
X33287Y16351D01*
X33288Y16350D01*
X33293Y16347D01*
X33297Y16345D01*
X33298Y16345D01*
X33299Y16344D01*
X33302Y16343D01*
X33309Y16341D01*
X33314Y16341D01*
X33317Y16341D01*
X34350Y16341D01*
X34355Y16341D01*
X34360Y16342D01*
X34361Y16342D01*
X34362Y16342D01*
X34367Y16344D01*
X34372Y16346D01*
X34373Y16346D01*
X34374Y16347D01*
X34378Y16350D01*
X34382Y16353D01*
X34383Y16354D01*
X34384Y16354D01*
X34387Y16358D01*
X34390Y16362D01*
X34391Y16363D01*
X34392Y16364D01*
X34394Y16368D01*
X34396Y16373D01*
X34396Y16374D01*
X34397Y16375D01*
X34399Y16387D01*
X34399Y16389D01*
X34399Y16390D01*
X34399Y17455D01*
X34399Y17461D01*
X34398Y17467D01*
X34398Y17468D01*
X34396Y17473D01*
X34394Y17478D01*
X34393Y17479D01*
X34390Y17484D01*
X34387Y17488D01*
X34386Y17489D01*
X34381Y17493D01*
X34377Y17497D01*
X34376Y17497D01*
X34371Y17500D01*
X34366Y17502D01*
X34365Y17502D01*
X34359Y17503D01*
X34354Y17505D01*
X34353Y17505D01*
X34347Y17504D01*
X34341Y17504D01*
X34340Y17504D01*
X34335Y17502D01*
X34330Y17500D01*
X34329Y17500D01*
X34328Y17500D01*
X34318Y17493D01*
X34316Y17491D01*
X34315Y17490D01*
X34154Y17329D01*
X32796Y17329D01*
X32576Y17550D01*
X32576Y17580D01*
X32575Y17585D01*
X32575Y17590D01*
X32574Y17591D01*
X32574Y17592D01*
X32572Y17597D01*
X32571Y17602D01*
X32570Y17603D01*
X32569Y17604D01*
X32566Y17608D01*
X32564Y17612D01*
X32563Y17613D01*
X32562Y17614D01*
X32558Y17617D01*
X32555Y17620D01*
X32553Y17621D01*
X32552Y17622D01*
X32548Y17624D01*
X32544Y17626D01*
X32543Y17626D01*
X32541Y17627D01*
X32529Y17629D01*
X32527Y17629D01*
X32526Y17629D01*
X32515Y17629D01*
X32468Y17677D01*
X32468Y17780D01*
X32467Y17785D01*
X32467Y17790D01*
X32467Y17791D01*
X32467Y17792D01*
X32465Y17797D01*
X32463Y17802D01*
X32462Y17803D01*
X32462Y17804D01*
X32459Y17808D01*
X32456Y17812D01*
X32455Y17813D01*
X32455Y17814D01*
X32451Y17817D01*
X32447Y17820D01*
X32446Y17821D01*
X32445Y17822D01*
X32440Y17824D01*
X32436Y17826D01*
X32435Y17826D01*
X32434Y17827D01*
X32421Y17829D01*
X32420Y17829D01*
X32419Y17829D01*
X32362Y17829D01*
X32360Y17829D01*
X32358Y17829D01*
X32354Y17828D01*
X32350Y17828D01*
X32348Y17827D01*
X32345Y17826D01*
X32342Y17825D01*
X32338Y17823D01*
X32336Y17822D01*
X32334Y17821D01*
X32331Y17818D01*
X32328Y17816D01*
X32327Y17814D01*
X32325Y17813D01*
X32323Y17809D01*
X32320Y17806D01*
X32319Y17804D01*
X32318Y17802D01*
X32317Y17799D01*
X32315Y17795D01*
X32315Y17793D01*
X32314Y17791D01*
X32313Y17787D01*
X32313Y17783D01*
X32313Y17780D01*
X32313Y17778D01*
X32313Y17776D01*
X32314Y17770D01*
X32316Y17764D01*
X32316Y17761D01*
X32319Y17754D01*
X32319Y17666D01*
X32286Y17586D01*
X32224Y17524D01*
X32144Y17491D01*
X32056Y17491D01*
X32019Y17506D01*
X32017Y17507D01*
X32015Y17508D01*
X32011Y17508D01*
X32007Y17509D01*
X32005Y17509D01*
X32003Y17510D01*
X31999Y17509D01*
X31994Y17509D01*
X31992Y17509D01*
X31990Y17509D01*
X31986Y17507D01*
X31982Y17507D01*
X31980Y17506D01*
X31978Y17505D01*
X31975Y17503D01*
X31971Y17501D01*
X31970Y17499D01*
X31968Y17498D01*
X31965Y17495D01*
X31962Y17492D01*
X31961Y17490D01*
X31960Y17489D01*
X31958Y17485D01*
X31956Y17482D01*
X31955Y17480D01*
X31954Y17478D01*
X31953Y17475D01*
X31952Y17470D01*
X31951Y17463D01*
X31951Y17461D01*
X31951Y17394D01*
X31678Y17394D01*
X31678Y17575D01*
X31682Y17575D01*
X31687Y17575D01*
X31693Y17576D01*
X31694Y17576D01*
X31699Y17578D01*
X31704Y17580D01*
X31705Y17580D01*
X31706Y17581D01*
X31710Y17584D01*
X31715Y17587D01*
X31715Y17588D01*
X31716Y17588D01*
X31719Y17592D01*
X31723Y17597D01*
X31723Y17598D01*
X31726Y17603D01*
X31728Y17608D01*
X31729Y17609D01*
X31730Y17614D01*
X31731Y17620D01*
X31731Y17621D01*
X31730Y17627D01*
X31730Y17632D01*
X31730Y17633D01*
X31730Y17634D01*
X31728Y17639D01*
X31726Y17644D01*
X31726Y17645D01*
X31719Y17656D01*
X31717Y17657D01*
X31716Y17659D01*
X31560Y17815D01*
X31524Y17851D01*
X31521Y17854D01*
X31517Y17857D01*
X31516Y17857D01*
X31514Y17859D01*
X31510Y17860D01*
X31506Y17862D01*
X31505Y17863D01*
X31503Y17864D01*
X31491Y17865D01*
X31490Y17865D01*
X31489Y17865D01*
X31317Y17865D01*
X31269Y17913D01*
X31269Y18295D01*
X31317Y18342D01*
X31883Y18342D01*
X31885Y18340D01*
X31890Y18337D01*
X31894Y18333D01*
X31895Y18333D01*
X31900Y18330D01*
X31905Y18328D01*
X31906Y18328D01*
X31912Y18327D01*
X31917Y18326D01*
X31918Y18326D01*
X31919Y18326D01*
X31924Y18326D01*
X31930Y18327D01*
X31931Y18327D01*
X31936Y18329D01*
X31942Y18331D01*
X31943Y18331D01*
X31947Y18334D01*
X31952Y18338D01*
X31953Y18338D01*
X31957Y18343D01*
X31960Y18347D01*
X31961Y18347D01*
X31961Y18348D01*
X31964Y18353D01*
X31966Y18358D01*
X31967Y18359D01*
X31969Y18371D01*
X31969Y18374D01*
X31969Y18375D01*
X31969Y18546D01*
X31969Y18550D01*
X31969Y18554D01*
X31968Y18556D01*
X31968Y18558D01*
X31966Y18562D01*
X31965Y18566D01*
X31964Y18567D01*
X31963Y18570D01*
X31956Y18580D01*
X31955Y18580D01*
X31864Y18671D01*
X31860Y18674D01*
X31860Y18675D01*
X31859Y18675D01*
X31857Y18677D01*
X31856Y18678D01*
X31854Y18679D01*
X31850Y18681D01*
X31846Y18683D01*
X31844Y18683D01*
X31843Y18683D01*
X31838Y18684D01*
X31833Y18685D01*
X31832Y18685D01*
X31831Y18685D01*
X31826Y18685D01*
X31821Y18685D01*
X31820Y18684D01*
X31818Y18684D01*
X31814Y18682D01*
X31809Y18681D01*
X31808Y18680D01*
X31807Y18680D01*
X31797Y18673D01*
X31796Y18672D01*
X31795Y18671D01*
X31768Y18645D01*
X31147Y18645D01*
X31143Y18647D01*
X31142Y18647D01*
X31140Y18648D01*
X31127Y18650D01*
X31126Y18650D01*
X30935Y18650D01*
X30930Y18649D01*
X30926Y18649D01*
X30924Y18648D01*
X30922Y18648D01*
X30918Y18647D01*
X30914Y18645D01*
X30913Y18644D01*
X30911Y18644D01*
X30905Y18640D01*
X30780Y18640D01*
X30775Y18639D01*
X30770Y18639D01*
X30769Y18638D01*
X30768Y18638D01*
X30763Y18636D01*
X30758Y18635D01*
X30757Y18634D01*
X30756Y18634D01*
X30752Y18631D01*
X30748Y18628D01*
X30747Y18627D01*
X30746Y18626D01*
X30743Y18622D01*
X30740Y18619D01*
X30739Y18618D01*
X30738Y18617D01*
X30736Y18612D01*
X30734Y18608D01*
X30734Y18607D01*
X30733Y18605D01*
X30731Y18593D01*
X30731Y18592D01*
X30731Y18590D01*
X30731Y18391D01*
X30731Y18386D01*
X30732Y18381D01*
X30732Y18380D01*
X30732Y18379D01*
X30734Y18374D01*
X30736Y18370D01*
X30736Y18369D01*
X30737Y18367D01*
X30740Y18363D01*
X30743Y18359D01*
X30744Y18358D01*
X30744Y18357D01*
X30748Y18354D01*
X30752Y18351D01*
X30753Y18350D01*
X30754Y18349D01*
X30758Y18347D01*
X30763Y18345D01*
X30764Y18345D01*
X30765Y18344D01*
X30777Y18342D01*
X30779Y18342D01*
X30780Y18342D01*
X30883Y18342D01*
X30931Y18295D01*
X30931Y17913D01*
X30883Y17865D01*
X30317Y17865D01*
X30269Y17913D01*
X30269Y17924D01*
X30269Y17929D01*
X30268Y17934D01*
X30268Y17935D01*
X30268Y17936D01*
X30266Y17941D01*
X30264Y17945D01*
X30264Y17946D01*
X30263Y17948D01*
X30260Y17952D01*
X30257Y17956D01*
X30256Y17957D01*
X30256Y17958D01*
X30252Y17961D01*
X30248Y17964D01*
X30247Y17965D01*
X30246Y17965D01*
X30242Y17968D01*
X30237Y17970D01*
X30236Y17970D01*
X30235Y17971D01*
X30223Y17973D01*
X30221Y17973D01*
X30220Y17973D01*
X29980Y17973D01*
X29975Y17972D01*
X29970Y17972D01*
X29969Y17972D01*
X29968Y17971D01*
X29963Y17970D01*
X29958Y17968D01*
X29957Y17967D01*
X29956Y17967D01*
X29952Y17964D01*
X29948Y17961D01*
X29947Y17960D01*
X29946Y17959D01*
X29943Y17956D01*
X29940Y17952D01*
X29939Y17951D01*
X29938Y17950D01*
X29936Y17945D01*
X29934Y17941D01*
X29934Y17940D01*
X29933Y17939D01*
X29931Y17926D01*
X29931Y17925D01*
X29931Y17924D01*
X29931Y17913D01*
X29883Y17865D01*
X29317Y17865D01*
X29269Y17913D01*
X29269Y18030D01*
X29269Y18035D01*
X29268Y18040D01*
X29268Y18041D01*
X29268Y18042D01*
X29266Y18047D01*
X29264Y18052D01*
X29264Y18053D01*
X29263Y18054D01*
X29260Y18058D01*
X29257Y18062D01*
X29256Y18063D01*
X29256Y18064D01*
X29252Y18067D01*
X29248Y18070D01*
X29247Y18071D01*
X29246Y18072D01*
X29242Y18074D01*
X29237Y18076D01*
X29236Y18076D01*
X29235Y18077D01*
X29223Y18079D01*
X29221Y18079D01*
X29220Y18079D01*
X27600Y18079D01*
X27595Y18079D01*
X27590Y18078D01*
X27589Y18078D01*
X27588Y18078D01*
X27583Y18076D01*
X27578Y18074D01*
X27577Y18074D01*
X27576Y18073D01*
X27572Y18070D01*
X27568Y18067D01*
X27567Y18066D01*
X27566Y18066D01*
X27563Y18062D01*
X27560Y18058D01*
X27559Y18057D01*
X27558Y18056D01*
X27556Y18052D01*
X27554Y18047D01*
X27554Y18046D01*
X27553Y18045D01*
X27551Y18033D01*
X27551Y18031D01*
X27551Y18030D01*
X27551Y13710D01*
X27551Y13705D01*
X27552Y13700D01*
X27552Y13699D01*
X27552Y13698D01*
X27554Y13693D01*
X27556Y13688D01*
X27556Y13687D01*
X27557Y13686D01*
X27560Y13682D01*
X27563Y13678D01*
X27564Y13677D01*
X27564Y13676D01*
X27568Y13673D01*
X27572Y13670D01*
X27573Y13669D01*
X27574Y13668D01*
X27578Y13666D01*
X27583Y13664D01*
X27584Y13664D01*
X27585Y13663D01*
X27597Y13661D01*
X27599Y13661D01*
X27600Y13661D01*
X31287Y13661D01*
X31292Y13661D01*
G37*
G36*
X16314Y1011D02*
X16314Y1011D01*
X16318Y1012D01*
X16319Y1012D01*
X16323Y1014D01*
X16327Y1016D01*
X16327Y1017D01*
X16328Y1017D01*
X16331Y1019D01*
X16871Y1559D01*
X16873Y1563D01*
X16875Y1566D01*
X16876Y1566D01*
X16876Y1567D01*
X16877Y1571D01*
X16879Y1575D01*
X16879Y1576D01*
X16879Y1577D01*
X16879Y1580D01*
X16879Y2340D01*
X16879Y2344D01*
X16878Y2348D01*
X16878Y2349D01*
X16876Y2353D01*
X16874Y2357D01*
X16873Y2357D01*
X16873Y2358D01*
X16871Y2361D01*
X15871Y3361D01*
X15867Y3363D01*
X15864Y3365D01*
X15864Y3366D01*
X15863Y3366D01*
X15859Y3367D01*
X15855Y3369D01*
X15854Y3369D01*
X15853Y3369D01*
X15850Y3369D01*
X15310Y3369D01*
X15309Y3369D01*
X15308Y3369D01*
X15304Y3368D01*
X15301Y3368D01*
X15300Y3367D01*
X15299Y3367D01*
X15295Y3365D01*
X15292Y3363D01*
X15291Y3362D01*
X15288Y3359D01*
X15286Y3356D01*
X15285Y3355D01*
X15285Y3354D01*
X15283Y3351D01*
X15282Y3347D01*
X15282Y3346D01*
X15281Y3345D01*
X15281Y3340D01*
X15281Y1160D01*
X15281Y1156D01*
X15282Y1152D01*
X15282Y1151D01*
X15284Y1147D01*
X15286Y1143D01*
X15287Y1143D01*
X15287Y1142D01*
X15289Y1139D01*
X15409Y1019D01*
X15413Y1017D01*
X15416Y1015D01*
X15416Y1014D01*
X15417Y1014D01*
X15421Y1013D01*
X15425Y1011D01*
X15426Y1011D01*
X15427Y1011D01*
X15430Y1011D01*
X16310Y1011D01*
X16314Y1011D01*
G37*
G36*
X34355Y13661D02*
X34355Y13661D01*
X34360Y13662D01*
X34361Y13662D01*
X34362Y13662D01*
X34367Y13664D01*
X34372Y13666D01*
X34373Y13666D01*
X34374Y13667D01*
X34378Y13670D01*
X34382Y13673D01*
X34383Y13674D01*
X34384Y13674D01*
X34387Y13678D01*
X34390Y13682D01*
X34391Y13683D01*
X34392Y13684D01*
X34394Y13688D01*
X34396Y13693D01*
X34396Y13694D01*
X34397Y13695D01*
X34399Y13707D01*
X34399Y13709D01*
X34399Y13710D01*
X34399Y15030D01*
X34399Y15035D01*
X34398Y15040D01*
X34398Y15041D01*
X34398Y15042D01*
X34396Y15047D01*
X34394Y15052D01*
X34394Y15053D01*
X34393Y15054D01*
X34390Y15058D01*
X34387Y15062D01*
X34386Y15063D01*
X34386Y15064D01*
X34382Y15067D01*
X34378Y15070D01*
X34377Y15071D01*
X34376Y15072D01*
X34372Y15074D01*
X34367Y15076D01*
X34366Y15076D01*
X34365Y15077D01*
X34353Y15079D01*
X34351Y15079D01*
X34350Y15079D01*
X33317Y15079D01*
X33315Y15079D01*
X33314Y15079D01*
X33309Y15078D01*
X33304Y15078D01*
X33303Y15077D01*
X33301Y15077D01*
X33297Y15075D01*
X33293Y15073D01*
X33292Y15072D01*
X33290Y15072D01*
X33287Y15069D01*
X33283Y15066D01*
X33282Y15065D01*
X33281Y15064D01*
X33279Y15061D01*
X33275Y15056D01*
X33273Y15051D01*
X33271Y15049D01*
X33232Y14955D01*
X33105Y14828D01*
X32949Y14763D01*
X32945Y14761D01*
X32940Y14758D01*
X32939Y14758D01*
X32939Y14757D01*
X32935Y14753D01*
X32931Y14750D01*
X32930Y14749D01*
X32930Y14748D01*
X32927Y14744D01*
X32924Y14740D01*
X32924Y14739D01*
X32923Y14738D01*
X32922Y14733D01*
X32920Y14728D01*
X32920Y14727D01*
X32920Y14726D01*
X32919Y14721D01*
X32919Y14716D01*
X32919Y14715D01*
X32919Y14713D01*
X32920Y14708D01*
X32921Y14703D01*
X32922Y14702D01*
X32922Y14701D01*
X32924Y14697D01*
X32926Y14692D01*
X32927Y14691D01*
X32927Y14690D01*
X32931Y14686D01*
X32934Y14682D01*
X32935Y14682D01*
X32936Y14681D01*
X32940Y14678D01*
X32944Y14675D01*
X32945Y14675D01*
X32946Y14674D01*
X32958Y14670D01*
X32959Y14670D01*
X33031Y14646D01*
X33097Y14613D01*
X33157Y14569D01*
X33209Y14517D01*
X33253Y14457D01*
X33286Y14391D01*
X33309Y14320D01*
X33311Y14309D01*
X32900Y14309D01*
X32895Y14309D01*
X32890Y14308D01*
X32889Y14308D01*
X32888Y14308D01*
X32883Y14306D01*
X32878Y14304D01*
X32877Y14304D01*
X32876Y14303D01*
X32872Y14300D01*
X32868Y14297D01*
X32867Y14296D01*
X32866Y14296D01*
X32863Y14292D01*
X32860Y14288D01*
X32859Y14287D01*
X32858Y14286D01*
X32856Y14282D01*
X32854Y14277D01*
X32854Y14276D01*
X32853Y14275D01*
X32851Y14263D01*
X32851Y14261D01*
X32851Y14260D01*
X32851Y14160D01*
X32851Y14155D01*
X32852Y14150D01*
X32852Y14149D01*
X32852Y14148D01*
X32854Y14143D01*
X32856Y14138D01*
X32856Y14137D01*
X32857Y14136D01*
X32860Y14132D01*
X32863Y14128D01*
X32864Y14127D01*
X32864Y14126D01*
X32868Y14123D01*
X32872Y14120D01*
X32873Y14119D01*
X32874Y14118D01*
X32878Y14116D01*
X32883Y14114D01*
X32884Y14114D01*
X32885Y14113D01*
X32897Y14111D01*
X32899Y14111D01*
X32900Y14111D01*
X33311Y14111D01*
X33309Y14100D01*
X33286Y14029D01*
X33253Y13963D01*
X33209Y13903D01*
X33157Y13851D01*
X33097Y13807D01*
X33031Y13774D01*
X32979Y13757D01*
X32974Y13755D01*
X32970Y13753D01*
X32969Y13752D01*
X32967Y13752D01*
X32964Y13749D01*
X32960Y13746D01*
X32959Y13745D01*
X32958Y13744D01*
X32955Y13740D01*
X32952Y13736D01*
X32952Y13735D01*
X32951Y13734D01*
X32949Y13729D01*
X32947Y13725D01*
X32947Y13723D01*
X32946Y13722D01*
X32946Y13717D01*
X32945Y13713D01*
X32945Y13711D01*
X32945Y13710D01*
X32945Y13705D01*
X32946Y13700D01*
X32946Y13699D01*
X32946Y13697D01*
X32948Y13693D01*
X32950Y13688D01*
X32950Y13687D01*
X32951Y13686D01*
X32954Y13682D01*
X32956Y13678D01*
X32958Y13677D01*
X32958Y13676D01*
X32962Y13673D01*
X32966Y13670D01*
X32967Y13669D01*
X32968Y13668D01*
X32972Y13666D01*
X32977Y13664D01*
X32978Y13664D01*
X32980Y13663D01*
X32992Y13661D01*
X32993Y13661D01*
X32994Y13661D01*
X34350Y13661D01*
X34355Y13661D01*
G37*
G36*
X13474Y4191D02*
X13474Y4191D01*
X13478Y4192D01*
X13479Y4192D01*
X13483Y4194D01*
X13487Y4196D01*
X13487Y4197D01*
X13488Y4197D01*
X13491Y4199D01*
X13551Y4259D01*
X13553Y4262D01*
X13553Y4263D01*
X13555Y4266D01*
X13556Y4266D01*
X13556Y4267D01*
X13557Y4271D01*
X13559Y4275D01*
X13559Y4276D01*
X13559Y4277D01*
X13559Y4280D01*
X13559Y4850D01*
X13559Y4854D01*
X13558Y4858D01*
X13558Y4859D01*
X13556Y4863D01*
X13554Y4867D01*
X13553Y4867D01*
X13553Y4868D01*
X13551Y4871D01*
X13411Y5011D01*
X13407Y5013D01*
X13404Y5015D01*
X13404Y5016D01*
X13403Y5016D01*
X13399Y5017D01*
X13395Y5019D01*
X13394Y5019D01*
X13393Y5019D01*
X13390Y5019D01*
X11280Y5019D01*
X11276Y5019D01*
X11272Y5018D01*
X11271Y5018D01*
X11267Y5016D01*
X11263Y5014D01*
X11263Y5013D01*
X11262Y5013D01*
X11259Y5011D01*
X11239Y4991D01*
X11237Y4987D01*
X11235Y4984D01*
X11234Y4984D01*
X11234Y4983D01*
X11233Y4979D01*
X11231Y4975D01*
X11231Y4974D01*
X11231Y4973D01*
X11231Y4970D01*
X11231Y4510D01*
X11231Y4507D01*
X11231Y4504D01*
X11232Y4502D01*
X11232Y4501D01*
X11234Y4498D01*
X11235Y4495D01*
X11236Y4494D01*
X11237Y4492D01*
X11239Y4490D01*
X11241Y4488D01*
X11242Y4487D01*
X11244Y4486D01*
X11247Y4484D01*
X11249Y4483D01*
X11251Y4482D01*
X11253Y4482D01*
X11255Y4481D01*
X11258Y4481D01*
X11260Y4481D01*
X11262Y4481D01*
X11265Y4482D01*
X11268Y4482D01*
X11270Y4483D01*
X11271Y4483D01*
X11274Y4485D01*
X11277Y4486D01*
X11279Y4488D01*
X11280Y4489D01*
X11281Y4489D01*
X11282Y4491D01*
X11848Y4491D01*
X12139Y4199D01*
X12143Y4197D01*
X12146Y4195D01*
X12146Y4194D01*
X12147Y4194D01*
X12151Y4193D01*
X12155Y4191D01*
X12156Y4191D01*
X12157Y4191D01*
X12160Y4191D01*
X13470Y4191D01*
X13474Y4191D01*
G37*
G36*
X18801Y5581D02*
X18801Y5581D01*
X18802Y5581D01*
X18806Y5582D01*
X18809Y5582D01*
X18810Y5583D01*
X18811Y5583D01*
X18815Y5585D01*
X18818Y5587D01*
X18819Y5588D01*
X18822Y5591D01*
X18824Y5594D01*
X18825Y5595D01*
X18825Y5596D01*
X18827Y5599D01*
X18828Y5603D01*
X18828Y5604D01*
X18829Y5605D01*
X18829Y5610D01*
X18829Y7510D01*
X18829Y7511D01*
X18829Y7512D01*
X18828Y7516D01*
X18828Y7519D01*
X18827Y7520D01*
X18827Y7521D01*
X18825Y7525D01*
X18823Y7528D01*
X18822Y7529D01*
X18819Y7532D01*
X18816Y7534D01*
X18815Y7535D01*
X18814Y7535D01*
X18811Y7537D01*
X18807Y7538D01*
X18806Y7538D01*
X18805Y7539D01*
X18800Y7539D01*
X17600Y7539D01*
X17599Y7539D01*
X17598Y7539D01*
X17594Y7538D01*
X17591Y7538D01*
X17590Y7537D01*
X17589Y7537D01*
X17585Y7535D01*
X17582Y7533D01*
X17581Y7532D01*
X17578Y7529D01*
X17576Y7526D01*
X17575Y7525D01*
X17575Y7524D01*
X17573Y7521D01*
X17572Y7517D01*
X17572Y7516D01*
X17571Y7515D01*
X17571Y7510D01*
X17571Y7010D01*
X17571Y7009D01*
X17571Y7008D01*
X17572Y7004D01*
X17572Y7001D01*
X17573Y7000D01*
X17573Y6999D01*
X17575Y6995D01*
X17577Y6992D01*
X17578Y6991D01*
X17581Y6988D01*
X17584Y6986D01*
X17585Y6985D01*
X17586Y6985D01*
X17589Y6983D01*
X17593Y6982D01*
X17594Y6982D01*
X17595Y6981D01*
X17600Y6981D01*
X17688Y6981D01*
X18271Y6398D01*
X18271Y5610D01*
X18271Y5609D01*
X18271Y5608D01*
X18272Y5604D01*
X18272Y5601D01*
X18273Y5600D01*
X18273Y5599D01*
X18275Y5595D01*
X18277Y5592D01*
X18278Y5591D01*
X18281Y5588D01*
X18284Y5586D01*
X18285Y5585D01*
X18286Y5585D01*
X18289Y5583D01*
X18293Y5582D01*
X18294Y5582D01*
X18295Y5581D01*
X18300Y5581D01*
X18800Y5581D01*
X18801Y5581D01*
G37*
G36*
X8304Y7381D02*
X8304Y7381D01*
X8308Y7382D01*
X8309Y7382D01*
X8313Y7384D01*
X8317Y7386D01*
X8317Y7387D01*
X8318Y7387D01*
X8321Y7389D01*
X8791Y7859D01*
X8793Y7863D01*
X8795Y7866D01*
X8796Y7866D01*
X8796Y7867D01*
X8797Y7871D01*
X8799Y7875D01*
X8799Y7876D01*
X8799Y7877D01*
X8799Y7880D01*
X8799Y8710D01*
X8799Y8711D01*
X8799Y8712D01*
X8798Y8716D01*
X8798Y8719D01*
X8797Y8720D01*
X8797Y8721D01*
X8795Y8725D01*
X8793Y8728D01*
X8792Y8729D01*
X8789Y8732D01*
X8786Y8734D01*
X8785Y8735D01*
X8784Y8735D01*
X8781Y8737D01*
X8777Y8738D01*
X8776Y8738D01*
X8775Y8739D01*
X8770Y8739D01*
X7700Y8739D01*
X7699Y8739D01*
X7698Y8739D01*
X7694Y8738D01*
X7691Y8738D01*
X7690Y8737D01*
X7689Y8737D01*
X7685Y8735D01*
X7682Y8733D01*
X7681Y8732D01*
X7678Y8729D01*
X7676Y8726D01*
X7675Y8725D01*
X7675Y8724D01*
X7673Y8721D01*
X7672Y8717D01*
X7672Y8716D01*
X7671Y8715D01*
X7671Y8710D01*
X7671Y8110D01*
X7671Y8106D01*
X7672Y8102D01*
X7672Y8101D01*
X7674Y8097D01*
X7676Y8093D01*
X7677Y8093D01*
X7677Y8092D01*
X7679Y8089D01*
X7871Y7898D01*
X7871Y7410D01*
X7871Y7409D01*
X7871Y7408D01*
X7872Y7404D01*
X7872Y7401D01*
X7873Y7400D01*
X7873Y7399D01*
X7875Y7395D01*
X7877Y7392D01*
X7878Y7391D01*
X7881Y7388D01*
X7884Y7386D01*
X7885Y7385D01*
X7886Y7385D01*
X7889Y7383D01*
X7893Y7382D01*
X7894Y7382D01*
X7895Y7381D01*
X7900Y7381D01*
X8300Y7381D01*
X8304Y7381D01*
G37*
G36*
X8901Y8881D02*
X8901Y8881D01*
X8902Y8881D01*
X8906Y8882D01*
X8909Y8882D01*
X8910Y8883D01*
X8911Y8883D01*
X8915Y8885D01*
X8918Y8887D01*
X8919Y8888D01*
X8922Y8891D01*
X8924Y8894D01*
X8925Y8895D01*
X8925Y8896D01*
X8927Y8899D01*
X8928Y8903D01*
X8928Y8904D01*
X8929Y8905D01*
X8929Y8910D01*
X8929Y9110D01*
X8929Y9114D01*
X8928Y9118D01*
X8928Y9119D01*
X8926Y9123D01*
X8924Y9127D01*
X8923Y9127D01*
X8923Y9128D01*
X8921Y9131D01*
X8329Y9722D01*
X8329Y10010D01*
X8329Y10011D01*
X8329Y10012D01*
X8328Y10016D01*
X8328Y10019D01*
X8327Y10020D01*
X8327Y10021D01*
X8325Y10025D01*
X8323Y10028D01*
X8322Y10029D01*
X8319Y10032D01*
X8316Y10034D01*
X8315Y10035D01*
X8314Y10035D01*
X8311Y10037D01*
X8307Y10038D01*
X8306Y10038D01*
X8305Y10039D01*
X8300Y10039D01*
X7912Y10039D01*
X7821Y10131D01*
X7818Y10132D01*
X7816Y10134D01*
X7814Y10135D01*
X7813Y10136D01*
X7810Y10137D01*
X7807Y10138D01*
X7806Y10138D01*
X7804Y10139D01*
X7801Y10139D01*
X7798Y10139D01*
X7796Y10139D01*
X7794Y10139D01*
X7791Y10138D01*
X7789Y10137D01*
X7787Y10136D01*
X7785Y10135D01*
X7783Y10133D01*
X7781Y10132D01*
X7779Y10130D01*
X7778Y10129D01*
X7776Y10127D01*
X7775Y10124D01*
X7774Y10123D01*
X7773Y10121D01*
X7772Y10118D01*
X7772Y10117D01*
X7771Y10115D01*
X7771Y10112D01*
X7771Y10111D01*
X7771Y10110D01*
X7771Y9422D01*
X7679Y9331D01*
X7677Y9327D01*
X7675Y9324D01*
X7674Y9324D01*
X7674Y9323D01*
X7673Y9319D01*
X7671Y9315D01*
X7671Y9314D01*
X7671Y9313D01*
X7671Y9310D01*
X7671Y8910D01*
X7671Y8909D01*
X7671Y8908D01*
X7672Y8904D01*
X7672Y8901D01*
X7673Y8900D01*
X7673Y8899D01*
X7675Y8895D01*
X7677Y8892D01*
X7678Y8891D01*
X7681Y8888D01*
X7684Y8886D01*
X7685Y8885D01*
X7686Y8885D01*
X7689Y8883D01*
X7693Y8882D01*
X7694Y8882D01*
X7695Y8881D01*
X7700Y8881D01*
X8900Y8881D01*
X8901Y8881D01*
G37*
G36*
X32711Y13661D02*
X32711Y13661D01*
X32715Y13662D01*
X32717Y13662D01*
X32718Y13662D01*
X32723Y13664D01*
X32727Y13666D01*
X32729Y13666D01*
X32730Y13667D01*
X32734Y13670D01*
X32738Y13672D01*
X32739Y13673D01*
X32740Y13674D01*
X32743Y13678D01*
X32746Y13681D01*
X32747Y13683D01*
X32748Y13684D01*
X32750Y13688D01*
X32752Y13692D01*
X32752Y13694D01*
X32753Y13695D01*
X32754Y13700D01*
X32755Y13704D01*
X32755Y13706D01*
X32755Y13707D01*
X32755Y13712D01*
X32755Y13717D01*
X32754Y13718D01*
X32754Y13720D01*
X32753Y13724D01*
X32752Y13729D01*
X32751Y13730D01*
X32750Y13732D01*
X32748Y13736D01*
X32745Y13740D01*
X32744Y13741D01*
X32744Y13742D01*
X32740Y13745D01*
X32737Y13749D01*
X32736Y13749D01*
X32734Y13750D01*
X32723Y13756D01*
X32722Y13756D01*
X32721Y13757D01*
X32669Y13774D01*
X32603Y13807D01*
X32543Y13851D01*
X32491Y13903D01*
X32447Y13963D01*
X32414Y14029D01*
X32391Y14100D01*
X32389Y14111D01*
X32800Y14111D01*
X32805Y14111D01*
X32810Y14112D01*
X32811Y14112D01*
X32812Y14112D01*
X32817Y14114D01*
X32822Y14116D01*
X32823Y14116D01*
X32824Y14117D01*
X32828Y14120D01*
X32832Y14123D01*
X32833Y14124D01*
X32834Y14124D01*
X32837Y14128D01*
X32840Y14132D01*
X32841Y14133D01*
X32842Y14134D01*
X32844Y14138D01*
X32846Y14143D01*
X32846Y14144D01*
X32847Y14145D01*
X32849Y14157D01*
X32849Y14159D01*
X32849Y14160D01*
X32849Y14260D01*
X32849Y14265D01*
X32848Y14270D01*
X32848Y14271D01*
X32848Y14272D01*
X32846Y14277D01*
X32844Y14282D01*
X32844Y14283D01*
X32843Y14284D01*
X32840Y14288D01*
X32837Y14292D01*
X32836Y14293D01*
X32836Y14294D01*
X32832Y14297D01*
X32828Y14300D01*
X32827Y14301D01*
X32826Y14302D01*
X32822Y14304D01*
X32817Y14306D01*
X32816Y14306D01*
X32815Y14307D01*
X32803Y14309D01*
X32801Y14309D01*
X32800Y14309D01*
X32389Y14309D01*
X32391Y14320D01*
X32414Y14391D01*
X32447Y14457D01*
X32491Y14517D01*
X32543Y14569D01*
X32603Y14613D01*
X32669Y14646D01*
X32741Y14669D01*
X32744Y14671D01*
X32749Y14672D01*
X32750Y14672D01*
X32751Y14673D01*
X32756Y14675D01*
X32760Y14678D01*
X32761Y14678D01*
X32762Y14679D01*
X32766Y14683D01*
X32770Y14686D01*
X32770Y14687D01*
X32771Y14688D01*
X32773Y14692D01*
X32776Y14697D01*
X32777Y14698D01*
X32777Y14699D01*
X32779Y14703D01*
X32780Y14708D01*
X32780Y14709D01*
X32781Y14710D01*
X32781Y14716D01*
X32781Y14721D01*
X32781Y14722D01*
X32781Y14723D01*
X32780Y14728D01*
X32779Y14733D01*
X32778Y14734D01*
X32778Y14735D01*
X32776Y14740D01*
X32773Y14744D01*
X32773Y14745D01*
X32772Y14746D01*
X32769Y14750D01*
X32765Y14754D01*
X32764Y14755D01*
X32753Y14762D01*
X32752Y14763D01*
X32751Y14763D01*
X32595Y14828D01*
X32468Y14955D01*
X32429Y15049D01*
X32428Y15050D01*
X32428Y15052D01*
X32425Y15056D01*
X32423Y15060D01*
X32422Y15061D01*
X32421Y15062D01*
X32417Y15065D01*
X32414Y15069D01*
X32413Y15069D01*
X32412Y15070D01*
X32407Y15073D01*
X32403Y15075D01*
X32402Y15075D01*
X32401Y15076D01*
X32398Y15077D01*
X32391Y15079D01*
X32386Y15079D01*
X32383Y15079D01*
X32155Y15079D01*
X32150Y15079D01*
X32145Y15078D01*
X32144Y15078D01*
X32143Y15078D01*
X32138Y15076D01*
X32133Y15074D01*
X32132Y15074D01*
X32131Y15073D01*
X32127Y15070D01*
X32123Y15067D01*
X32122Y15066D01*
X32121Y15066D01*
X32118Y15062D01*
X32115Y15058D01*
X32114Y15057D01*
X32113Y15056D01*
X32111Y15052D01*
X32109Y15047D01*
X32109Y15046D01*
X32108Y15045D01*
X32106Y15033D01*
X32106Y15031D01*
X32106Y15030D01*
X32106Y15001D01*
X31864Y14759D01*
X31861Y14755D01*
X31858Y14751D01*
X31857Y14750D01*
X31857Y14749D01*
X31855Y14745D01*
X31852Y14740D01*
X31852Y14739D01*
X31852Y14738D01*
X31851Y14733D01*
X31850Y14728D01*
X31850Y14727D01*
X31850Y14725D01*
X31850Y14721D01*
X31851Y14716D01*
X31851Y14714D01*
X31851Y14713D01*
X31853Y14708D01*
X31854Y14704D01*
X31855Y14703D01*
X31855Y14701D01*
X31862Y14691D01*
X31864Y14690D01*
X31864Y14689D01*
X32126Y14428D01*
X32126Y14309D01*
X31650Y14309D01*
X31645Y14309D01*
X31640Y14308D01*
X31639Y14308D01*
X31638Y14308D01*
X31633Y14306D01*
X31628Y14304D01*
X31627Y14304D01*
X31626Y14303D01*
X31622Y14300D01*
X31618Y14297D01*
X31617Y14296D01*
X31616Y14296D01*
X31613Y14292D01*
X31610Y14288D01*
X31609Y14287D01*
X31608Y14286D01*
X31606Y14282D01*
X31604Y14277D01*
X31604Y14276D01*
X31603Y14275D01*
X31601Y14263D01*
X31601Y14261D01*
X31601Y14260D01*
X31601Y14160D01*
X31601Y14155D01*
X31602Y14150D01*
X31602Y14149D01*
X31602Y14148D01*
X31604Y14143D01*
X31606Y14138D01*
X31606Y14137D01*
X31607Y14136D01*
X31610Y14132D01*
X31613Y14128D01*
X31614Y14127D01*
X31614Y14126D01*
X31618Y14123D01*
X31622Y14120D01*
X31623Y14119D01*
X31624Y14118D01*
X31628Y14116D01*
X31633Y14114D01*
X31634Y14114D01*
X31635Y14113D01*
X31647Y14111D01*
X31649Y14111D01*
X31650Y14111D01*
X32126Y14111D01*
X32126Y13992D01*
X31878Y13745D01*
X31875Y13740D01*
X31871Y13736D01*
X31871Y13735D01*
X31869Y13730D01*
X31866Y13725D01*
X31866Y13724D01*
X31865Y13718D01*
X31864Y13713D01*
X31864Y13712D01*
X31864Y13711D01*
X31864Y13706D01*
X31865Y13700D01*
X31865Y13699D01*
X31867Y13694D01*
X31869Y13688D01*
X31869Y13687D01*
X31873Y13683D01*
X31876Y13678D01*
X31877Y13677D01*
X31881Y13673D01*
X31885Y13670D01*
X31885Y13669D01*
X31886Y13669D01*
X31891Y13666D01*
X31896Y13664D01*
X31897Y13663D01*
X31909Y13661D01*
X31912Y13661D01*
X31913Y13661D01*
X32706Y13661D01*
X32711Y13661D01*
G37*
G36*
X9204Y6381D02*
X9204Y6381D01*
X9208Y6382D01*
X9209Y6382D01*
X9213Y6384D01*
X9217Y6386D01*
X9217Y6387D01*
X9218Y6387D01*
X9221Y6389D01*
X9821Y6989D01*
X9823Y6993D01*
X9825Y6996D01*
X9826Y6996D01*
X9826Y6997D01*
X9827Y7001D01*
X9829Y7005D01*
X9829Y7006D01*
X9829Y7007D01*
X9829Y7010D01*
X9829Y7310D01*
X9829Y7311D01*
X9829Y7312D01*
X9828Y7316D01*
X9828Y7319D01*
X9827Y7320D01*
X9827Y7321D01*
X9825Y7325D01*
X9823Y7328D01*
X9822Y7329D01*
X9819Y7332D01*
X9816Y7334D01*
X9815Y7335D01*
X9814Y7335D01*
X9811Y7337D01*
X9807Y7338D01*
X9806Y7338D01*
X9805Y7339D01*
X9800Y7339D01*
X9200Y7339D01*
X9196Y7339D01*
X9192Y7338D01*
X9191Y7338D01*
X9187Y7336D01*
X9183Y7334D01*
X9183Y7333D01*
X9182Y7333D01*
X9179Y7331D01*
X8679Y6831D01*
X8677Y6827D01*
X8675Y6824D01*
X8674Y6824D01*
X8674Y6823D01*
X8673Y6819D01*
X8671Y6815D01*
X8671Y6814D01*
X8671Y6813D01*
X8671Y6810D01*
X8671Y6410D01*
X8671Y6409D01*
X8671Y6408D01*
X8672Y6404D01*
X8672Y6401D01*
X8673Y6400D01*
X8673Y6399D01*
X8675Y6395D01*
X8677Y6392D01*
X8678Y6391D01*
X8681Y6388D01*
X8684Y6386D01*
X8685Y6385D01*
X8686Y6385D01*
X8689Y6383D01*
X8693Y6382D01*
X8694Y6382D01*
X8695Y6381D01*
X8700Y6381D01*
X9200Y6381D01*
X9204Y6381D01*
G37*
%LPC*%
G36*
X33102Y23974D02*
X33102Y23974D01*
X32794Y24282D01*
X32794Y24401D01*
X33221Y24401D01*
X33221Y23974D01*
X33102Y23974D01*
G37*
%LPD*%
%LPC*%
G36*
X33419Y23974D02*
X33419Y23974D01*
X33419Y24401D01*
X33846Y24401D01*
X33846Y24282D01*
X33538Y23974D01*
X33419Y23974D01*
G37*
%LPD*%
%LPC*%
G36*
X30249Y17394D02*
X30249Y17394D01*
X30249Y17487D01*
X30256Y17513D01*
X30269Y17536D01*
X30288Y17554D01*
X30311Y17568D01*
X30337Y17575D01*
X30522Y17575D01*
X30522Y17394D01*
X30249Y17394D01*
G37*
%LPD*%
%LPC*%
G36*
X29249Y17394D02*
X29249Y17394D01*
X29249Y17487D01*
X29256Y17513D01*
X29269Y17536D01*
X29288Y17554D01*
X29311Y17568D01*
X29337Y17575D01*
X29522Y17575D01*
X29522Y17394D01*
X29249Y17394D01*
G37*
%LPD*%
%LPC*%
G36*
X31249Y17394D02*
X31249Y17394D01*
X31249Y17487D01*
X31256Y17513D01*
X31269Y17536D01*
X31288Y17554D01*
X31311Y17568D01*
X31337Y17575D01*
X31522Y17575D01*
X31522Y17394D01*
X31249Y17394D01*
G37*
%LPD*%
%LPC*%
G36*
X33572Y20038D02*
X33572Y20038D01*
X33572Y20311D01*
X33664Y20311D01*
X33690Y20304D01*
X33713Y20291D01*
X33732Y20272D01*
X33745Y20249D01*
X33752Y20223D01*
X33752Y20038D01*
X33572Y20038D01*
G37*
%LPD*%
%LPC*%
G36*
X30678Y17394D02*
X30678Y17394D01*
X30678Y17575D01*
X30863Y17575D01*
X30889Y17568D01*
X30912Y17554D01*
X30931Y17536D01*
X30944Y17513D01*
X30951Y17487D01*
X30951Y17394D01*
X30678Y17394D01*
G37*
%LPD*%
%LPC*%
G36*
X29678Y17394D02*
X29678Y17394D01*
X29678Y17575D01*
X29863Y17575D01*
X29889Y17568D01*
X29912Y17554D01*
X29931Y17536D01*
X29944Y17513D01*
X29951Y17487D01*
X29951Y17394D01*
X29678Y17394D01*
G37*
%LPD*%
%LPC*%
G36*
X31337Y17058D02*
X31337Y17058D01*
X31311Y17065D01*
X31288Y17078D01*
X31269Y17097D01*
X31256Y17120D01*
X31249Y17146D01*
X31249Y17238D01*
X31522Y17238D01*
X31522Y17058D01*
X31337Y17058D01*
G37*
%LPD*%
%LPC*%
G36*
X30337Y17058D02*
X30337Y17058D01*
X30311Y17065D01*
X30288Y17078D01*
X30269Y17097D01*
X30256Y17120D01*
X30249Y17146D01*
X30249Y17238D01*
X30522Y17238D01*
X30522Y17058D01*
X30337Y17058D01*
G37*
%LPD*%
%LPC*%
G36*
X29337Y17058D02*
X29337Y17058D01*
X29311Y17065D01*
X29288Y17078D01*
X29269Y17097D01*
X29256Y17120D01*
X29249Y17146D01*
X29249Y17238D01*
X29522Y17238D01*
X29522Y17058D01*
X29337Y17058D01*
G37*
%LPD*%
%LPC*%
G36*
X31678Y17058D02*
X31678Y17058D01*
X31678Y17238D01*
X31951Y17238D01*
X31951Y17146D01*
X31944Y17120D01*
X31931Y17097D01*
X31912Y17078D01*
X31889Y17065D01*
X31863Y17058D01*
X31678Y17058D01*
G37*
%LPD*%
%LPC*%
G36*
X30678Y17058D02*
X30678Y17058D01*
X30678Y17238D01*
X30951Y17238D01*
X30951Y17146D01*
X30944Y17120D01*
X30931Y17097D01*
X30912Y17078D01*
X30889Y17065D01*
X30863Y17058D01*
X30678Y17058D01*
G37*
%LPD*%
%LPC*%
G36*
X29678Y17058D02*
X29678Y17058D01*
X29678Y17238D01*
X29951Y17238D01*
X29951Y17146D01*
X29944Y17120D01*
X29931Y17097D01*
X29912Y17078D01*
X29889Y17065D01*
X29863Y17058D01*
X29678Y17058D01*
G37*
%LPD*%
%LPC*%
G36*
X31509Y19608D02*
X31509Y19608D01*
X31509Y19706D01*
X31836Y19706D01*
X31836Y19697D01*
X31828Y19670D01*
X31828Y19666D01*
X31827Y19662D01*
X31827Y19660D01*
X31827Y19657D01*
X31828Y19645D01*
X31828Y19644D01*
X31836Y19617D01*
X31836Y19608D01*
X31509Y19608D01*
G37*
%LPD*%
%LPC*%
G36*
X29789Y20199D02*
X29789Y20199D01*
X29789Y20295D01*
X30028Y20295D01*
X30054Y20288D01*
X30077Y20275D01*
X30096Y20256D01*
X30109Y20233D01*
X30116Y20208D01*
X30116Y20199D01*
X29789Y20199D01*
G37*
%LPD*%
%LPC*%
G36*
X29364Y20199D02*
X29364Y20199D01*
X29364Y20208D01*
X29371Y20233D01*
X29384Y20256D01*
X29403Y20275D01*
X29426Y20288D01*
X29452Y20295D01*
X29691Y20295D01*
X29691Y20199D01*
X29364Y20199D01*
G37*
%LPD*%
D10*
X10400Y3621D03*
X10400Y2439D03*
D11*
X9009Y4710D03*
X10191Y4710D03*
X8941Y6240D03*
X7759Y6240D03*
D12*
X7266Y9930D03*
X8054Y9930D03*
X8074Y7540D03*
X7286Y7540D03*
D13*
X5602Y8752D03*
D14*
X8019Y9252D03*
X8019Y8228D03*
D15*
X13100Y13210D03*
X12509Y13210D03*
X13691Y13210D03*
D16*
X9495Y11080D03*
X9495Y10883D03*
X9495Y10686D03*
X9495Y10490D03*
X9495Y10293D03*
X9495Y10096D03*
X9495Y9899D03*
X9495Y9702D03*
X9495Y9505D03*
X9495Y9308D03*
X9495Y9112D03*
X9495Y8915D03*
X9495Y8718D03*
X9495Y8521D03*
X9495Y8324D03*
X9495Y8127D03*
X9495Y7930D03*
X9495Y7734D03*
X9495Y7537D03*
X9495Y7340D03*
D17*
X10230Y6605D03*
X10427Y6605D03*
X10624Y6605D03*
X10820Y6605D03*
X11017Y6605D03*
X11214Y6605D03*
X11411Y6605D03*
X11608Y6605D03*
X11805Y6605D03*
X12002Y6605D03*
X12198Y6605D03*
X12395Y6605D03*
X12592Y6605D03*
X12789Y6605D03*
X12986Y6605D03*
X13183Y6605D03*
X13380Y6605D03*
X13576Y6605D03*
X13773Y6605D03*
X13970Y6605D03*
D16*
X14705Y7340D03*
X14705Y7537D03*
X14705Y7734D03*
X14705Y7930D03*
X14705Y8127D03*
X14705Y8324D03*
X14705Y8521D03*
X14705Y8718D03*
X14705Y8915D03*
X14705Y9112D03*
X14705Y9308D03*
X14705Y9505D03*
X14705Y9702D03*
X14705Y9899D03*
X14705Y10096D03*
X14705Y10293D03*
X14705Y10490D03*
X14705Y10686D03*
X14705Y10883D03*
X14705Y11080D03*
D17*
X13970Y11815D03*
X13773Y11815D03*
X13576Y11815D03*
X13380Y11815D03*
X13183Y11815D03*
X12986Y11815D03*
X12789Y11815D03*
X12592Y11815D03*
X12395Y11815D03*
X12198Y11815D03*
X12002Y11815D03*
X11805Y11815D03*
X11608Y11815D03*
X11411Y11815D03*
X11214Y11815D03*
X11017Y11815D03*
X10820Y11815D03*
X10624Y11815D03*
X10427Y11815D03*
X10230Y11815D03*
D18*
X20700Y5978D03*
X19700Y5978D03*
X17700Y5978D03*
X16700Y5978D03*
X16700Y2002D03*
X17700Y2002D03*
X20700Y2002D03*
X18700Y5978D03*
D11*
X18549Y7250D03*
X19731Y7250D03*
D19*
X15607Y1630D03*
X13253Y1630D03*
D20*
X15340Y3303D03*
X15340Y4477D03*
D21*
X3947Y11000D03*
X4813Y11374D03*
X4813Y10626D03*
D22*
X1750Y13110D03*
D23*
X2600Y10570D03*
X880Y10570D03*
D24*
X2230Y8100D03*
X2230Y3600D03*
D25*
X13552Y3056D03*
X13552Y3430D03*
X13552Y3804D03*
X12528Y3804D03*
X12528Y3056D03*
D12*
X13306Y4570D03*
X14094Y4570D03*
D26*
X11550Y4744D03*
X11550Y3956D03*
D11*
X16589Y7250D03*
X17771Y7250D03*
D27*
X29740Y20150D03*
X29740Y19953D03*
X29740Y19755D03*
X29740Y19559D03*
X29740Y19361D03*
X29740Y19165D03*
X29740Y18968D03*
X29740Y18770D03*
X31460Y18770D03*
X31460Y18968D03*
X31460Y19165D03*
X31460Y19361D03*
X31460Y19559D03*
X31460Y19755D03*
X31460Y19953D03*
X31460Y20150D03*
D28*
X30600Y17316D03*
X30600Y18104D03*
X29600Y17316D03*
X29600Y18104D03*
D29*
X30206Y20960D03*
X30994Y20960D03*
X32706Y19960D03*
X33494Y19960D03*
X32706Y20960D03*
X33494Y20960D03*
X32706Y18960D03*
X33494Y18960D03*
X33494Y17960D03*
X32706Y17960D03*
D28*
X38000Y18454D03*
X38000Y17666D03*
D29*
X36194Y19290D03*
X35406Y19290D03*
X37794Y19300D03*
X37006Y19300D03*
D28*
X31600Y17316D03*
X31600Y18104D03*
X35350Y17666D03*
X35350Y18454D03*
D29*
X36216Y18310D03*
X37004Y18310D03*
D30*
X29600Y24460D03*
X30850Y24460D03*
X28350Y24460D03*
X32100Y24460D03*
X27100Y24460D03*
D31*
X33320Y24500D03*
D32*
X37750Y26813D03*
X38537Y26813D03*
X39325Y26813D03*
X40112Y26813D03*
X40900Y26813D03*
X41687Y26813D03*
X41687Y21187D03*
X40900Y21187D03*
X40112Y21187D03*
X39325Y21187D03*
X38537Y21187D03*
X37750Y21187D03*
D33*
X5850Y21960D03*
X6850Y21960D03*
X7850Y21960D03*
X8850Y21960D03*
X9850Y21960D03*
X10850Y21960D03*
X13350Y21960D03*
X14350Y21960D03*
X15350Y21960D03*
X16350Y21960D03*
X17350Y21960D03*
X18350Y21960D03*
X32850Y11710D03*
X32850Y10710D03*
X32850Y9710D03*
X32850Y8710D03*
X32850Y7710D03*
X32850Y6710D03*
X20850Y21960D03*
X21850Y21960D03*
X22850Y21960D03*
X23850Y21960D03*
X24850Y21960D03*
X23850Y5460D03*
X22850Y5460D03*
X31600Y4210D03*
X31600Y3210D03*
X31600Y2210D03*
X31600Y1210D03*
X3350Y21960D03*
X2350Y21960D03*
X1350Y21960D03*
D31*
X10850Y20710D03*
D34*
X9850Y20710D03*
D31*
X8850Y20710D03*
X7850Y20710D03*
D30*
X6850Y20710D03*
D35*
X5850Y20710D03*
D31*
X18350Y20710D03*
X17350Y20710D03*
X16350Y20710D03*
X15350Y20710D03*
X14350Y20710D03*
X13350Y20710D03*
D30*
X32850Y1210D03*
D34*
X23850Y6710D03*
X22850Y6710D03*
D30*
X32850Y2210D03*
X32850Y3210D03*
X32850Y4210D03*
D35*
X31600Y6710D03*
X31600Y7710D03*
X31600Y8710D03*
X31600Y9710D03*
D30*
X31600Y10710D03*
X31600Y11710D03*
D31*
X24850Y20710D03*
X23850Y20710D03*
X22850Y20710D03*
X21850Y20710D03*
X20850Y20710D03*
D34*
X1350Y20710D03*
X2350Y20710D03*
X3350Y20710D03*
D33*
X32850Y16210D03*
X32850Y15210D03*
X32850Y14210D03*
D34*
X31600Y16210D03*
X31600Y15210D03*
X31600Y14210D03*
D30*
X27100Y25460D03*
X28350Y25460D03*
X29600Y25460D03*
X30850Y25460D03*
X32100Y25460D03*
X33350Y25460D03*
D36*
X9670Y6220D03*
D37*
X10191Y5000D02*
X10191Y4710D01*
X9530Y9112D02*
X9495Y9112D01*
D36*
X10060Y9100D03*
X10070Y7790D03*
D38*
X9670Y6220D02*
X10191Y5699D01*
X10191Y5250D01*
X10191Y5000D01*
D39*
X10060Y9100D02*
X10048Y9112D01*
X9530Y9112D01*
X10070Y7790D02*
X10010Y7730D01*
X9499Y7730D01*
X9495Y7734D01*
D40*
X10191Y5250D02*
X14790Y5250D01*
X15850Y6310D01*
D41*
X14717Y9100D02*
X14705Y9112D01*
D39*
X15690Y9100D02*
X15850Y8940D01*
X15690Y9100D02*
X14717Y9100D01*
D42*
X15850Y8940D02*
X15850Y6310D01*
D43*
X12528Y3056D02*
X12004Y3056D01*
X11550Y3510D02*
X11550Y3956D01*
X11550Y3510D02*
X12004Y3056D01*
X11439Y3621D02*
X10400Y3621D01*
X11439Y3621D02*
X11550Y3510D01*
X10400Y3621D02*
X10400Y4501D01*
X10191Y4710D01*
D41*
X9009Y4710D02*
X8509Y4710D01*
X9495Y9308D02*
X9493Y9310D01*
X9170Y9310D01*
D37*
X13970Y12370D02*
X13975Y12375D01*
X14360Y12350D02*
X14360Y13750D01*
X14130Y13980D01*
X13170Y13980D01*
X13100Y13910D02*
X13100Y13210D01*
X13100Y13910D02*
X13170Y13980D01*
X12592Y12322D02*
X12592Y11815D01*
X12592Y12322D02*
X12650Y12380D01*
D39*
X13970Y12380D01*
X14370Y12380D01*
D37*
X13975Y12375D02*
X13970Y12380D01*
D36*
X14360Y12350D03*
D41*
X17744Y2046D02*
X17700Y2002D01*
X10819Y800D02*
X10280Y1340D01*
X9009Y2610D02*
X9009Y4710D01*
X17740Y1962D02*
X17740Y800D01*
X17740Y1962D02*
X17700Y2002D01*
X18549Y7210D02*
X18549Y7250D01*
X18549Y7210D02*
X18549Y6129D01*
X18700Y5978D01*
X14370Y12360D02*
X14370Y12380D01*
X14370Y12360D02*
X14360Y12350D01*
X13970Y11960D02*
X13970Y11815D01*
X13970Y11815D01*
D39*
X13970Y11960D02*
X13970Y12370D01*
D41*
X13970Y11960D02*
X13970Y11960D01*
D39*
X7736Y10400D02*
X7266Y9930D01*
X7736Y10400D02*
X8590Y10400D01*
X8590Y9830D01*
X9110Y9310D01*
X9170Y9310D01*
D43*
X18700Y5978D02*
X18700Y3002D01*
D38*
X17744Y2046D01*
D41*
X13306Y4570D02*
X13133Y4744D01*
X12490Y4744D01*
X13306Y4570D02*
X13440Y4436D01*
X13440Y4180D01*
X13520Y4100D01*
X13960Y4100D01*
X14060Y4000D01*
X14060Y3500D01*
X13622Y3500D01*
X13552Y3430D01*
X10400Y2439D02*
X10280Y2319D01*
X10280Y1340D01*
D36*
X12490Y4744D03*
D39*
X14705Y8915D02*
X15257Y8915D01*
X15506Y8666D01*
D36*
X15506Y8666D03*
D37*
X9081Y8521D02*
X8935Y8375D01*
X9081Y8521D02*
X9495Y8521D01*
X9495Y7537D02*
X8980Y7537D01*
X7333Y7540D02*
X7286Y7540D01*
X7333Y7540D02*
X7768Y7105D01*
X8495Y7105D01*
D39*
X5850Y20710D02*
X5850Y21960D01*
X13350Y21960D02*
X13350Y20710D01*
X5850Y21960D02*
X5850Y26960D01*
X6100Y27210D01*
X33100Y27210D01*
X33350Y26960D01*
D44*
X22850Y7960D02*
X22850Y6710D01*
D43*
X22850Y7960D02*
X22600Y8210D01*
X22850Y6710D02*
X22850Y5460D01*
X18850Y8210D02*
X18628Y7988D01*
X18549Y7210D01*
X18850Y8210D02*
X22600Y8210D01*
D39*
X33350Y25460D02*
X33350Y26960D01*
X8980Y7537D02*
X8549Y7105D01*
X8495Y7105D01*
X8935Y7582D02*
X8935Y8375D01*
X8935Y7582D02*
X8980Y7537D01*
D41*
X9495Y7340D02*
X8941Y6785D01*
X8941Y6240D01*
D39*
X31600Y9710D02*
X32850Y9710D01*
X15326Y10686D02*
X14705Y10686D01*
X15326Y10686D02*
X15343Y10703D01*
X30107Y10703D02*
X30350Y10460D01*
X30350Y9960D01*
X30600Y9710D01*
X31600Y9710D01*
X30107Y10703D02*
X15343Y10703D01*
X12198Y11815D02*
X12198Y12899D01*
X12509Y13210D01*
X12010Y14210D02*
X24600Y14210D01*
D41*
X12010Y14210D02*
X12002Y14202D01*
D39*
X12002Y11815D01*
X24600Y14210D02*
X24850Y14460D01*
X24850Y20710D01*
X24850Y21960D01*
X23850Y14710D02*
X23600Y14460D01*
X11980Y14460D01*
X11805Y14284D01*
X11805Y11815D01*
X23850Y20710D02*
X23850Y21960D01*
X23850Y20710D02*
X23850Y14710D01*
X22850Y14960D02*
X22600Y14710D01*
X11931Y14710D01*
X11608Y14387D01*
X11608Y11815D01*
X22850Y20710D02*
X22850Y21960D01*
X22850Y20710D02*
X22850Y14960D01*
X11411Y14571D02*
X11411Y11815D01*
X11411Y14571D02*
X11800Y14960D01*
X21600Y14960D01*
X21850Y15210D01*
X21850Y20710D01*
X21850Y21960D01*
X20810Y15670D02*
X20600Y15460D01*
X11890Y15460D01*
X11214Y14784D01*
X11214Y11815D01*
X20810Y15670D02*
X20810Y20670D01*
X20850Y20710D01*
X20850Y21960D01*
D37*
X12397Y11817D02*
X12395Y11815D01*
D39*
X12397Y11817D02*
X12397Y12456D01*
X12541Y12600D01*
X13691Y12600D01*
X13691Y13210D01*
D41*
X8054Y9217D02*
X8019Y9252D01*
X8054Y9217D02*
X8054Y9930D01*
D37*
X8019Y9252D02*
X8356Y8915D01*
X9495Y8915D01*
D41*
X9495Y8718D02*
X8509Y8718D01*
X8040Y8250D01*
X8019Y8228D01*
X8074Y8216D02*
X8074Y7540D01*
X8074Y8216D02*
X8040Y8250D01*
D43*
X23850Y6710D02*
X23850Y5460D01*
X23850Y4710D01*
X23600Y4460D01*
X20718Y5960D02*
X20700Y5978D01*
X20718Y5960D02*
X21350Y5960D01*
X21600Y5710D01*
X21600Y4710D01*
X21850Y4460D01*
X23600Y4460D01*
D45*
X19731Y6009D02*
X19700Y5978D01*
X19731Y6009D02*
X19731Y7250D01*
X19700Y5978D02*
X19718Y5960D01*
X20718Y5960D01*
D39*
X28850Y2460D02*
X29100Y2210D01*
X31600Y2210D01*
X28850Y2460D02*
X28850Y8710D01*
X31600Y2210D02*
X32850Y2210D01*
X28252Y9308D02*
X14705Y9308D01*
X28252Y9308D02*
X28850Y8710D01*
D41*
X14707Y9507D02*
X14705Y9505D01*
D39*
X14707Y9507D02*
X28553Y9507D01*
X29100Y8960D01*
X29100Y3460D01*
X29350Y3210D01*
X31600Y3210D01*
X32850Y3210D01*
X32850Y6710D02*
X31600Y6710D01*
X15842Y9702D02*
X14705Y9702D01*
X15842Y9702D02*
X15850Y9710D01*
X29350Y9710D02*
X29600Y9460D01*
X29600Y7210D01*
X30100Y6710D01*
X31600Y6710D01*
X29350Y9710D02*
X15850Y9710D01*
X31600Y7710D02*
X32850Y7710D01*
X15789Y9899D02*
X14705Y9899D01*
X15789Y9899D02*
X15850Y9960D01*
X29600Y9960D02*
X29850Y9710D01*
X29850Y7960D01*
X30100Y7710D01*
X31600Y7710D01*
X29600Y9960D02*
X15850Y9960D01*
X14705Y10883D02*
X30427Y10883D01*
X31600Y10710D02*
X32850Y10710D01*
X30600Y10710D02*
X30427Y10883D01*
X30600Y10710D02*
X31600Y10710D01*
X30100Y11210D02*
X29970Y11080D01*
X14705Y11080D01*
X31600Y11710D02*
X32850Y11710D01*
X30100Y11460D02*
X30100Y11210D01*
X30100Y11460D02*
X30350Y11710D01*
X31600Y11710D01*
D36*
X12180Y5670D03*
D39*
X12789Y6243D02*
X12789Y6605D01*
X14350Y20710D02*
X14350Y21960D01*
X12789Y6243D02*
X12506Y5960D01*
X12350Y5960D01*
X12180Y5790D01*
X12180Y5670D01*
D41*
X13183Y5885D02*
X13183Y6605D01*
X13183Y5885D02*
X12968Y5670D01*
X12958Y5670D01*
D36*
X12958Y5670D03*
D39*
X17350Y20710D02*
X17350Y21960D01*
D36*
X7350Y13710D03*
D39*
X7600Y13960D01*
X8350Y13960D01*
D36*
X8350Y13960D03*
X9350Y13960D03*
D39*
X9350Y14710D02*
X13600Y18960D01*
X17100Y18960D01*
X17350Y19210D01*
X9350Y14710D02*
X9350Y13960D01*
X17350Y19210D02*
X17350Y20710D01*
X13990Y6605D02*
X14570Y6025D01*
D41*
X13990Y6605D02*
X13970Y6605D01*
D39*
X14570Y6025D02*
X14570Y5660D01*
D36*
X14570Y5660D03*
D39*
X16350Y20710D02*
X16350Y21960D01*
X14705Y7340D02*
X14930Y7115D01*
X14930Y6780D01*
D36*
X14930Y6780D03*
D39*
X15350Y20710D02*
X15350Y21960D01*
D36*
X15350Y17710D03*
D39*
X15350Y18519D01*
D36*
X15350Y18519D03*
D41*
X9495Y9702D02*
X9062Y9702D01*
X9060Y9700D01*
X8890Y9870D01*
X8890Y10500D01*
X8764Y10626D02*
X4813Y10626D01*
X8764Y10626D02*
X8890Y10500D01*
D45*
X2230Y6010D02*
X2230Y3600D01*
X3697Y10750D02*
X3947Y11000D01*
X3697Y10750D02*
X3697Y7477D01*
X2230Y6010D01*
X880Y7360D02*
X880Y10570D01*
X880Y7360D02*
X2230Y6010D01*
X2400Y19160D02*
X3910Y19160D01*
X2400Y19160D02*
X2350Y19210D01*
X2350Y20710D01*
X2350Y21960D01*
X3910Y19160D02*
X3910Y12020D01*
X2600Y10710D01*
X2600Y8470D02*
X2230Y8100D01*
X2600Y8470D02*
X2600Y10570D01*
X2600Y10710D01*
D41*
X16700Y5978D02*
X16740Y5978D01*
X17700Y5978D01*
X16589Y6129D02*
X16589Y7250D01*
X16589Y6129D02*
X16740Y5978D01*
D36*
X16820Y8500D03*
D43*
X16589Y8269D01*
X16589Y7250D01*
D39*
X27100Y25460D02*
X27100Y25710D01*
X26850Y25960D01*
X11100Y25960D01*
X10850Y25710D01*
X10850Y22460D01*
D43*
X10850Y21960D01*
X10850Y22460D02*
X11350Y22960D01*
X18100Y22960D01*
X18350Y22710D01*
X18350Y21960D01*
X10850Y21960D02*
X10850Y20710D01*
X18350Y20710D02*
X18350Y21960D01*
X14370Y3372D02*
X14350Y3352D01*
X14350Y2960D01*
X14370Y4294D02*
X14094Y4570D01*
X14370Y4294D02*
X14370Y3372D01*
X14350Y2960D02*
X13600Y2960D01*
D39*
X13552Y3008D01*
X13552Y3056D01*
D43*
X16682Y5960D02*
X16700Y5978D01*
X16682Y5960D02*
X16350Y5960D01*
X16100Y5710D01*
X16100Y4710D01*
X14434Y4294D02*
X14370Y4294D01*
X14617Y4477D02*
X15340Y4477D01*
X14617Y4477D02*
X14434Y4294D01*
X15340Y4477D02*
X15357Y4460D01*
X15850Y4460D01*
X16100Y4710D01*
D37*
X31600Y20710D02*
X31850Y20960D01*
X31600Y20710D02*
X31600Y20290D01*
X31460Y20150D01*
X31850Y20960D02*
X32706Y20960D01*
X32706Y20316D02*
X32706Y19960D01*
X32706Y20316D02*
X32850Y20460D01*
X33494Y20604D02*
X33494Y20960D01*
X33494Y20604D02*
X33350Y20460D01*
X32850Y20460D01*
D39*
X31468Y19960D02*
X31460Y19953D01*
X31468Y19960D02*
X32706Y19960D01*
X30600Y18104D02*
X29600Y18104D01*
X30600Y18104D02*
X30600Y18710D01*
X30660Y18770D01*
X30600Y18710D02*
X30540Y18770D01*
X29740Y18770D01*
X29740Y18968D01*
X29740Y19165D01*
D37*
X30850Y18770D02*
X31460Y18770D01*
D39*
X30850Y18770D02*
X30660Y18770D01*
X30850Y18770D02*
X30850Y19210D01*
X31001Y19361D01*
X31100Y19361D01*
X31460Y19361D01*
X31100Y19361D02*
X30994Y19468D01*
X30994Y20960D01*
X29494Y18210D02*
X29600Y18104D01*
X29494Y18210D02*
X27350Y18210D01*
X27100Y18460D02*
X27100Y24460D01*
X27100Y18460D02*
X27350Y18210D01*
X31460Y19165D02*
X31895Y19165D01*
X32100Y18960D02*
X32706Y18960D01*
X32100Y18960D02*
X31895Y19165D01*
X33850Y19460D02*
X34100Y19710D01*
X34100Y26460D01*
X34320Y26680D01*
X32956Y19210D02*
X32706Y18960D01*
X32956Y19210D02*
X33100Y19210D01*
X33350Y19460D01*
X33850Y19460D01*
X37687Y26750D02*
X37750Y26813D01*
X37687Y26750D02*
X36500Y26750D01*
D36*
X36500Y26750D03*
X34320Y26680D03*
D39*
X32100Y18210D02*
X32350Y17960D01*
X32706Y17960D01*
X32100Y18210D02*
X32100Y18620D01*
X31865Y18855D01*
X31865Y18869D01*
X31767Y18968D01*
X31460Y18968D01*
X32706Y17960D02*
X32706Y17604D01*
X32850Y17460D01*
X34100Y17460D01*
X34350Y17710D01*
X34350Y26210D02*
X35070Y26930D01*
X34350Y26210D02*
X34350Y17710D01*
X35070Y26930D02*
X35605Y27465D01*
X39000Y27465D01*
X39325Y27140D01*
X39325Y26813D01*
X33494Y18960D02*
X33494Y17960D01*
D36*
X33850Y18460D03*
X32100Y17710D03*
D39*
X31850Y17710D01*
X31600Y17960D01*
X31600Y18104D01*
X33494Y17960D02*
X33850Y17960D01*
X33850Y18460D01*
D46*
X37006Y18313D02*
X37006Y19300D01*
D38*
X37006Y18313D02*
X37004Y18310D01*
D46*
X37856Y18310D02*
X38000Y18454D01*
X37856Y18310D02*
X37004Y18310D01*
X36216Y18310D02*
X36073Y18454D01*
X35350Y18454D01*
D38*
X36194Y18333D02*
X36216Y18310D01*
D46*
X36194Y18333D02*
X36194Y19290D01*
D39*
X29740Y19559D02*
X28501Y19559D01*
X28350Y19710D01*
X28350Y24460D01*
X37794Y19300D02*
X39325Y20831D01*
X39325Y21187D01*
X37750Y21187D02*
X37750Y20950D01*
X36600Y19800D01*
X35900Y19800D01*
X35406Y19306D01*
X35406Y19290D01*
X29740Y19361D02*
X28199Y19361D01*
X28100Y19460D01*
D36*
X28100Y19460D03*
D39*
X29108Y19953D02*
X29740Y19953D01*
X28850Y20210D02*
X28850Y21460D01*
X29100Y21710D01*
X29350Y21710D01*
X29600Y21960D01*
X29600Y24460D01*
X28850Y20210D02*
X29108Y19953D01*
X28913Y19755D02*
X29740Y19755D01*
D36*
X29600Y20960D03*
D39*
X30206Y20960D01*
X30206Y21566D01*
X30350Y21710D01*
X30600Y21710D02*
X30850Y21960D01*
X30850Y24460D01*
X30600Y21710D02*
X30350Y21710D01*
D36*
X28659Y19960D03*
D39*
X28709Y19960D02*
X28913Y19756D01*
X28709Y19960D02*
X28659Y19960D01*
X28913Y19756D02*
X28913Y19755D01*
D36*
X14170Y5670D03*
D41*
X13773Y6649D02*
X13780Y6656D01*
X13773Y6649D02*
X13773Y6605D01*
X14170Y5690D02*
X14170Y5670D01*
D39*
X14170Y5690D02*
X13780Y6080D01*
D37*
X13780Y6656D01*
D39*
X9850Y20710D02*
X9850Y21960D01*
X9850Y25960D01*
X10100Y26210D01*
X28100Y26210D01*
X28350Y25960D01*
X28350Y25460D01*
D36*
X13780Y5670D03*
D41*
X13578Y6603D02*
X13576Y6605D01*
X13578Y6603D02*
X13578Y5868D01*
X13776Y5670D02*
X13780Y5670D01*
D39*
X13776Y5670D02*
X13578Y5868D01*
X7850Y20710D02*
X7850Y21960D01*
X7850Y26460D01*
X8100Y26710D01*
X30600Y26710D01*
X30850Y26460D01*
X30850Y25460D01*
D41*
X13380Y6605D02*
X13380Y5670D01*
X13380Y5670D01*
D36*
X13380Y5670D03*
D39*
X8850Y20710D02*
X8850Y21960D01*
D36*
X8850Y12110D03*
D39*
X8850Y20710D01*
X29600Y25460D02*
X29600Y26210D01*
X29350Y26460D01*
X9100Y26460D01*
X8850Y26210D01*
X8850Y21960D01*
D37*
X12986Y6605D02*
X12986Y6085D01*
D41*
X12985Y6085D01*
D37*
X12560Y5660D01*
D36*
X12560Y5660D03*
D39*
X6850Y20710D02*
X6850Y21960D01*
X32100Y25460D02*
X32100Y26710D01*
X31850Y26960D01*
X7100Y26960D01*
X6850Y26710D01*
X6850Y21960D01*
D45*
X4813Y20210D02*
X3520Y20210D01*
X3350Y20380D02*
X3350Y20710D01*
X3350Y20380D02*
X3520Y20210D01*
X3350Y20710D02*
X3350Y21960D01*
X4813Y20210D02*
X4813Y11374D01*
X1350Y20710D02*
X1350Y21960D01*
X1350Y20710D02*
X1350Y18710D01*
X1750Y18310D01*
X1750Y13110D01*
D39*
X31600Y8710D02*
X32850Y8710D01*
X31600Y8710D02*
X30350Y8710D01*
X15486Y10096D02*
X14705Y10096D01*
X15486Y10096D02*
X15600Y10210D01*
X29850Y10210D02*
X30100Y9960D01*
X30100Y8960D01*
X30350Y8710D01*
X29850Y10210D02*
X15600Y10210D01*
D37*
X31460Y19559D02*
X31460Y19755D01*
D39*
X33494Y19960D02*
X33850Y20316D01*
X33850Y24210D02*
X33560Y24500D01*
X33320Y24500D01*
X33850Y24210D02*
X33850Y20316D01*
X29740Y20150D02*
X29600Y20290D01*
X29600Y20460D01*
D36*
X29600Y20460D03*
X29100Y16460D03*
D39*
X35350Y16460D02*
X35350Y17666D01*
X35350Y16460D02*
X35100Y16210D01*
X32850Y16210D01*
X31600Y16210D01*
X32850Y15210D02*
X37850Y15210D01*
X37900Y15260D01*
X37900Y17566D02*
X38000Y17666D01*
X37900Y17566D02*
X37900Y15260D01*
X32850Y15210D02*
X31600Y15210D01*
M02*
