G04 EAGLE Gerber RS-274X export*
G75*
%MOIN*%
%FSLAX24Y24*%
%LPD*%
%INSilkscreen Top*%
%IPPOS*%
%AMOC8*
5,1,8,0,0,1.08239X$1,22.5*%
G01*
%ADD10C,0.004000*%
%ADD11C,0.006000*%
%ADD12C,0.010000*%
%ADD13C,0.003000*%
%ADD14C,0.005000*%
%ADD15C,0.002000*%
%ADD16C,0.001000*%
%ADD17C,0.008000*%

G36*
X20884Y3754D02*
X20884Y3754D01*
X20887Y3754D01*
X20888Y3754D01*
X20890Y3755D01*
X20892Y3756D01*
X20895Y3757D01*
X20896Y3758D01*
X20897Y3759D01*
X20899Y3761D01*
X20901Y3763D01*
X20902Y3765D01*
X20903Y3766D01*
X20903Y3769D01*
X20905Y3771D01*
X20905Y3773D01*
X20905Y3774D01*
X20905Y3775D01*
X20905Y3777D01*
X20905Y4131D01*
X20906Y4132D01*
X20909Y4140D01*
X20909Y4149D01*
X20905Y4157D01*
X20899Y4163D01*
X20891Y4167D01*
X20885Y4168D01*
X20637Y4168D01*
X20635Y4167D01*
X20633Y4167D01*
X20631Y4167D01*
X20628Y4166D01*
X20627Y4165D01*
X20625Y4164D01*
X20622Y4162D01*
X20621Y4162D01*
X20621Y4161D01*
X20620Y4161D01*
X20506Y4047D01*
X20505Y4045D01*
X20503Y4043D01*
X20502Y4041D01*
X20501Y4039D01*
X20500Y4037D01*
X20499Y4035D01*
X20499Y4032D01*
X20499Y4031D01*
X20499Y4030D01*
X20499Y4029D01*
X20499Y3896D01*
X20499Y3893D01*
X20499Y3891D01*
X20500Y3889D01*
X20500Y3887D01*
X20501Y3885D01*
X20502Y3883D01*
X20504Y3881D01*
X20505Y3879D01*
X20506Y3878D01*
X20624Y3760D01*
X20625Y3759D01*
X20627Y3758D01*
X20629Y3757D01*
X20631Y3755D01*
X20633Y3755D01*
X20635Y3754D01*
X20638Y3754D01*
X20639Y3753D01*
X20640Y3753D01*
X20641Y3753D01*
X20881Y3753D01*
X20884Y3754D01*
G37*
G36*
X31935Y18888D02*
X31935Y18888D01*
X31936Y18888D01*
X31937Y18889D01*
X31938Y18890D01*
X31939Y18890D01*
X31939Y18893D01*
X31939Y19043D01*
X31938Y19044D01*
X31938Y19046D01*
X31937Y19046D01*
X31935Y19047D01*
X31835Y19047D01*
X31834Y19047D01*
X31833Y19046D01*
X31832Y19045D01*
X31831Y19045D01*
X31831Y19043D01*
X31831Y18893D01*
X31831Y18892D01*
X31832Y18891D01*
X31832Y18889D01*
X31833Y18889D01*
X31835Y18888D01*
X31935Y18888D01*
X31935Y18888D01*
G37*
G36*
X10305Y12241D02*
X10305Y12241D01*
X10306Y12241D01*
X10307Y12242D01*
X10308Y12242D01*
X10308Y12243D01*
X10309Y12243D01*
X10309Y12245D01*
X10309Y12345D01*
X10309Y12346D01*
X10308Y12347D01*
X10308Y12348D01*
X10307Y12348D01*
X10307Y12349D01*
X10305Y12349D01*
X10155Y12349D01*
X10154Y12349D01*
X10153Y12348D01*
X10152Y12348D01*
X10152Y12347D01*
X10151Y12347D01*
X10151Y12345D01*
X10151Y12245D01*
X10151Y12244D01*
X10152Y12243D01*
X10152Y12242D01*
X10153Y12242D01*
X10153Y12241D01*
X10155Y12241D01*
X10305Y12241D01*
X10305Y12241D01*
G37*
G36*
X12274Y12241D02*
X12274Y12241D01*
X12275Y12242D01*
X12277Y12242D01*
X12277Y12243D01*
X12278Y12245D01*
X12278Y12345D01*
X12278Y12346D01*
X12277Y12347D01*
X12276Y12348D01*
X12276Y12349D01*
X12273Y12349D01*
X12123Y12349D01*
X12122Y12348D01*
X12120Y12348D01*
X12120Y12347D01*
X12119Y12345D01*
X12119Y12245D01*
X12119Y12244D01*
X12120Y12243D01*
X12121Y12242D01*
X12121Y12241D01*
X12123Y12241D01*
X12273Y12241D01*
X12274Y12241D01*
G37*
G36*
X15235Y11001D02*
X15235Y11001D01*
X15236Y11001D01*
X15237Y11002D01*
X15238Y11002D01*
X15238Y11003D01*
X15239Y11003D01*
X15239Y11005D01*
X15239Y11155D01*
X15239Y11156D01*
X15238Y11157D01*
X15238Y11158D01*
X15237Y11158D01*
X15237Y11159D01*
X15235Y11159D01*
X15135Y11159D01*
X15134Y11159D01*
X15133Y11158D01*
X15132Y11158D01*
X15132Y11157D01*
X15131Y11157D01*
X15131Y11155D01*
X15131Y11005D01*
X15131Y11004D01*
X15132Y11003D01*
X15132Y11002D01*
X15133Y11002D01*
X15133Y11001D01*
X15135Y11001D01*
X15235Y11001D01*
X15235Y11001D01*
G37*
G36*
X9065Y9229D02*
X9065Y9229D01*
X9066Y9229D01*
X9067Y9230D01*
X9068Y9231D01*
X9069Y9231D01*
X9069Y9233D01*
X9069Y9383D01*
X9069Y9384D01*
X9068Y9385D01*
X9068Y9387D01*
X9067Y9387D01*
X9065Y9388D01*
X8965Y9388D01*
X8964Y9388D01*
X8963Y9387D01*
X8962Y9386D01*
X8961Y9386D01*
X8961Y9383D01*
X8961Y9233D01*
X8962Y9232D01*
X8962Y9230D01*
X8963Y9230D01*
X8965Y9229D01*
X9065Y9229D01*
X9065Y9229D01*
G37*
G36*
X15235Y9032D02*
X15235Y9032D01*
X15236Y9032D01*
X15237Y9033D01*
X15238Y9034D01*
X15239Y9034D01*
X15239Y9037D01*
X15239Y9187D01*
X15238Y9188D01*
X15238Y9190D01*
X15237Y9190D01*
X15235Y9191D01*
X15135Y9191D01*
X15134Y9191D01*
X15133Y9190D01*
X15132Y9189D01*
X15131Y9189D01*
X15131Y9187D01*
X15131Y9037D01*
X15131Y9036D01*
X15132Y9035D01*
X15132Y9033D01*
X15133Y9033D01*
X15135Y9032D01*
X15235Y9032D01*
X15235Y9032D01*
G37*
G36*
X9065Y7261D02*
X9065Y7261D01*
X9066Y7261D01*
X9067Y7262D01*
X9068Y7262D01*
X9068Y7263D01*
X9069Y7263D01*
X9069Y7265D01*
X9069Y7415D01*
X9069Y7416D01*
X9068Y7417D01*
X9068Y7418D01*
X9067Y7418D01*
X9067Y7419D01*
X9065Y7419D01*
X8965Y7419D01*
X8964Y7419D01*
X8963Y7418D01*
X8962Y7418D01*
X8962Y7417D01*
X8961Y7417D01*
X8961Y7415D01*
X8961Y7265D01*
X8961Y7264D01*
X8962Y7263D01*
X8962Y7262D01*
X8963Y7262D01*
X8963Y7261D01*
X8965Y7261D01*
X9065Y7261D01*
X9065Y7261D01*
G37*
G36*
X14045Y6071D02*
X14045Y6071D01*
X14046Y6071D01*
X14047Y6072D01*
X14048Y6072D01*
X14048Y6073D01*
X14049Y6073D01*
X14049Y6075D01*
X14049Y6175D01*
X14049Y6176D01*
X14048Y6177D01*
X14048Y6178D01*
X14047Y6178D01*
X14047Y6179D01*
X14045Y6179D01*
X13895Y6179D01*
X13894Y6179D01*
X13893Y6178D01*
X13892Y6178D01*
X13892Y6177D01*
X13891Y6177D01*
X13891Y6175D01*
X13891Y6075D01*
X13891Y6074D01*
X13892Y6073D01*
X13892Y6072D01*
X13893Y6072D01*
X13893Y6071D01*
X13895Y6071D01*
X14045Y6071D01*
X14045Y6071D01*
G37*
G36*
X12077Y6071D02*
X12077Y6071D01*
X12078Y6072D01*
X12080Y6072D01*
X12080Y6073D01*
X12081Y6075D01*
X12081Y6175D01*
X12081Y6176D01*
X12080Y6177D01*
X12079Y6178D01*
X12079Y6179D01*
X12077Y6179D01*
X11927Y6179D01*
X11926Y6179D01*
X11925Y6178D01*
X11923Y6178D01*
X11923Y6177D01*
X11922Y6175D01*
X11922Y6075D01*
X11922Y6074D01*
X11923Y6073D01*
X11924Y6072D01*
X11924Y6071D01*
X11927Y6071D01*
X12077Y6071D01*
X12077Y6071D01*
G37*
D10*
X23844Y7629D02*
X23844Y7706D01*
X24100Y7706D01*
X24100Y7552D01*
X24098Y7534D01*
X24094Y7517D01*
X24086Y7501D01*
X24076Y7486D01*
X24064Y7474D01*
X24049Y7464D01*
X24033Y7456D01*
X24016Y7452D01*
X23998Y7450D01*
X23742Y7450D01*
X23722Y7452D01*
X23703Y7458D01*
X23685Y7467D01*
X23670Y7480D01*
X23657Y7495D01*
X23648Y7513D01*
X23642Y7532D01*
X23640Y7552D01*
X23640Y7706D01*
X23640Y7930D02*
X24100Y7930D01*
X24100Y8186D02*
X23640Y7930D01*
X23640Y8186D02*
X24100Y8186D01*
X24100Y8410D02*
X23640Y8410D01*
X23640Y8538D01*
X23642Y8558D01*
X23646Y8578D01*
X23654Y8596D01*
X23664Y8613D01*
X23677Y8629D01*
X23693Y8642D01*
X23710Y8652D01*
X23728Y8660D01*
X23748Y8664D01*
X23768Y8666D01*
X23972Y8666D01*
X23992Y8664D01*
X24012Y8660D01*
X24030Y8652D01*
X24047Y8642D01*
X24063Y8629D01*
X24076Y8613D01*
X24086Y8596D01*
X24094Y8578D01*
X24098Y8558D01*
X24100Y8538D01*
X24100Y8410D01*
X24420Y7628D02*
X24522Y7500D01*
X24420Y7628D02*
X24880Y7628D01*
X24880Y7500D02*
X24880Y7756D01*
X24535Y8206D02*
X24515Y8204D01*
X24496Y8199D01*
X24478Y8191D01*
X24461Y8179D01*
X24447Y8165D01*
X24435Y8149D01*
X24427Y8130D01*
X24422Y8111D01*
X24420Y8091D01*
X24422Y8068D01*
X24427Y8045D01*
X24436Y8024D01*
X24448Y8004D01*
X24463Y7986D01*
X24481Y7971D01*
X24501Y7959D01*
X24522Y7950D01*
X24625Y8168D02*
X24610Y8181D01*
X24593Y8192D01*
X24574Y8200D01*
X24555Y8204D01*
X24535Y8206D01*
X24624Y8167D02*
X24880Y7950D01*
X24880Y8206D01*
X24880Y8528D02*
X24420Y8374D01*
X24420Y8681D02*
X24880Y8528D01*
D11*
X25579Y8856D02*
X25686Y8856D01*
X25686Y8500D01*
X25472Y8500D01*
X25450Y8502D01*
X25428Y8507D01*
X25408Y8515D01*
X25389Y8527D01*
X25372Y8542D01*
X25357Y8559D01*
X25345Y8578D01*
X25337Y8598D01*
X25332Y8620D01*
X25330Y8642D01*
X25330Y8998D01*
X25332Y9020D01*
X25337Y9042D01*
X25345Y9062D01*
X25357Y9081D01*
X25372Y9098D01*
X25389Y9113D01*
X25408Y9125D01*
X25428Y9133D01*
X25450Y9138D01*
X25472Y9140D01*
X25686Y9140D01*
X25995Y9140D02*
X25995Y8500D01*
X25995Y9140D02*
X26173Y9140D01*
X26198Y9138D01*
X26223Y9133D01*
X26247Y9124D01*
X26269Y9112D01*
X26290Y9097D01*
X26308Y9079D01*
X26323Y9058D01*
X26335Y9036D01*
X26344Y9012D01*
X26349Y8987D01*
X26351Y8962D01*
X26349Y8937D01*
X26344Y8912D01*
X26335Y8888D01*
X26323Y8866D01*
X26308Y8845D01*
X26290Y8827D01*
X26269Y8812D01*
X26247Y8800D01*
X26223Y8791D01*
X26198Y8786D01*
X26173Y8784D01*
X25995Y8784D01*
X26636Y8500D02*
X26636Y9140D01*
X26565Y8500D02*
X26707Y8500D01*
X26707Y9140D02*
X26565Y9140D01*
X26951Y8962D02*
X26951Y8678D01*
X26950Y8962D02*
X26952Y8987D01*
X26957Y9012D01*
X26966Y9036D01*
X26978Y9058D01*
X26993Y9079D01*
X27011Y9097D01*
X27032Y9112D01*
X27054Y9124D01*
X27078Y9133D01*
X27103Y9138D01*
X27128Y9140D01*
X27153Y9138D01*
X27178Y9133D01*
X27202Y9124D01*
X27224Y9112D01*
X27245Y9097D01*
X27263Y9079D01*
X27278Y9058D01*
X27290Y9036D01*
X27299Y9012D01*
X27304Y8987D01*
X27306Y8962D01*
X27306Y8678D01*
X27304Y8653D01*
X27299Y8628D01*
X27290Y8604D01*
X27278Y8582D01*
X27263Y8561D01*
X27245Y8543D01*
X27224Y8528D01*
X27202Y8516D01*
X27178Y8507D01*
X27153Y8502D01*
X27128Y8500D01*
X27103Y8502D01*
X27078Y8507D01*
X27054Y8516D01*
X27032Y8528D01*
X27011Y8543D01*
X26993Y8561D01*
X26978Y8582D01*
X26966Y8604D01*
X26957Y8628D01*
X26952Y8653D01*
X26950Y8678D01*
X27540Y8429D02*
X27824Y8429D01*
X28058Y8500D02*
X28272Y8500D01*
X28294Y8502D01*
X28316Y8507D01*
X28336Y8515D01*
X28355Y8527D01*
X28372Y8542D01*
X28387Y8559D01*
X28399Y8578D01*
X28407Y8598D01*
X28412Y8620D01*
X28414Y8642D01*
X28414Y8713D01*
X28412Y8735D01*
X28407Y8757D01*
X28399Y8777D01*
X28387Y8796D01*
X28372Y8813D01*
X28355Y8828D01*
X28336Y8840D01*
X28316Y8848D01*
X28294Y8853D01*
X28272Y8855D01*
X28272Y8856D02*
X28058Y8856D01*
X28058Y9140D01*
X28414Y9140D01*
X28674Y8500D02*
X28887Y8500D01*
X28909Y8502D01*
X28931Y8507D01*
X28951Y8515D01*
X28970Y8527D01*
X28987Y8542D01*
X29002Y8559D01*
X29014Y8578D01*
X29022Y8598D01*
X29027Y8620D01*
X29029Y8642D01*
X29029Y8713D01*
X29027Y8735D01*
X29022Y8757D01*
X29014Y8777D01*
X29002Y8796D01*
X28987Y8813D01*
X28970Y8828D01*
X28951Y8840D01*
X28931Y8848D01*
X28909Y8853D01*
X28887Y8855D01*
X28887Y8856D02*
X28674Y8856D01*
X28674Y9140D01*
X29029Y9140D01*
X25380Y3630D02*
X25380Y3168D01*
X25382Y3143D01*
X25387Y3118D01*
X25396Y3094D01*
X25408Y3072D01*
X25423Y3051D01*
X25441Y3033D01*
X25462Y3018D01*
X25484Y3006D01*
X25508Y2997D01*
X25533Y2992D01*
X25558Y2990D01*
X25583Y2992D01*
X25608Y2997D01*
X25632Y3006D01*
X25654Y3018D01*
X25675Y3033D01*
X25693Y3051D01*
X25708Y3072D01*
X25720Y3094D01*
X25729Y3118D01*
X25734Y3143D01*
X25736Y3168D01*
X25736Y3630D01*
X26351Y3132D02*
X26349Y3110D01*
X26344Y3088D01*
X26336Y3068D01*
X26324Y3049D01*
X26309Y3032D01*
X26292Y3017D01*
X26273Y3005D01*
X26253Y2997D01*
X26231Y2992D01*
X26209Y2990D01*
X26175Y2992D01*
X26142Y2998D01*
X26109Y3007D01*
X26078Y3020D01*
X26049Y3036D01*
X26021Y3056D01*
X25996Y3079D01*
X26013Y3488D02*
X26015Y3510D01*
X26020Y3532D01*
X26028Y3552D01*
X26040Y3571D01*
X26055Y3588D01*
X26072Y3603D01*
X26091Y3615D01*
X26111Y3623D01*
X26133Y3628D01*
X26155Y3630D01*
X26184Y3628D01*
X26212Y3624D01*
X26239Y3616D01*
X26266Y3606D01*
X26291Y3593D01*
X26315Y3577D01*
X26014Y3488D02*
X26016Y3467D01*
X26020Y3446D01*
X26028Y3426D01*
X26039Y3407D01*
X26052Y3391D01*
X26067Y3376D01*
X26085Y3364D01*
X26280Y3256D02*
X26298Y3244D01*
X26313Y3229D01*
X26326Y3213D01*
X26337Y3194D01*
X26345Y3174D01*
X26349Y3153D01*
X26351Y3132D01*
X26280Y3257D02*
X26084Y3363D01*
X26731Y2990D02*
X26873Y2990D01*
X26731Y2990D02*
X26709Y2992D01*
X26687Y2997D01*
X26667Y3005D01*
X26648Y3017D01*
X26631Y3032D01*
X26616Y3049D01*
X26604Y3068D01*
X26596Y3088D01*
X26591Y3110D01*
X26589Y3132D01*
X26589Y3488D01*
X26591Y3510D01*
X26596Y3532D01*
X26604Y3552D01*
X26616Y3571D01*
X26631Y3588D01*
X26648Y3603D01*
X26667Y3615D01*
X26687Y3623D01*
X26709Y3628D01*
X26731Y3630D01*
X26873Y3630D01*
X27158Y3630D02*
X27158Y2990D01*
X27087Y2990D02*
X27229Y2990D01*
X27229Y3630D02*
X27087Y3630D01*
X27650Y3630D02*
X27437Y2990D01*
X27863Y2990D02*
X27650Y3630D01*
X27810Y3150D02*
X27490Y3150D01*
X28088Y3488D02*
X28266Y3630D01*
X28266Y2990D01*
X28443Y2990D02*
X28088Y2990D01*
X28709Y3310D02*
X28711Y3357D01*
X28716Y3404D01*
X28725Y3450D01*
X28738Y3496D01*
X28754Y3540D01*
X28774Y3583D01*
X28796Y3624D01*
X28822Y3664D01*
X28851Y3701D01*
X28709Y3310D02*
X28711Y3263D01*
X28716Y3216D01*
X28725Y3170D01*
X28738Y3124D01*
X28754Y3080D01*
X28774Y3037D01*
X28796Y2996D01*
X28822Y2956D01*
X28851Y2919D01*
X29117Y2990D02*
X29117Y3630D01*
X29295Y3630D01*
X29320Y3628D01*
X29345Y3623D01*
X29369Y3614D01*
X29391Y3602D01*
X29412Y3587D01*
X29430Y3569D01*
X29445Y3548D01*
X29457Y3526D01*
X29466Y3502D01*
X29471Y3477D01*
X29473Y3452D01*
X29471Y3427D01*
X29466Y3402D01*
X29457Y3378D01*
X29445Y3356D01*
X29430Y3335D01*
X29412Y3317D01*
X29391Y3302D01*
X29369Y3290D01*
X29345Y3281D01*
X29320Y3276D01*
X29295Y3274D01*
X29117Y3274D01*
X29330Y3274D02*
X29473Y2990D01*
X29693Y2990D02*
X30120Y3630D01*
X29693Y3630D02*
X30120Y2990D01*
X30327Y2919D02*
X30356Y2956D01*
X30382Y2996D01*
X30404Y3037D01*
X30424Y3080D01*
X30440Y3124D01*
X30453Y3170D01*
X30462Y3216D01*
X30467Y3263D01*
X30469Y3310D01*
X30467Y3357D01*
X30462Y3404D01*
X30453Y3450D01*
X30440Y3496D01*
X30424Y3540D01*
X30404Y3583D01*
X30382Y3624D01*
X30356Y3664D01*
X30327Y3701D01*
X25380Y2630D02*
X25380Y2168D01*
X25382Y2143D01*
X25387Y2118D01*
X25396Y2094D01*
X25408Y2072D01*
X25423Y2051D01*
X25441Y2033D01*
X25462Y2018D01*
X25484Y2006D01*
X25508Y1997D01*
X25533Y1992D01*
X25558Y1990D01*
X25583Y1992D01*
X25608Y1997D01*
X25632Y2006D01*
X25654Y2018D01*
X25675Y2033D01*
X25693Y2051D01*
X25708Y2072D01*
X25720Y2094D01*
X25729Y2118D01*
X25734Y2143D01*
X25736Y2168D01*
X25736Y2630D01*
X26351Y2132D02*
X26349Y2110D01*
X26344Y2088D01*
X26336Y2068D01*
X26324Y2049D01*
X26309Y2032D01*
X26292Y2017D01*
X26273Y2005D01*
X26253Y1997D01*
X26231Y1992D01*
X26209Y1990D01*
X26175Y1992D01*
X26142Y1998D01*
X26109Y2007D01*
X26078Y2020D01*
X26049Y2036D01*
X26021Y2056D01*
X25996Y2079D01*
X26013Y2488D02*
X26015Y2510D01*
X26020Y2532D01*
X26028Y2552D01*
X26040Y2571D01*
X26055Y2588D01*
X26072Y2603D01*
X26091Y2615D01*
X26111Y2623D01*
X26133Y2628D01*
X26155Y2630D01*
X26184Y2628D01*
X26212Y2624D01*
X26239Y2616D01*
X26266Y2606D01*
X26291Y2593D01*
X26315Y2577D01*
X26014Y2488D02*
X26016Y2467D01*
X26020Y2446D01*
X26028Y2426D01*
X26039Y2407D01*
X26052Y2391D01*
X26067Y2376D01*
X26085Y2364D01*
X26280Y2256D02*
X26298Y2244D01*
X26313Y2229D01*
X26326Y2213D01*
X26337Y2194D01*
X26345Y2174D01*
X26349Y2153D01*
X26351Y2132D01*
X26280Y2257D02*
X26084Y2363D01*
X26731Y1990D02*
X26873Y1990D01*
X26731Y1990D02*
X26709Y1992D01*
X26687Y1997D01*
X26667Y2005D01*
X26648Y2017D01*
X26631Y2032D01*
X26616Y2049D01*
X26604Y2068D01*
X26596Y2088D01*
X26591Y2110D01*
X26589Y2132D01*
X26589Y2488D01*
X26591Y2510D01*
X26596Y2532D01*
X26604Y2552D01*
X26616Y2571D01*
X26631Y2588D01*
X26648Y2603D01*
X26667Y2615D01*
X26687Y2623D01*
X26709Y2628D01*
X26731Y2630D01*
X26873Y2630D01*
X27158Y2630D02*
X27158Y1990D01*
X27087Y1990D02*
X27229Y1990D01*
X27229Y2630D02*
X27087Y2630D01*
X27650Y2630D02*
X27437Y1990D01*
X27863Y1990D02*
X27650Y2630D01*
X27810Y2150D02*
X27490Y2150D01*
X28088Y2488D02*
X28266Y2630D01*
X28266Y1990D01*
X28443Y1990D02*
X28088Y1990D01*
X28709Y2310D02*
X28711Y2357D01*
X28716Y2404D01*
X28725Y2450D01*
X28738Y2496D01*
X28754Y2540D01*
X28774Y2583D01*
X28796Y2624D01*
X28822Y2664D01*
X28851Y2701D01*
X28709Y2310D02*
X28711Y2263D01*
X28716Y2216D01*
X28725Y2170D01*
X28738Y2124D01*
X28754Y2080D01*
X28774Y2037D01*
X28796Y1996D01*
X28822Y1956D01*
X28851Y1919D01*
X29230Y1990D02*
X29230Y2630D01*
X29407Y2630D02*
X29052Y2630D01*
X29591Y1990D02*
X30017Y2630D01*
X29591Y2630D02*
X30017Y1990D01*
X30224Y1919D02*
X30253Y1956D01*
X30279Y1996D01*
X30301Y2037D01*
X30321Y2080D01*
X30337Y2124D01*
X30350Y2170D01*
X30359Y2216D01*
X30364Y2263D01*
X30366Y2310D01*
X30364Y2357D01*
X30359Y2404D01*
X30350Y2450D01*
X30337Y2496D01*
X30321Y2540D01*
X30301Y2583D01*
X30279Y2624D01*
X30253Y2664D01*
X30224Y2701D01*
X25726Y7806D02*
X25619Y7806D01*
X25726Y7806D02*
X25726Y7450D01*
X25512Y7450D01*
X25490Y7452D01*
X25468Y7457D01*
X25448Y7465D01*
X25429Y7477D01*
X25412Y7492D01*
X25397Y7509D01*
X25385Y7528D01*
X25377Y7548D01*
X25372Y7570D01*
X25370Y7592D01*
X25370Y7948D01*
X25372Y7970D01*
X25377Y7992D01*
X25385Y8012D01*
X25397Y8031D01*
X25412Y8048D01*
X25429Y8063D01*
X25448Y8075D01*
X25468Y8083D01*
X25490Y8088D01*
X25512Y8090D01*
X25726Y8090D01*
X26035Y8090D02*
X26035Y7450D01*
X26035Y8090D02*
X26213Y8090D01*
X26238Y8088D01*
X26263Y8083D01*
X26287Y8074D01*
X26309Y8062D01*
X26330Y8047D01*
X26348Y8029D01*
X26363Y8008D01*
X26375Y7986D01*
X26384Y7962D01*
X26389Y7937D01*
X26391Y7912D01*
X26389Y7887D01*
X26384Y7862D01*
X26375Y7838D01*
X26363Y7816D01*
X26348Y7795D01*
X26330Y7777D01*
X26309Y7762D01*
X26287Y7750D01*
X26263Y7741D01*
X26238Y7736D01*
X26213Y7734D01*
X26035Y7734D01*
X26676Y7450D02*
X26676Y8090D01*
X26605Y7450D02*
X26747Y7450D01*
X26747Y8090D02*
X26605Y8090D01*
X26991Y7912D02*
X26991Y7628D01*
X26990Y7912D02*
X26992Y7937D01*
X26997Y7962D01*
X27006Y7986D01*
X27018Y8008D01*
X27033Y8029D01*
X27051Y8047D01*
X27072Y8062D01*
X27094Y8074D01*
X27118Y8083D01*
X27143Y8088D01*
X27168Y8090D01*
X27193Y8088D01*
X27218Y8083D01*
X27242Y8074D01*
X27264Y8062D01*
X27285Y8047D01*
X27303Y8029D01*
X27318Y8008D01*
X27330Y7986D01*
X27339Y7962D01*
X27344Y7937D01*
X27346Y7912D01*
X27346Y7628D01*
X27344Y7603D01*
X27339Y7578D01*
X27330Y7554D01*
X27318Y7532D01*
X27303Y7511D01*
X27285Y7493D01*
X27264Y7478D01*
X27242Y7466D01*
X27218Y7457D01*
X27193Y7452D01*
X27168Y7450D01*
X27143Y7452D01*
X27118Y7457D01*
X27094Y7466D01*
X27072Y7478D01*
X27051Y7493D01*
X27033Y7511D01*
X27018Y7532D01*
X27006Y7554D01*
X26997Y7578D01*
X26992Y7603D01*
X26990Y7628D01*
X27580Y7379D02*
X27864Y7379D01*
X28098Y7450D02*
X28312Y7450D01*
X28334Y7452D01*
X28356Y7457D01*
X28376Y7465D01*
X28395Y7477D01*
X28412Y7492D01*
X28427Y7509D01*
X28439Y7528D01*
X28447Y7548D01*
X28452Y7570D01*
X28454Y7592D01*
X28454Y7663D01*
X28452Y7685D01*
X28447Y7707D01*
X28439Y7727D01*
X28427Y7746D01*
X28412Y7763D01*
X28395Y7778D01*
X28376Y7790D01*
X28356Y7798D01*
X28334Y7803D01*
X28312Y7805D01*
X28312Y7806D02*
X28098Y7806D01*
X28098Y8090D01*
X28454Y8090D01*
X28856Y8090D02*
X28714Y7592D01*
X29069Y7592D01*
X28963Y7734D02*
X28963Y7450D01*
X25736Y6596D02*
X25629Y6596D01*
X25736Y6596D02*
X25736Y6240D01*
X25522Y6240D01*
X25500Y6242D01*
X25478Y6247D01*
X25458Y6255D01*
X25439Y6267D01*
X25422Y6282D01*
X25407Y6299D01*
X25395Y6318D01*
X25387Y6338D01*
X25382Y6360D01*
X25380Y6382D01*
X25380Y6738D01*
X25382Y6760D01*
X25387Y6782D01*
X25395Y6802D01*
X25407Y6821D01*
X25422Y6838D01*
X25439Y6853D01*
X25458Y6865D01*
X25478Y6873D01*
X25500Y6878D01*
X25522Y6880D01*
X25736Y6880D01*
X26045Y6880D02*
X26045Y6240D01*
X26045Y6880D02*
X26223Y6880D01*
X26248Y6878D01*
X26273Y6873D01*
X26297Y6864D01*
X26319Y6852D01*
X26340Y6837D01*
X26358Y6819D01*
X26373Y6798D01*
X26385Y6776D01*
X26394Y6752D01*
X26399Y6727D01*
X26401Y6702D01*
X26399Y6677D01*
X26394Y6652D01*
X26385Y6628D01*
X26373Y6606D01*
X26358Y6585D01*
X26340Y6567D01*
X26319Y6552D01*
X26297Y6540D01*
X26273Y6531D01*
X26248Y6526D01*
X26223Y6524D01*
X26045Y6524D01*
X26686Y6240D02*
X26686Y6880D01*
X26615Y6240D02*
X26757Y6240D01*
X26757Y6880D02*
X26615Y6880D01*
X27001Y6702D02*
X27001Y6418D01*
X27000Y6702D02*
X27002Y6727D01*
X27007Y6752D01*
X27016Y6776D01*
X27028Y6798D01*
X27043Y6819D01*
X27061Y6837D01*
X27082Y6852D01*
X27104Y6864D01*
X27128Y6873D01*
X27153Y6878D01*
X27178Y6880D01*
X27203Y6878D01*
X27228Y6873D01*
X27252Y6864D01*
X27274Y6852D01*
X27295Y6837D01*
X27313Y6819D01*
X27328Y6798D01*
X27340Y6776D01*
X27349Y6752D01*
X27354Y6727D01*
X27356Y6702D01*
X27356Y6418D01*
X27354Y6393D01*
X27349Y6368D01*
X27340Y6344D01*
X27328Y6322D01*
X27313Y6301D01*
X27295Y6283D01*
X27274Y6268D01*
X27252Y6256D01*
X27228Y6247D01*
X27203Y6242D01*
X27178Y6240D01*
X27153Y6242D01*
X27128Y6247D01*
X27104Y6256D01*
X27082Y6268D01*
X27061Y6283D01*
X27043Y6301D01*
X27028Y6322D01*
X27016Y6344D01*
X27007Y6368D01*
X27002Y6393D01*
X27000Y6418D01*
X27590Y6169D02*
X27874Y6169D01*
X28108Y6240D02*
X28322Y6240D01*
X28344Y6242D01*
X28366Y6247D01*
X28386Y6255D01*
X28405Y6267D01*
X28422Y6282D01*
X28437Y6299D01*
X28449Y6318D01*
X28457Y6338D01*
X28462Y6360D01*
X28464Y6382D01*
X28464Y6453D01*
X28462Y6475D01*
X28457Y6497D01*
X28449Y6517D01*
X28437Y6536D01*
X28422Y6553D01*
X28405Y6568D01*
X28386Y6580D01*
X28366Y6588D01*
X28344Y6593D01*
X28322Y6595D01*
X28322Y6596D02*
X28108Y6596D01*
X28108Y6880D01*
X28464Y6880D01*
X28724Y6240D02*
X28901Y6240D01*
X28926Y6242D01*
X28951Y6247D01*
X28975Y6256D01*
X28997Y6268D01*
X29018Y6283D01*
X29036Y6301D01*
X29051Y6322D01*
X29063Y6344D01*
X29072Y6368D01*
X29077Y6393D01*
X29079Y6418D01*
X29077Y6443D01*
X29072Y6468D01*
X29063Y6492D01*
X29051Y6514D01*
X29036Y6535D01*
X29018Y6553D01*
X28997Y6568D01*
X28975Y6580D01*
X28951Y6589D01*
X28926Y6594D01*
X28901Y6596D01*
X28937Y6880D02*
X28724Y6880D01*
X28937Y6880D02*
X28959Y6878D01*
X28981Y6873D01*
X29001Y6865D01*
X29020Y6853D01*
X29037Y6838D01*
X29052Y6821D01*
X29064Y6802D01*
X29072Y6782D01*
X29077Y6760D01*
X29079Y6738D01*
X29077Y6716D01*
X29072Y6694D01*
X29064Y6674D01*
X29052Y6655D01*
X29037Y6638D01*
X29020Y6623D01*
X29001Y6611D01*
X28981Y6603D01*
X28959Y6598D01*
X28937Y6596D01*
X28795Y6596D01*
D10*
X5356Y11066D02*
X5279Y11066D01*
X5356Y11066D02*
X5356Y10810D01*
X5202Y10810D01*
X5184Y10812D01*
X5167Y10816D01*
X5151Y10824D01*
X5136Y10834D01*
X5124Y10846D01*
X5114Y10861D01*
X5106Y10877D01*
X5102Y10894D01*
X5100Y10912D01*
X5100Y11168D01*
X5102Y11188D01*
X5108Y11207D01*
X5117Y11225D01*
X5130Y11240D01*
X5145Y11253D01*
X5163Y11262D01*
X5182Y11268D01*
X5202Y11270D01*
X5356Y11270D01*
X5587Y11270D02*
X5587Y10810D01*
X5587Y11270D02*
X5714Y11270D01*
X5735Y11268D01*
X5756Y11263D01*
X5775Y11255D01*
X5793Y11243D01*
X5808Y11229D01*
X5821Y11212D01*
X5831Y11193D01*
X5838Y11173D01*
X5842Y11153D01*
X5842Y11131D01*
X5838Y11111D01*
X5831Y11091D01*
X5821Y11072D01*
X5808Y11055D01*
X5793Y11041D01*
X5775Y11029D01*
X5756Y11021D01*
X5735Y11016D01*
X5714Y11014D01*
X5587Y11014D01*
X6053Y10810D02*
X6053Y11270D01*
X6002Y10810D02*
X6104Y10810D01*
X6104Y11270D02*
X6002Y11270D01*
X6285Y11142D02*
X6285Y10938D01*
X6285Y11142D02*
X6287Y11163D01*
X6292Y11184D01*
X6300Y11203D01*
X6312Y11221D01*
X6326Y11236D01*
X6343Y11249D01*
X6362Y11259D01*
X6382Y11266D01*
X6402Y11270D01*
X6424Y11270D01*
X6444Y11266D01*
X6464Y11259D01*
X6483Y11249D01*
X6500Y11236D01*
X6514Y11221D01*
X6526Y11203D01*
X6534Y11184D01*
X6539Y11163D01*
X6541Y11142D01*
X6541Y10938D01*
X6539Y10917D01*
X6534Y10896D01*
X6526Y10877D01*
X6514Y10859D01*
X6500Y10844D01*
X6483Y10831D01*
X6464Y10821D01*
X6444Y10814D01*
X6424Y10810D01*
X6402Y10810D01*
X6382Y10814D01*
X6362Y10821D01*
X6343Y10831D01*
X6326Y10844D01*
X6312Y10859D01*
X6300Y10877D01*
X6292Y10896D01*
X6287Y10917D01*
X6285Y10938D01*
X6716Y10759D02*
X6920Y10759D01*
X7095Y10938D02*
X7097Y10959D01*
X7102Y10980D01*
X7110Y10999D01*
X7122Y11017D01*
X7136Y11032D01*
X7153Y11045D01*
X7172Y11055D01*
X7192Y11062D01*
X7212Y11066D01*
X7234Y11066D01*
X7254Y11062D01*
X7274Y11055D01*
X7293Y11045D01*
X7310Y11032D01*
X7324Y11017D01*
X7336Y10999D01*
X7344Y10980D01*
X7349Y10959D01*
X7351Y10938D01*
X7349Y10917D01*
X7344Y10896D01*
X7336Y10877D01*
X7324Y10859D01*
X7310Y10844D01*
X7293Y10831D01*
X7274Y10821D01*
X7254Y10814D01*
X7234Y10810D01*
X7212Y10810D01*
X7192Y10814D01*
X7172Y10821D01*
X7153Y10831D01*
X7136Y10844D01*
X7122Y10859D01*
X7110Y10877D01*
X7102Y10896D01*
X7097Y10917D01*
X7095Y10938D01*
X7121Y11168D02*
X7123Y11187D01*
X7128Y11205D01*
X7136Y11222D01*
X7148Y11237D01*
X7162Y11249D01*
X7178Y11259D01*
X7195Y11266D01*
X7214Y11270D01*
X7232Y11270D01*
X7251Y11266D01*
X7268Y11259D01*
X7284Y11249D01*
X7298Y11237D01*
X7310Y11222D01*
X7318Y11205D01*
X7323Y11187D01*
X7325Y11168D01*
X7323Y11149D01*
X7318Y11131D01*
X7310Y11114D01*
X7298Y11099D01*
X7284Y11087D01*
X7268Y11077D01*
X7251Y11070D01*
X7232Y11066D01*
X7214Y11066D01*
X7195Y11070D01*
X7178Y11077D01*
X7162Y11087D01*
X7148Y11099D01*
X7136Y11114D01*
X7128Y11131D01*
X7123Y11149D01*
X7121Y11168D01*
D12*
X4350Y21960D02*
X4350Y27210D01*
X350Y27210D01*
X350Y21960D01*
X21850Y5460D02*
X21850Y210D01*
X24850Y210D01*
X24850Y5460D01*
D11*
X5714Y14739D02*
X5714Y14846D01*
X6070Y14846D01*
X6070Y14632D01*
X6068Y14610D01*
X6063Y14588D01*
X6055Y14568D01*
X6043Y14549D01*
X6028Y14532D01*
X6011Y14517D01*
X5992Y14505D01*
X5972Y14497D01*
X5950Y14492D01*
X5928Y14490D01*
X5572Y14490D01*
X5550Y14492D01*
X5528Y14497D01*
X5508Y14505D01*
X5489Y14517D01*
X5472Y14532D01*
X5457Y14549D01*
X5445Y14568D01*
X5437Y14588D01*
X5432Y14610D01*
X5430Y14632D01*
X5430Y14846D01*
X5430Y15146D02*
X6070Y15146D01*
X6070Y15502D02*
X5430Y15146D01*
X5430Y15502D02*
X6070Y15502D01*
X6070Y15803D02*
X5430Y15803D01*
X5430Y15981D01*
X5432Y16006D01*
X5437Y16031D01*
X5446Y16055D01*
X5458Y16077D01*
X5473Y16098D01*
X5491Y16116D01*
X5512Y16131D01*
X5534Y16143D01*
X5558Y16152D01*
X5583Y16157D01*
X5608Y16159D01*
X5608Y16158D02*
X5892Y16158D01*
X5892Y16159D02*
X5917Y16157D01*
X5942Y16152D01*
X5966Y16143D01*
X5988Y16131D01*
X6009Y16116D01*
X6027Y16098D01*
X6042Y16077D01*
X6054Y16055D01*
X6063Y16031D01*
X6068Y16006D01*
X6070Y15981D01*
X6070Y15803D01*
X6430Y14490D02*
X6892Y14490D01*
X6917Y14492D01*
X6942Y14497D01*
X6966Y14506D01*
X6988Y14518D01*
X7009Y14533D01*
X7027Y14551D01*
X7042Y14572D01*
X7054Y14594D01*
X7063Y14618D01*
X7068Y14643D01*
X7070Y14668D01*
X7068Y14693D01*
X7063Y14718D01*
X7054Y14742D01*
X7042Y14764D01*
X7027Y14785D01*
X7009Y14803D01*
X6988Y14818D01*
X6966Y14830D01*
X6942Y14839D01*
X6917Y14844D01*
X6892Y14846D01*
X6430Y14846D01*
X7070Y15267D02*
X7070Y15409D01*
X7070Y15267D02*
X7068Y15245D01*
X7063Y15223D01*
X7055Y15203D01*
X7043Y15184D01*
X7028Y15167D01*
X7011Y15152D01*
X6992Y15140D01*
X6972Y15132D01*
X6950Y15127D01*
X6928Y15125D01*
X6928Y15124D02*
X6572Y15124D01*
X6572Y15125D02*
X6550Y15127D01*
X6528Y15132D01*
X6508Y15140D01*
X6489Y15152D01*
X6472Y15167D01*
X6457Y15184D01*
X6445Y15203D01*
X6437Y15223D01*
X6432Y15245D01*
X6430Y15267D01*
X6430Y15409D01*
X6714Y15668D02*
X6714Y15845D01*
X6716Y15870D01*
X6721Y15895D01*
X6730Y15919D01*
X6742Y15941D01*
X6757Y15962D01*
X6775Y15980D01*
X6796Y15995D01*
X6818Y16007D01*
X6842Y16016D01*
X6867Y16021D01*
X6892Y16023D01*
X6917Y16021D01*
X6942Y16016D01*
X6966Y16007D01*
X6988Y15995D01*
X7009Y15980D01*
X7027Y15962D01*
X7042Y15941D01*
X7054Y15919D01*
X7063Y15895D01*
X7068Y15870D01*
X7070Y15845D01*
X7070Y15668D01*
X6430Y15668D01*
X6430Y15845D01*
X6432Y15867D01*
X6437Y15889D01*
X6445Y15909D01*
X6457Y15928D01*
X6472Y15945D01*
X6489Y15960D01*
X6508Y15972D01*
X6528Y15980D01*
X6550Y15985D01*
X6572Y15987D01*
X6594Y15985D01*
X6616Y15980D01*
X6636Y15972D01*
X6655Y15960D01*
X6672Y15945D01*
X6687Y15928D01*
X6699Y15909D01*
X6707Y15889D01*
X6712Y15867D01*
X6714Y15845D01*
X6750Y16255D02*
X6710Y16257D01*
X6671Y16261D01*
X6632Y16268D01*
X6593Y16279D01*
X6556Y16292D01*
X6519Y16308D01*
X6519Y16307D02*
X6500Y16315D01*
X6483Y16326D01*
X6468Y16340D01*
X6455Y16355D01*
X6444Y16373D01*
X6436Y16392D01*
X6432Y16412D01*
X6430Y16432D01*
X6432Y16452D01*
X6436Y16472D01*
X6444Y16491D01*
X6455Y16509D01*
X6468Y16524D01*
X6483Y16538D01*
X6500Y16549D01*
X6519Y16557D01*
X6519Y16556D02*
X6556Y16572D01*
X6593Y16585D01*
X6632Y16596D01*
X6671Y16603D01*
X6710Y16607D01*
X6750Y16609D01*
X6750Y16255D02*
X6790Y16257D01*
X6829Y16261D01*
X6868Y16268D01*
X6907Y16279D01*
X6944Y16292D01*
X6981Y16308D01*
X6981Y16307D02*
X7000Y16315D01*
X7017Y16326D01*
X7032Y16340D01*
X7045Y16355D01*
X7056Y16373D01*
X7064Y16392D01*
X7068Y16412D01*
X7070Y16432D01*
X6981Y16556D02*
X6944Y16572D01*
X6907Y16585D01*
X6868Y16596D01*
X6829Y16603D01*
X6790Y16607D01*
X6750Y16609D01*
X6981Y16557D02*
X7000Y16549D01*
X7017Y16538D01*
X7032Y16524D01*
X7045Y16509D01*
X7056Y16491D01*
X7064Y16472D01*
X7068Y16452D01*
X7070Y16432D01*
X6928Y16290D02*
X6572Y16574D01*
X7141Y16844D02*
X7141Y17128D01*
X7070Y17503D02*
X7070Y17645D01*
X7070Y17503D02*
X7068Y17481D01*
X7063Y17459D01*
X7055Y17439D01*
X7043Y17420D01*
X7028Y17403D01*
X7011Y17388D01*
X6992Y17376D01*
X6972Y17368D01*
X6950Y17363D01*
X6928Y17361D01*
X6928Y17360D02*
X6572Y17360D01*
X6572Y17361D02*
X6550Y17363D01*
X6528Y17368D01*
X6508Y17376D01*
X6489Y17388D01*
X6472Y17403D01*
X6457Y17420D01*
X6445Y17439D01*
X6437Y17459D01*
X6432Y17481D01*
X6430Y17503D01*
X6430Y17645D01*
X6928Y18210D02*
X6950Y18208D01*
X6972Y18203D01*
X6992Y18195D01*
X7011Y18183D01*
X7028Y18168D01*
X7043Y18151D01*
X7055Y18132D01*
X7063Y18112D01*
X7068Y18090D01*
X7070Y18068D01*
X7068Y18034D01*
X7062Y18001D01*
X7053Y17968D01*
X7040Y17937D01*
X7024Y17908D01*
X7004Y17880D01*
X6981Y17855D01*
X6572Y17872D02*
X6550Y17874D01*
X6528Y17879D01*
X6508Y17887D01*
X6489Y17899D01*
X6472Y17914D01*
X6457Y17931D01*
X6445Y17950D01*
X6437Y17970D01*
X6432Y17992D01*
X6430Y18014D01*
X6432Y18043D01*
X6436Y18071D01*
X6444Y18098D01*
X6454Y18125D01*
X6467Y18150D01*
X6483Y18174D01*
X6572Y17872D02*
X6593Y17874D01*
X6614Y17878D01*
X6634Y17886D01*
X6653Y17897D01*
X6669Y17910D01*
X6684Y17925D01*
X6696Y17943D01*
X6804Y18138D02*
X6816Y18156D01*
X6831Y18171D01*
X6847Y18184D01*
X6866Y18195D01*
X6886Y18203D01*
X6907Y18207D01*
X6928Y18209D01*
X6803Y18139D02*
X6697Y17943D01*
X7430Y14490D02*
X7892Y14490D01*
X7917Y14492D01*
X7942Y14497D01*
X7966Y14506D01*
X7988Y14518D01*
X8009Y14533D01*
X8027Y14551D01*
X8042Y14572D01*
X8054Y14594D01*
X8063Y14618D01*
X8068Y14643D01*
X8070Y14668D01*
X8068Y14693D01*
X8063Y14718D01*
X8054Y14742D01*
X8042Y14764D01*
X8027Y14785D01*
X8009Y14803D01*
X7988Y14818D01*
X7966Y14830D01*
X7942Y14839D01*
X7917Y14844D01*
X7892Y14846D01*
X7430Y14846D01*
X8070Y15267D02*
X8070Y15409D01*
X8070Y15267D02*
X8068Y15245D01*
X8063Y15223D01*
X8055Y15203D01*
X8043Y15184D01*
X8028Y15167D01*
X8011Y15152D01*
X7992Y15140D01*
X7972Y15132D01*
X7950Y15127D01*
X7928Y15125D01*
X7928Y15124D02*
X7572Y15124D01*
X7572Y15125D02*
X7550Y15127D01*
X7528Y15132D01*
X7508Y15140D01*
X7489Y15152D01*
X7472Y15167D01*
X7457Y15184D01*
X7445Y15203D01*
X7437Y15223D01*
X7432Y15245D01*
X7430Y15267D01*
X7430Y15409D01*
X7714Y15668D02*
X7714Y15845D01*
X7716Y15870D01*
X7721Y15895D01*
X7730Y15919D01*
X7742Y15941D01*
X7757Y15962D01*
X7775Y15980D01*
X7796Y15995D01*
X7818Y16007D01*
X7842Y16016D01*
X7867Y16021D01*
X7892Y16023D01*
X7917Y16021D01*
X7942Y16016D01*
X7966Y16007D01*
X7988Y15995D01*
X8009Y15980D01*
X8027Y15962D01*
X8042Y15941D01*
X8054Y15919D01*
X8063Y15895D01*
X8068Y15870D01*
X8070Y15845D01*
X8070Y15668D01*
X7430Y15668D01*
X7430Y15845D01*
X7432Y15867D01*
X7437Y15889D01*
X7445Y15909D01*
X7457Y15928D01*
X7472Y15945D01*
X7489Y15960D01*
X7508Y15972D01*
X7528Y15980D01*
X7550Y15985D01*
X7572Y15987D01*
X7594Y15985D01*
X7616Y15980D01*
X7636Y15972D01*
X7655Y15960D01*
X7672Y15945D01*
X7687Y15928D01*
X7699Y15909D01*
X7707Y15889D01*
X7712Y15867D01*
X7714Y15845D01*
X7750Y16255D02*
X7710Y16257D01*
X7671Y16261D01*
X7632Y16268D01*
X7593Y16279D01*
X7556Y16292D01*
X7519Y16308D01*
X7519Y16307D02*
X7500Y16315D01*
X7483Y16326D01*
X7468Y16340D01*
X7455Y16355D01*
X7444Y16373D01*
X7436Y16392D01*
X7432Y16412D01*
X7430Y16432D01*
X7432Y16452D01*
X7436Y16472D01*
X7444Y16491D01*
X7455Y16509D01*
X7468Y16524D01*
X7483Y16538D01*
X7500Y16549D01*
X7519Y16557D01*
X7519Y16556D02*
X7556Y16572D01*
X7593Y16585D01*
X7632Y16596D01*
X7671Y16603D01*
X7710Y16607D01*
X7750Y16609D01*
X7750Y16255D02*
X7790Y16257D01*
X7829Y16261D01*
X7868Y16268D01*
X7907Y16279D01*
X7944Y16292D01*
X7981Y16308D01*
X7981Y16307D02*
X8000Y16315D01*
X8017Y16326D01*
X8032Y16340D01*
X8045Y16355D01*
X8056Y16373D01*
X8064Y16392D01*
X8068Y16412D01*
X8070Y16432D01*
X7981Y16556D02*
X7944Y16572D01*
X7907Y16585D01*
X7868Y16596D01*
X7829Y16603D01*
X7790Y16607D01*
X7750Y16609D01*
X7981Y16557D02*
X8000Y16549D01*
X8017Y16538D01*
X8032Y16524D01*
X8045Y16509D01*
X8056Y16491D01*
X8064Y16472D01*
X8068Y16452D01*
X8070Y16432D01*
X7928Y16290D02*
X7572Y16574D01*
X8141Y16844D02*
X8141Y17128D01*
X8070Y17388D02*
X7430Y17388D01*
X7786Y17601D01*
X7430Y17815D01*
X8070Y17815D01*
X8070Y18155D02*
X7430Y18155D01*
X8070Y18084D02*
X8070Y18226D01*
X7430Y18226D02*
X7430Y18084D01*
X8070Y18662D02*
X8068Y18684D01*
X8063Y18706D01*
X8055Y18726D01*
X8043Y18745D01*
X8028Y18762D01*
X8011Y18777D01*
X7992Y18789D01*
X7972Y18797D01*
X7950Y18802D01*
X7928Y18804D01*
X8070Y18662D02*
X8068Y18628D01*
X8062Y18595D01*
X8053Y18562D01*
X8040Y18531D01*
X8024Y18502D01*
X8004Y18474D01*
X7981Y18449D01*
X7572Y18467D02*
X7550Y18469D01*
X7528Y18474D01*
X7508Y18482D01*
X7489Y18494D01*
X7472Y18509D01*
X7457Y18526D01*
X7445Y18545D01*
X7437Y18565D01*
X7432Y18587D01*
X7430Y18609D01*
X7432Y18638D01*
X7436Y18666D01*
X7444Y18693D01*
X7454Y18720D01*
X7467Y18745D01*
X7483Y18769D01*
X7572Y18467D02*
X7593Y18469D01*
X7614Y18473D01*
X7634Y18481D01*
X7653Y18492D01*
X7669Y18505D01*
X7684Y18520D01*
X7696Y18538D01*
X7804Y18733D02*
X7816Y18751D01*
X7831Y18766D01*
X7847Y18779D01*
X7866Y18790D01*
X7886Y18798D01*
X7907Y18802D01*
X7928Y18804D01*
X7803Y18734D02*
X7697Y18538D01*
X7608Y19044D02*
X7892Y19044D01*
X7608Y19044D02*
X7583Y19046D01*
X7558Y19051D01*
X7534Y19060D01*
X7512Y19072D01*
X7491Y19087D01*
X7473Y19105D01*
X7458Y19126D01*
X7446Y19148D01*
X7437Y19172D01*
X7432Y19197D01*
X7430Y19222D01*
X7432Y19247D01*
X7437Y19272D01*
X7446Y19296D01*
X7458Y19318D01*
X7473Y19339D01*
X7491Y19357D01*
X7512Y19372D01*
X7534Y19384D01*
X7558Y19393D01*
X7583Y19398D01*
X7608Y19400D01*
X7892Y19400D01*
X7917Y19398D01*
X7942Y19393D01*
X7966Y19384D01*
X7988Y19372D01*
X8009Y19357D01*
X8027Y19339D01*
X8042Y19318D01*
X8054Y19296D01*
X8063Y19272D01*
X8068Y19247D01*
X8070Y19222D01*
X8068Y19197D01*
X8063Y19172D01*
X8054Y19148D01*
X8042Y19126D01*
X8027Y19105D01*
X8009Y19087D01*
X7988Y19072D01*
X7966Y19060D01*
X7942Y19051D01*
X7917Y19046D01*
X7892Y19044D01*
X8430Y14490D02*
X8892Y14490D01*
X8917Y14492D01*
X8942Y14497D01*
X8966Y14506D01*
X8988Y14518D01*
X9009Y14533D01*
X9027Y14551D01*
X9042Y14572D01*
X9054Y14594D01*
X9063Y14618D01*
X9068Y14643D01*
X9070Y14668D01*
X9068Y14693D01*
X9063Y14718D01*
X9054Y14742D01*
X9042Y14764D01*
X9027Y14785D01*
X9009Y14803D01*
X8988Y14818D01*
X8966Y14830D01*
X8942Y14839D01*
X8917Y14844D01*
X8892Y14846D01*
X8430Y14846D01*
X9070Y15267D02*
X9070Y15409D01*
X9070Y15267D02*
X9068Y15245D01*
X9063Y15223D01*
X9055Y15203D01*
X9043Y15184D01*
X9028Y15167D01*
X9011Y15152D01*
X8992Y15140D01*
X8972Y15132D01*
X8950Y15127D01*
X8928Y15125D01*
X8928Y15124D02*
X8572Y15124D01*
X8572Y15125D02*
X8550Y15127D01*
X8528Y15132D01*
X8508Y15140D01*
X8489Y15152D01*
X8472Y15167D01*
X8457Y15184D01*
X8445Y15203D01*
X8437Y15223D01*
X8432Y15245D01*
X8430Y15267D01*
X8430Y15409D01*
X8714Y15668D02*
X8714Y15845D01*
X8716Y15870D01*
X8721Y15895D01*
X8730Y15919D01*
X8742Y15941D01*
X8757Y15962D01*
X8775Y15980D01*
X8796Y15995D01*
X8818Y16007D01*
X8842Y16016D01*
X8867Y16021D01*
X8892Y16023D01*
X8917Y16021D01*
X8942Y16016D01*
X8966Y16007D01*
X8988Y15995D01*
X9009Y15980D01*
X9027Y15962D01*
X9042Y15941D01*
X9054Y15919D01*
X9063Y15895D01*
X9068Y15870D01*
X9070Y15845D01*
X9070Y15668D01*
X8430Y15668D01*
X8430Y15845D01*
X8432Y15867D01*
X8437Y15889D01*
X8445Y15909D01*
X8457Y15928D01*
X8472Y15945D01*
X8489Y15960D01*
X8508Y15972D01*
X8528Y15980D01*
X8550Y15985D01*
X8572Y15987D01*
X8594Y15985D01*
X8616Y15980D01*
X8636Y15972D01*
X8655Y15960D01*
X8672Y15945D01*
X8687Y15928D01*
X8699Y15909D01*
X8707Y15889D01*
X8712Y15867D01*
X8714Y15845D01*
X8750Y16255D02*
X8710Y16257D01*
X8671Y16261D01*
X8632Y16268D01*
X8593Y16279D01*
X8556Y16292D01*
X8519Y16308D01*
X8519Y16307D02*
X8500Y16315D01*
X8483Y16326D01*
X8468Y16340D01*
X8455Y16355D01*
X8444Y16373D01*
X8436Y16392D01*
X8432Y16412D01*
X8430Y16432D01*
X8432Y16452D01*
X8436Y16472D01*
X8444Y16491D01*
X8455Y16509D01*
X8468Y16524D01*
X8483Y16538D01*
X8500Y16549D01*
X8519Y16557D01*
X8519Y16556D02*
X8556Y16572D01*
X8593Y16585D01*
X8632Y16596D01*
X8671Y16603D01*
X8710Y16607D01*
X8750Y16609D01*
X8750Y16255D02*
X8790Y16257D01*
X8829Y16261D01*
X8868Y16268D01*
X8907Y16279D01*
X8944Y16292D01*
X8981Y16308D01*
X8981Y16307D02*
X9000Y16315D01*
X9017Y16326D01*
X9032Y16340D01*
X9045Y16355D01*
X9056Y16373D01*
X9064Y16392D01*
X9068Y16412D01*
X9070Y16432D01*
X8981Y16556D02*
X8944Y16572D01*
X8907Y16585D01*
X8868Y16596D01*
X8829Y16603D01*
X8790Y16607D01*
X8750Y16609D01*
X8981Y16557D02*
X9000Y16549D01*
X9017Y16538D01*
X9032Y16524D01*
X9045Y16509D01*
X9056Y16491D01*
X9064Y16472D01*
X9068Y16452D01*
X9070Y16432D01*
X8928Y16290D02*
X8572Y16574D01*
X9141Y16844D02*
X9141Y17128D01*
X9070Y17388D02*
X8430Y17388D01*
X8786Y17601D01*
X8430Y17815D01*
X9070Y17815D01*
X8892Y18100D02*
X8608Y18100D01*
X8583Y18102D01*
X8558Y18107D01*
X8534Y18116D01*
X8512Y18128D01*
X8491Y18143D01*
X8473Y18161D01*
X8458Y18182D01*
X8446Y18204D01*
X8437Y18228D01*
X8432Y18253D01*
X8430Y18278D01*
X8432Y18303D01*
X8437Y18328D01*
X8446Y18352D01*
X8458Y18374D01*
X8473Y18395D01*
X8491Y18413D01*
X8512Y18428D01*
X8534Y18440D01*
X8558Y18449D01*
X8583Y18454D01*
X8608Y18456D01*
X8892Y18456D01*
X8917Y18454D01*
X8942Y18449D01*
X8966Y18440D01*
X8988Y18428D01*
X9009Y18413D01*
X9027Y18395D01*
X9042Y18374D01*
X9054Y18352D01*
X9063Y18328D01*
X9068Y18303D01*
X9070Y18278D01*
X9068Y18253D01*
X9063Y18228D01*
X9054Y18204D01*
X9042Y18182D01*
X9027Y18161D01*
X9009Y18143D01*
X8988Y18128D01*
X8966Y18116D01*
X8942Y18107D01*
X8917Y18102D01*
X8892Y18100D01*
X9070Y18909D02*
X9068Y18931D01*
X9063Y18953D01*
X9055Y18973D01*
X9043Y18992D01*
X9028Y19009D01*
X9011Y19024D01*
X8992Y19036D01*
X8972Y19044D01*
X8950Y19049D01*
X8928Y19051D01*
X9070Y18909D02*
X9068Y18875D01*
X9062Y18842D01*
X9053Y18809D01*
X9040Y18778D01*
X9024Y18749D01*
X9004Y18721D01*
X8981Y18696D01*
X8572Y18713D02*
X8550Y18715D01*
X8528Y18720D01*
X8508Y18728D01*
X8489Y18740D01*
X8472Y18755D01*
X8457Y18772D01*
X8445Y18791D01*
X8437Y18811D01*
X8432Y18833D01*
X8430Y18855D01*
X8432Y18884D01*
X8436Y18912D01*
X8444Y18939D01*
X8454Y18966D01*
X8467Y18991D01*
X8483Y19015D01*
X8572Y18713D02*
X8593Y18715D01*
X8614Y18719D01*
X8634Y18727D01*
X8653Y18738D01*
X8669Y18751D01*
X8684Y18766D01*
X8696Y18784D01*
X8804Y18979D02*
X8816Y18997D01*
X8831Y19012D01*
X8847Y19025D01*
X8866Y19036D01*
X8886Y19044D01*
X8907Y19048D01*
X8928Y19050D01*
X8803Y18980D02*
X8697Y18784D01*
X8430Y19345D02*
X9070Y19345D01*
X9070Y19274D02*
X9070Y19416D01*
X8430Y19416D02*
X8430Y19274D01*
X9430Y14490D02*
X9892Y14490D01*
X9917Y14492D01*
X9942Y14497D01*
X9966Y14506D01*
X9988Y14518D01*
X10009Y14533D01*
X10027Y14551D01*
X10042Y14572D01*
X10054Y14594D01*
X10063Y14618D01*
X10068Y14643D01*
X10070Y14668D01*
X10068Y14693D01*
X10063Y14718D01*
X10054Y14742D01*
X10042Y14764D01*
X10027Y14785D01*
X10009Y14803D01*
X9988Y14818D01*
X9966Y14830D01*
X9942Y14839D01*
X9917Y14844D01*
X9892Y14846D01*
X9430Y14846D01*
X10070Y15267D02*
X10070Y15409D01*
X10070Y15267D02*
X10068Y15245D01*
X10063Y15223D01*
X10055Y15203D01*
X10043Y15184D01*
X10028Y15167D01*
X10011Y15152D01*
X9992Y15140D01*
X9972Y15132D01*
X9950Y15127D01*
X9928Y15125D01*
X9928Y15124D02*
X9572Y15124D01*
X9572Y15125D02*
X9550Y15127D01*
X9528Y15132D01*
X9508Y15140D01*
X9489Y15152D01*
X9472Y15167D01*
X9457Y15184D01*
X9445Y15203D01*
X9437Y15223D01*
X9432Y15245D01*
X9430Y15267D01*
X9430Y15409D01*
X9714Y15668D02*
X9714Y15845D01*
X9716Y15870D01*
X9721Y15895D01*
X9730Y15919D01*
X9742Y15941D01*
X9757Y15962D01*
X9775Y15980D01*
X9796Y15995D01*
X9818Y16007D01*
X9842Y16016D01*
X9867Y16021D01*
X9892Y16023D01*
X9917Y16021D01*
X9942Y16016D01*
X9966Y16007D01*
X9988Y15995D01*
X10009Y15980D01*
X10027Y15962D01*
X10042Y15941D01*
X10054Y15919D01*
X10063Y15895D01*
X10068Y15870D01*
X10070Y15845D01*
X10070Y15668D01*
X9430Y15668D01*
X9430Y15845D01*
X9432Y15867D01*
X9437Y15889D01*
X9445Y15909D01*
X9457Y15928D01*
X9472Y15945D01*
X9489Y15960D01*
X9508Y15972D01*
X9528Y15980D01*
X9550Y15985D01*
X9572Y15987D01*
X9594Y15985D01*
X9616Y15980D01*
X9636Y15972D01*
X9655Y15960D01*
X9672Y15945D01*
X9687Y15928D01*
X9699Y15909D01*
X9707Y15889D01*
X9712Y15867D01*
X9714Y15845D01*
X9750Y16255D02*
X9710Y16257D01*
X9671Y16261D01*
X9632Y16268D01*
X9593Y16279D01*
X9556Y16292D01*
X9519Y16308D01*
X9519Y16307D02*
X9500Y16315D01*
X9483Y16326D01*
X9468Y16340D01*
X9455Y16355D01*
X9444Y16373D01*
X9436Y16392D01*
X9432Y16412D01*
X9430Y16432D01*
X9432Y16452D01*
X9436Y16472D01*
X9444Y16491D01*
X9455Y16509D01*
X9468Y16524D01*
X9483Y16538D01*
X9500Y16549D01*
X9519Y16557D01*
X9519Y16556D02*
X9556Y16572D01*
X9593Y16585D01*
X9632Y16596D01*
X9671Y16603D01*
X9710Y16607D01*
X9750Y16609D01*
X9750Y16255D02*
X9790Y16257D01*
X9829Y16261D01*
X9868Y16268D01*
X9907Y16279D01*
X9944Y16292D01*
X9981Y16308D01*
X9981Y16307D02*
X10000Y16315D01*
X10017Y16326D01*
X10032Y16340D01*
X10045Y16355D01*
X10056Y16373D01*
X10064Y16392D01*
X10068Y16412D01*
X10070Y16432D01*
X9981Y16556D02*
X9944Y16572D01*
X9907Y16585D01*
X9868Y16596D01*
X9829Y16603D01*
X9790Y16607D01*
X9750Y16609D01*
X9981Y16557D02*
X10000Y16549D01*
X10017Y16538D01*
X10032Y16524D01*
X10045Y16509D01*
X10056Y16491D01*
X10064Y16472D01*
X10068Y16452D01*
X10070Y16432D01*
X9928Y16290D02*
X9572Y16574D01*
X10141Y16844D02*
X10141Y17128D01*
X10070Y17503D02*
X10070Y17645D01*
X10070Y17503D02*
X10068Y17481D01*
X10063Y17459D01*
X10055Y17439D01*
X10043Y17420D01*
X10028Y17403D01*
X10011Y17388D01*
X9992Y17376D01*
X9972Y17368D01*
X9950Y17363D01*
X9928Y17361D01*
X9928Y17360D02*
X9572Y17360D01*
X9572Y17361D02*
X9550Y17363D01*
X9528Y17368D01*
X9508Y17376D01*
X9489Y17388D01*
X9472Y17403D01*
X9457Y17420D01*
X9445Y17439D01*
X9437Y17459D01*
X9432Y17481D01*
X9430Y17503D01*
X9430Y17645D01*
X9430Y17896D02*
X10070Y17896D01*
X10070Y18181D01*
X10070Y18437D02*
X9430Y18437D01*
X9430Y18792D02*
X9821Y18437D01*
X9679Y18579D02*
X10070Y18792D01*
X10821Y14917D02*
X10821Y14490D01*
X11034Y14703D02*
X10608Y14703D01*
X11070Y15182D02*
X11070Y15395D01*
X11068Y15417D01*
X11063Y15439D01*
X11055Y15459D01*
X11043Y15478D01*
X11028Y15495D01*
X11011Y15510D01*
X10992Y15522D01*
X10972Y15530D01*
X10950Y15535D01*
X10928Y15537D01*
X10928Y15538D02*
X10857Y15538D01*
X10857Y15537D02*
X10835Y15535D01*
X10813Y15530D01*
X10793Y15522D01*
X10774Y15510D01*
X10757Y15495D01*
X10742Y15478D01*
X10730Y15459D01*
X10722Y15439D01*
X10717Y15417D01*
X10715Y15395D01*
X10714Y15395D02*
X10714Y15182D01*
X10430Y15182D01*
X10430Y15538D01*
X10430Y15762D02*
X11070Y15975D01*
X10430Y16188D01*
X13214Y14846D02*
X13214Y14739D01*
X13214Y14846D02*
X13570Y14846D01*
X13570Y14632D01*
X13568Y14610D01*
X13563Y14588D01*
X13555Y14568D01*
X13543Y14549D01*
X13528Y14532D01*
X13511Y14517D01*
X13492Y14505D01*
X13472Y14497D01*
X13450Y14492D01*
X13428Y14490D01*
X13072Y14490D01*
X13050Y14492D01*
X13028Y14497D01*
X13008Y14505D01*
X12989Y14517D01*
X12972Y14532D01*
X12957Y14549D01*
X12945Y14568D01*
X12937Y14588D01*
X12932Y14610D01*
X12930Y14632D01*
X12930Y14846D01*
X12930Y15146D02*
X13570Y15146D01*
X13570Y15502D02*
X12930Y15146D01*
X12930Y15502D02*
X13570Y15502D01*
X13570Y15803D02*
X12930Y15803D01*
X12930Y15981D01*
X12932Y16006D01*
X12937Y16031D01*
X12946Y16055D01*
X12958Y16077D01*
X12973Y16098D01*
X12991Y16116D01*
X13012Y16131D01*
X13034Y16143D01*
X13058Y16152D01*
X13083Y16157D01*
X13108Y16159D01*
X13108Y16158D02*
X13392Y16158D01*
X13392Y16159D02*
X13417Y16157D01*
X13442Y16152D01*
X13466Y16143D01*
X13488Y16131D01*
X13509Y16116D01*
X13527Y16098D01*
X13542Y16077D01*
X13554Y16055D01*
X13563Y16031D01*
X13568Y16006D01*
X13570Y15981D01*
X13570Y15803D01*
X14930Y14490D02*
X15392Y14490D01*
X15417Y14492D01*
X15442Y14497D01*
X15466Y14506D01*
X15488Y14518D01*
X15509Y14533D01*
X15527Y14551D01*
X15542Y14572D01*
X15554Y14594D01*
X15563Y14618D01*
X15568Y14643D01*
X15570Y14668D01*
X15568Y14693D01*
X15563Y14718D01*
X15554Y14742D01*
X15542Y14764D01*
X15527Y14785D01*
X15509Y14803D01*
X15488Y14818D01*
X15466Y14830D01*
X15442Y14839D01*
X15417Y14844D01*
X15392Y14846D01*
X14930Y14846D01*
X15570Y15267D02*
X15570Y15409D01*
X15570Y15267D02*
X15568Y15245D01*
X15563Y15223D01*
X15555Y15203D01*
X15543Y15184D01*
X15528Y15167D01*
X15511Y15152D01*
X15492Y15140D01*
X15472Y15132D01*
X15450Y15127D01*
X15428Y15125D01*
X15428Y15124D02*
X15072Y15124D01*
X15072Y15125D02*
X15050Y15127D01*
X15028Y15132D01*
X15008Y15140D01*
X14989Y15152D01*
X14972Y15167D01*
X14957Y15184D01*
X14945Y15203D01*
X14937Y15223D01*
X14932Y15245D01*
X14930Y15267D01*
X14930Y15409D01*
X14930Y15817D02*
X15570Y15603D01*
X15570Y16030D02*
X14930Y15817D01*
X15410Y15977D02*
X15410Y15657D01*
X15250Y16255D02*
X15210Y16257D01*
X15171Y16261D01*
X15132Y16268D01*
X15093Y16279D01*
X15056Y16292D01*
X15019Y16308D01*
X15019Y16307D02*
X15000Y16315D01*
X14983Y16326D01*
X14968Y16340D01*
X14955Y16355D01*
X14944Y16373D01*
X14936Y16392D01*
X14932Y16412D01*
X14930Y16432D01*
X14932Y16452D01*
X14936Y16472D01*
X14944Y16491D01*
X14955Y16509D01*
X14968Y16524D01*
X14983Y16538D01*
X15000Y16549D01*
X15019Y16557D01*
X15019Y16556D02*
X15056Y16572D01*
X15093Y16585D01*
X15132Y16596D01*
X15171Y16603D01*
X15210Y16607D01*
X15250Y16609D01*
X15250Y16255D02*
X15290Y16257D01*
X15329Y16261D01*
X15368Y16268D01*
X15407Y16279D01*
X15444Y16292D01*
X15481Y16308D01*
X15481Y16307D02*
X15500Y16315D01*
X15517Y16326D01*
X15532Y16340D01*
X15545Y16355D01*
X15556Y16373D01*
X15564Y16392D01*
X15568Y16412D01*
X15570Y16432D01*
X15481Y16556D02*
X15444Y16572D01*
X15407Y16585D01*
X15368Y16596D01*
X15329Y16603D01*
X15290Y16607D01*
X15250Y16609D01*
X15481Y16557D02*
X15500Y16549D01*
X15517Y16538D01*
X15532Y16524D01*
X15545Y16509D01*
X15556Y16491D01*
X15564Y16472D01*
X15568Y16452D01*
X15570Y16432D01*
X15428Y16290D02*
X15072Y16574D01*
X15641Y16844D02*
X15641Y17128D01*
X15570Y17388D02*
X14930Y17388D01*
X15286Y17601D01*
X14930Y17815D01*
X15570Y17815D01*
X15570Y18155D02*
X14930Y18155D01*
X15570Y18084D02*
X15570Y18226D01*
X14930Y18226D02*
X14930Y18084D01*
X15570Y18662D02*
X15568Y18684D01*
X15563Y18706D01*
X15555Y18726D01*
X15543Y18745D01*
X15528Y18762D01*
X15511Y18777D01*
X15492Y18789D01*
X15472Y18797D01*
X15450Y18802D01*
X15428Y18804D01*
X15570Y18662D02*
X15568Y18628D01*
X15562Y18595D01*
X15553Y18562D01*
X15540Y18531D01*
X15524Y18502D01*
X15504Y18474D01*
X15481Y18449D01*
X15072Y18467D02*
X15050Y18469D01*
X15028Y18474D01*
X15008Y18482D01*
X14989Y18494D01*
X14972Y18509D01*
X14957Y18526D01*
X14945Y18545D01*
X14937Y18565D01*
X14932Y18587D01*
X14930Y18609D01*
X14932Y18638D01*
X14936Y18666D01*
X14944Y18693D01*
X14954Y18720D01*
X14967Y18745D01*
X14983Y18769D01*
X15072Y18467D02*
X15093Y18469D01*
X15114Y18473D01*
X15134Y18481D01*
X15153Y18492D01*
X15169Y18505D01*
X15184Y18520D01*
X15196Y18538D01*
X15304Y18733D02*
X15316Y18751D01*
X15331Y18766D01*
X15347Y18779D01*
X15366Y18790D01*
X15386Y18798D01*
X15407Y18802D01*
X15428Y18804D01*
X15303Y18734D02*
X15197Y18538D01*
X15108Y19044D02*
X15392Y19044D01*
X15108Y19044D02*
X15083Y19046D01*
X15058Y19051D01*
X15034Y19060D01*
X15012Y19072D01*
X14991Y19087D01*
X14973Y19105D01*
X14958Y19126D01*
X14946Y19148D01*
X14937Y19172D01*
X14932Y19197D01*
X14930Y19222D01*
X14932Y19247D01*
X14937Y19272D01*
X14946Y19296D01*
X14958Y19318D01*
X14973Y19339D01*
X14991Y19357D01*
X15012Y19372D01*
X15034Y19384D01*
X15058Y19393D01*
X15083Y19398D01*
X15108Y19400D01*
X15392Y19400D01*
X15417Y19398D01*
X15442Y19393D01*
X15466Y19384D01*
X15488Y19372D01*
X15509Y19357D01*
X15527Y19339D01*
X15542Y19318D01*
X15554Y19296D01*
X15563Y19272D01*
X15568Y19247D01*
X15570Y19222D01*
X15568Y19197D01*
X15563Y19172D01*
X15554Y19148D01*
X15542Y19126D01*
X15527Y19105D01*
X15509Y19087D01*
X15488Y19072D01*
X15466Y19060D01*
X15442Y19051D01*
X15417Y19046D01*
X15392Y19044D01*
X15930Y14490D02*
X16392Y14490D01*
X16417Y14492D01*
X16442Y14497D01*
X16466Y14506D01*
X16488Y14518D01*
X16509Y14533D01*
X16527Y14551D01*
X16542Y14572D01*
X16554Y14594D01*
X16563Y14618D01*
X16568Y14643D01*
X16570Y14668D01*
X16568Y14693D01*
X16563Y14718D01*
X16554Y14742D01*
X16542Y14764D01*
X16527Y14785D01*
X16509Y14803D01*
X16488Y14818D01*
X16466Y14830D01*
X16442Y14839D01*
X16417Y14844D01*
X16392Y14846D01*
X15930Y14846D01*
X16570Y15267D02*
X16570Y15409D01*
X16570Y15267D02*
X16568Y15245D01*
X16563Y15223D01*
X16555Y15203D01*
X16543Y15184D01*
X16528Y15167D01*
X16511Y15152D01*
X16492Y15140D01*
X16472Y15132D01*
X16450Y15127D01*
X16428Y15125D01*
X16428Y15124D02*
X16072Y15124D01*
X16072Y15125D02*
X16050Y15127D01*
X16028Y15132D01*
X16008Y15140D01*
X15989Y15152D01*
X15972Y15167D01*
X15957Y15184D01*
X15945Y15203D01*
X15937Y15223D01*
X15932Y15245D01*
X15930Y15267D01*
X15930Y15409D01*
X15930Y15817D02*
X16570Y15603D01*
X16570Y16030D02*
X15930Y15817D01*
X16410Y15977D02*
X16410Y15657D01*
X16250Y16255D02*
X16210Y16257D01*
X16171Y16261D01*
X16132Y16268D01*
X16093Y16279D01*
X16056Y16292D01*
X16019Y16308D01*
X16019Y16307D02*
X16000Y16315D01*
X15983Y16326D01*
X15968Y16340D01*
X15955Y16355D01*
X15944Y16373D01*
X15936Y16392D01*
X15932Y16412D01*
X15930Y16432D01*
X15932Y16452D01*
X15936Y16472D01*
X15944Y16491D01*
X15955Y16509D01*
X15968Y16524D01*
X15983Y16538D01*
X16000Y16549D01*
X16019Y16557D01*
X16019Y16556D02*
X16056Y16572D01*
X16093Y16585D01*
X16132Y16596D01*
X16171Y16603D01*
X16210Y16607D01*
X16250Y16609D01*
X16250Y16255D02*
X16290Y16257D01*
X16329Y16261D01*
X16368Y16268D01*
X16407Y16279D01*
X16444Y16292D01*
X16481Y16308D01*
X16481Y16307D02*
X16500Y16315D01*
X16517Y16326D01*
X16532Y16340D01*
X16545Y16355D01*
X16556Y16373D01*
X16564Y16392D01*
X16568Y16412D01*
X16570Y16432D01*
X16481Y16556D02*
X16444Y16572D01*
X16407Y16585D01*
X16368Y16596D01*
X16329Y16603D01*
X16290Y16607D01*
X16250Y16609D01*
X16481Y16557D02*
X16500Y16549D01*
X16517Y16538D01*
X16532Y16524D01*
X16545Y16509D01*
X16556Y16491D01*
X16564Y16472D01*
X16568Y16452D01*
X16570Y16432D01*
X16428Y16290D02*
X16072Y16574D01*
X16641Y16844D02*
X16641Y17128D01*
X16570Y17388D02*
X15930Y17388D01*
X16286Y17601D01*
X15930Y17815D01*
X16570Y17815D01*
X16392Y18100D02*
X16108Y18100D01*
X16083Y18102D01*
X16058Y18107D01*
X16034Y18116D01*
X16012Y18128D01*
X15991Y18143D01*
X15973Y18161D01*
X15958Y18182D01*
X15946Y18204D01*
X15937Y18228D01*
X15932Y18253D01*
X15930Y18278D01*
X15932Y18303D01*
X15937Y18328D01*
X15946Y18352D01*
X15958Y18374D01*
X15973Y18395D01*
X15991Y18413D01*
X16012Y18428D01*
X16034Y18440D01*
X16058Y18449D01*
X16083Y18454D01*
X16108Y18456D01*
X16392Y18456D01*
X16417Y18454D01*
X16442Y18449D01*
X16466Y18440D01*
X16488Y18428D01*
X16509Y18413D01*
X16527Y18395D01*
X16542Y18374D01*
X16554Y18352D01*
X16563Y18328D01*
X16568Y18303D01*
X16570Y18278D01*
X16568Y18253D01*
X16563Y18228D01*
X16554Y18204D01*
X16542Y18182D01*
X16527Y18161D01*
X16509Y18143D01*
X16488Y18128D01*
X16466Y18116D01*
X16442Y18107D01*
X16417Y18102D01*
X16392Y18100D01*
X16570Y18909D02*
X16568Y18931D01*
X16563Y18953D01*
X16555Y18973D01*
X16543Y18992D01*
X16528Y19009D01*
X16511Y19024D01*
X16492Y19036D01*
X16472Y19044D01*
X16450Y19049D01*
X16428Y19051D01*
X16570Y18909D02*
X16568Y18875D01*
X16562Y18842D01*
X16553Y18809D01*
X16540Y18778D01*
X16524Y18749D01*
X16504Y18721D01*
X16481Y18696D01*
X16072Y18713D02*
X16050Y18715D01*
X16028Y18720D01*
X16008Y18728D01*
X15989Y18740D01*
X15972Y18755D01*
X15957Y18772D01*
X15945Y18791D01*
X15937Y18811D01*
X15932Y18833D01*
X15930Y18855D01*
X15932Y18884D01*
X15936Y18912D01*
X15944Y18939D01*
X15954Y18966D01*
X15967Y18991D01*
X15983Y19015D01*
X16072Y18713D02*
X16093Y18715D01*
X16114Y18719D01*
X16134Y18727D01*
X16153Y18738D01*
X16169Y18751D01*
X16184Y18766D01*
X16196Y18784D01*
X16304Y18979D02*
X16316Y18997D01*
X16331Y19012D01*
X16347Y19025D01*
X16366Y19036D01*
X16386Y19044D01*
X16407Y19048D01*
X16428Y19050D01*
X16303Y18980D02*
X16197Y18784D01*
X15930Y19345D02*
X16570Y19345D01*
X16570Y19274D02*
X16570Y19416D01*
X15930Y19416D02*
X15930Y19274D01*
X16930Y14490D02*
X17392Y14490D01*
X17417Y14492D01*
X17442Y14497D01*
X17466Y14506D01*
X17488Y14518D01*
X17509Y14533D01*
X17527Y14551D01*
X17542Y14572D01*
X17554Y14594D01*
X17563Y14618D01*
X17568Y14643D01*
X17570Y14668D01*
X17568Y14693D01*
X17563Y14718D01*
X17554Y14742D01*
X17542Y14764D01*
X17527Y14785D01*
X17509Y14803D01*
X17488Y14818D01*
X17466Y14830D01*
X17442Y14839D01*
X17417Y14844D01*
X17392Y14846D01*
X16930Y14846D01*
X17570Y15267D02*
X17570Y15409D01*
X17570Y15267D02*
X17568Y15245D01*
X17563Y15223D01*
X17555Y15203D01*
X17543Y15184D01*
X17528Y15167D01*
X17511Y15152D01*
X17492Y15140D01*
X17472Y15132D01*
X17450Y15127D01*
X17428Y15125D01*
X17428Y15124D02*
X17072Y15124D01*
X17072Y15125D02*
X17050Y15127D01*
X17028Y15132D01*
X17008Y15140D01*
X16989Y15152D01*
X16972Y15167D01*
X16957Y15184D01*
X16945Y15203D01*
X16937Y15223D01*
X16932Y15245D01*
X16930Y15267D01*
X16930Y15409D01*
X16930Y15817D02*
X17570Y15603D01*
X17570Y16030D02*
X16930Y15817D01*
X17410Y15977D02*
X17410Y15657D01*
X17250Y16255D02*
X17210Y16257D01*
X17171Y16261D01*
X17132Y16268D01*
X17093Y16279D01*
X17056Y16292D01*
X17019Y16308D01*
X17019Y16307D02*
X17000Y16315D01*
X16983Y16326D01*
X16968Y16340D01*
X16955Y16355D01*
X16944Y16373D01*
X16936Y16392D01*
X16932Y16412D01*
X16930Y16432D01*
X16932Y16452D01*
X16936Y16472D01*
X16944Y16491D01*
X16955Y16509D01*
X16968Y16524D01*
X16983Y16538D01*
X17000Y16549D01*
X17019Y16557D01*
X17019Y16556D02*
X17056Y16572D01*
X17093Y16585D01*
X17132Y16596D01*
X17171Y16603D01*
X17210Y16607D01*
X17250Y16609D01*
X17250Y16255D02*
X17290Y16257D01*
X17329Y16261D01*
X17368Y16268D01*
X17407Y16279D01*
X17444Y16292D01*
X17481Y16308D01*
X17481Y16307D02*
X17500Y16315D01*
X17517Y16326D01*
X17532Y16340D01*
X17545Y16355D01*
X17556Y16373D01*
X17564Y16392D01*
X17568Y16412D01*
X17570Y16432D01*
X17481Y16556D02*
X17444Y16572D01*
X17407Y16585D01*
X17368Y16596D01*
X17329Y16603D01*
X17290Y16607D01*
X17250Y16609D01*
X17481Y16557D02*
X17500Y16549D01*
X17517Y16538D01*
X17532Y16524D01*
X17545Y16509D01*
X17556Y16491D01*
X17564Y16472D01*
X17568Y16452D01*
X17570Y16432D01*
X17428Y16290D02*
X17072Y16574D01*
X17641Y16844D02*
X17641Y17128D01*
X17570Y17503D02*
X17570Y17645D01*
X17570Y17503D02*
X17568Y17481D01*
X17563Y17459D01*
X17555Y17439D01*
X17543Y17420D01*
X17528Y17403D01*
X17511Y17388D01*
X17492Y17376D01*
X17472Y17368D01*
X17450Y17363D01*
X17428Y17361D01*
X17428Y17360D02*
X17072Y17360D01*
X17072Y17361D02*
X17050Y17363D01*
X17028Y17368D01*
X17008Y17376D01*
X16989Y17388D01*
X16972Y17403D01*
X16957Y17420D01*
X16945Y17439D01*
X16937Y17459D01*
X16932Y17481D01*
X16930Y17503D01*
X16930Y17645D01*
X16930Y17896D02*
X17570Y17896D01*
X17570Y18181D01*
X17570Y18437D02*
X16930Y18437D01*
X16930Y18792D02*
X17321Y18437D01*
X17179Y18579D02*
X17570Y18792D01*
X14392Y14490D02*
X13930Y14490D01*
X14392Y14490D02*
X14417Y14492D01*
X14442Y14497D01*
X14466Y14506D01*
X14488Y14518D01*
X14509Y14533D01*
X14527Y14551D01*
X14542Y14572D01*
X14554Y14594D01*
X14563Y14618D01*
X14568Y14643D01*
X14570Y14668D01*
X14568Y14693D01*
X14563Y14718D01*
X14554Y14742D01*
X14542Y14764D01*
X14527Y14785D01*
X14509Y14803D01*
X14488Y14818D01*
X14466Y14830D01*
X14442Y14839D01*
X14417Y14844D01*
X14392Y14846D01*
X13930Y14846D01*
X14570Y15267D02*
X14570Y15409D01*
X14570Y15267D02*
X14568Y15245D01*
X14563Y15223D01*
X14555Y15203D01*
X14543Y15184D01*
X14528Y15167D01*
X14511Y15152D01*
X14492Y15140D01*
X14472Y15132D01*
X14450Y15127D01*
X14428Y15125D01*
X14428Y15124D02*
X14072Y15124D01*
X14072Y15125D02*
X14050Y15127D01*
X14028Y15132D01*
X14008Y15140D01*
X13989Y15152D01*
X13972Y15167D01*
X13957Y15184D01*
X13945Y15203D01*
X13937Y15223D01*
X13932Y15245D01*
X13930Y15267D01*
X13930Y15409D01*
X13930Y15817D02*
X14570Y15603D01*
X14570Y16030D02*
X13930Y15817D01*
X14410Y15977D02*
X14410Y15657D01*
X14250Y16255D02*
X14210Y16257D01*
X14171Y16261D01*
X14132Y16268D01*
X14093Y16279D01*
X14056Y16292D01*
X14019Y16308D01*
X14019Y16307D02*
X14000Y16315D01*
X13983Y16326D01*
X13968Y16340D01*
X13955Y16355D01*
X13944Y16373D01*
X13936Y16392D01*
X13932Y16412D01*
X13930Y16432D01*
X13932Y16452D01*
X13936Y16472D01*
X13944Y16491D01*
X13955Y16509D01*
X13968Y16524D01*
X13983Y16538D01*
X14000Y16549D01*
X14019Y16557D01*
X14019Y16556D02*
X14056Y16572D01*
X14093Y16585D01*
X14132Y16596D01*
X14171Y16603D01*
X14210Y16607D01*
X14250Y16609D01*
X14250Y16255D02*
X14290Y16257D01*
X14329Y16261D01*
X14368Y16268D01*
X14407Y16279D01*
X14444Y16292D01*
X14481Y16308D01*
X14481Y16307D02*
X14500Y16315D01*
X14517Y16326D01*
X14532Y16340D01*
X14545Y16355D01*
X14556Y16373D01*
X14564Y16392D01*
X14568Y16412D01*
X14570Y16432D01*
X14481Y16556D02*
X14444Y16572D01*
X14407Y16585D01*
X14368Y16596D01*
X14329Y16603D01*
X14290Y16607D01*
X14250Y16609D01*
X14481Y16557D02*
X14500Y16549D01*
X14517Y16538D01*
X14532Y16524D01*
X14545Y16509D01*
X14556Y16491D01*
X14564Y16472D01*
X14568Y16452D01*
X14570Y16432D01*
X14428Y16290D02*
X14072Y16574D01*
X14641Y16844D02*
X14641Y17128D01*
X14570Y17503D02*
X14570Y17645D01*
X14570Y17503D02*
X14568Y17481D01*
X14563Y17459D01*
X14555Y17439D01*
X14543Y17420D01*
X14528Y17403D01*
X14511Y17388D01*
X14492Y17376D01*
X14472Y17368D01*
X14450Y17363D01*
X14428Y17361D01*
X14428Y17360D02*
X14072Y17360D01*
X14072Y17361D02*
X14050Y17363D01*
X14028Y17368D01*
X14008Y17376D01*
X13989Y17388D01*
X13972Y17403D01*
X13957Y17420D01*
X13945Y17439D01*
X13937Y17459D01*
X13932Y17481D01*
X13930Y17503D01*
X13930Y17645D01*
X14428Y18210D02*
X14450Y18208D01*
X14472Y18203D01*
X14492Y18195D01*
X14511Y18183D01*
X14528Y18168D01*
X14543Y18151D01*
X14555Y18132D01*
X14563Y18112D01*
X14568Y18090D01*
X14570Y18068D01*
X14568Y18034D01*
X14562Y18001D01*
X14553Y17968D01*
X14540Y17937D01*
X14524Y17908D01*
X14504Y17880D01*
X14481Y17855D01*
X14072Y17872D02*
X14050Y17874D01*
X14028Y17879D01*
X14008Y17887D01*
X13989Y17899D01*
X13972Y17914D01*
X13957Y17931D01*
X13945Y17950D01*
X13937Y17970D01*
X13932Y17992D01*
X13930Y18014D01*
X13932Y18043D01*
X13936Y18071D01*
X13944Y18098D01*
X13954Y18125D01*
X13967Y18150D01*
X13983Y18174D01*
X14072Y17872D02*
X14093Y17874D01*
X14114Y17878D01*
X14134Y17886D01*
X14153Y17897D01*
X14169Y17910D01*
X14184Y17925D01*
X14196Y17943D01*
X14304Y18138D02*
X14316Y18156D01*
X14331Y18171D01*
X14347Y18184D01*
X14366Y18195D01*
X14386Y18203D01*
X14407Y18207D01*
X14428Y18209D01*
X14303Y18139D02*
X14197Y17943D01*
X18321Y14917D02*
X18321Y14490D01*
X18534Y14703D02*
X18108Y14703D01*
X18570Y15182D02*
X18570Y15395D01*
X18568Y15417D01*
X18563Y15439D01*
X18555Y15459D01*
X18543Y15478D01*
X18528Y15495D01*
X18511Y15510D01*
X18492Y15522D01*
X18472Y15530D01*
X18450Y15535D01*
X18428Y15537D01*
X18428Y15538D02*
X18357Y15538D01*
X18357Y15537D02*
X18335Y15535D01*
X18313Y15530D01*
X18293Y15522D01*
X18274Y15510D01*
X18257Y15495D01*
X18242Y15478D01*
X18230Y15459D01*
X18222Y15439D01*
X18217Y15417D01*
X18215Y15395D01*
X18214Y15395D02*
X18214Y15182D01*
X17930Y15182D01*
X17930Y15538D01*
X17930Y15762D02*
X18570Y15975D01*
X17930Y16188D01*
X20430Y14703D02*
X20928Y14703D01*
X20950Y14701D01*
X20972Y14696D01*
X20992Y14688D01*
X21011Y14676D01*
X21028Y14661D01*
X21043Y14644D01*
X21055Y14625D01*
X21063Y14605D01*
X21068Y14583D01*
X21070Y14561D01*
X21070Y14490D01*
X21070Y15118D02*
X20430Y15118D01*
X20430Y14941D02*
X20430Y15296D01*
X20430Y15693D02*
X21070Y15479D01*
X21070Y15906D02*
X20430Y15693D01*
X20910Y15853D02*
X20910Y15533D01*
X20714Y16400D02*
X20714Y16506D01*
X21070Y16506D01*
X21070Y16293D01*
X21068Y16271D01*
X21063Y16249D01*
X21055Y16229D01*
X21043Y16210D01*
X21028Y16193D01*
X21011Y16178D01*
X20992Y16166D01*
X20972Y16158D01*
X20950Y16153D01*
X20928Y16151D01*
X20572Y16151D01*
X20550Y16153D01*
X20528Y16158D01*
X20508Y16166D01*
X20489Y16178D01*
X20472Y16193D01*
X20457Y16210D01*
X20445Y16229D01*
X20437Y16249D01*
X20432Y16271D01*
X20430Y16293D01*
X20430Y16506D01*
X21141Y16761D02*
X21141Y17045D01*
X21070Y17420D02*
X21070Y17562D01*
X21070Y17420D02*
X21068Y17398D01*
X21063Y17376D01*
X21055Y17356D01*
X21043Y17337D01*
X21028Y17320D01*
X21011Y17305D01*
X20992Y17293D01*
X20972Y17285D01*
X20950Y17280D01*
X20928Y17278D01*
X20572Y17278D01*
X20550Y17280D01*
X20528Y17285D01*
X20508Y17293D01*
X20489Y17305D01*
X20472Y17320D01*
X20457Y17337D01*
X20445Y17356D01*
X20437Y17376D01*
X20432Y17398D01*
X20430Y17420D01*
X20430Y17562D01*
X20430Y17814D02*
X21070Y17814D01*
X21070Y18098D01*
X21070Y18354D02*
X20430Y18354D01*
X20430Y18710D02*
X20821Y18354D01*
X20679Y18496D02*
X21070Y18710D01*
X21430Y14703D02*
X21928Y14703D01*
X21950Y14701D01*
X21972Y14696D01*
X21992Y14688D01*
X22011Y14676D01*
X22028Y14661D01*
X22043Y14644D01*
X22055Y14625D01*
X22063Y14605D01*
X22068Y14583D01*
X22070Y14561D01*
X22070Y14490D01*
X22070Y15118D02*
X21430Y15118D01*
X21430Y14941D02*
X21430Y15296D01*
X21430Y15693D02*
X22070Y15479D01*
X22070Y15906D02*
X21430Y15693D01*
X21910Y15853D02*
X21910Y15533D01*
X21714Y16400D02*
X21714Y16506D01*
X22070Y16506D01*
X22070Y16293D01*
X22068Y16271D01*
X22063Y16249D01*
X22055Y16229D01*
X22043Y16210D01*
X22028Y16193D01*
X22011Y16178D01*
X21992Y16166D01*
X21972Y16158D01*
X21950Y16153D01*
X21928Y16151D01*
X21572Y16151D01*
X21550Y16153D01*
X21528Y16158D01*
X21508Y16166D01*
X21489Y16178D01*
X21472Y16193D01*
X21457Y16210D01*
X21445Y16229D01*
X21437Y16249D01*
X21432Y16271D01*
X21430Y16293D01*
X21430Y16506D01*
X22141Y16761D02*
X22141Y17045D01*
X22070Y17305D02*
X21430Y17305D01*
X21786Y17518D01*
X21430Y17732D01*
X22070Y17732D01*
X21892Y18018D02*
X21608Y18018D01*
X21608Y18017D02*
X21583Y18019D01*
X21558Y18024D01*
X21534Y18033D01*
X21512Y18045D01*
X21491Y18060D01*
X21473Y18078D01*
X21458Y18099D01*
X21446Y18121D01*
X21437Y18145D01*
X21432Y18170D01*
X21430Y18195D01*
X21432Y18220D01*
X21437Y18245D01*
X21446Y18269D01*
X21458Y18291D01*
X21473Y18312D01*
X21491Y18330D01*
X21512Y18345D01*
X21534Y18357D01*
X21558Y18366D01*
X21583Y18371D01*
X21608Y18373D01*
X21892Y18373D01*
X21917Y18371D01*
X21942Y18366D01*
X21966Y18357D01*
X21988Y18345D01*
X22009Y18330D01*
X22027Y18312D01*
X22042Y18291D01*
X22054Y18269D01*
X22063Y18245D01*
X22068Y18220D01*
X22070Y18195D01*
X22068Y18170D01*
X22063Y18145D01*
X22054Y18121D01*
X22042Y18099D01*
X22027Y18078D01*
X22009Y18060D01*
X21988Y18045D01*
X21966Y18033D01*
X21942Y18024D01*
X21917Y18019D01*
X21892Y18017D01*
X22070Y18653D02*
X21430Y18653D01*
X21430Y18831D01*
X21432Y18856D01*
X21437Y18881D01*
X21446Y18905D01*
X21458Y18927D01*
X21473Y18948D01*
X21491Y18966D01*
X21512Y18981D01*
X21534Y18993D01*
X21558Y19002D01*
X21583Y19007D01*
X21608Y19009D01*
X21892Y19009D01*
X21917Y19007D01*
X21942Y19002D01*
X21966Y18993D01*
X21988Y18981D01*
X22009Y18966D01*
X22027Y18948D01*
X22042Y18927D01*
X22054Y18905D01*
X22063Y18881D01*
X22068Y18856D01*
X22070Y18831D01*
X22070Y18653D01*
X22430Y14703D02*
X22928Y14703D01*
X22950Y14701D01*
X22972Y14696D01*
X22992Y14688D01*
X23011Y14676D01*
X23028Y14661D01*
X23043Y14644D01*
X23055Y14625D01*
X23063Y14605D01*
X23068Y14583D01*
X23070Y14561D01*
X23070Y14490D01*
X23070Y15118D02*
X22430Y15118D01*
X22430Y14941D02*
X22430Y15296D01*
X22430Y15693D02*
X23070Y15479D01*
X23070Y15906D02*
X22430Y15693D01*
X22910Y15853D02*
X22910Y15533D01*
X22714Y16400D02*
X22714Y16506D01*
X23070Y16506D01*
X23070Y16293D01*
X23068Y16271D01*
X23063Y16249D01*
X23055Y16229D01*
X23043Y16210D01*
X23028Y16193D01*
X23011Y16178D01*
X22992Y16166D01*
X22972Y16158D01*
X22950Y16153D01*
X22928Y16151D01*
X22572Y16151D01*
X22550Y16153D01*
X22528Y16158D01*
X22508Y16166D01*
X22489Y16178D01*
X22472Y16193D01*
X22457Y16210D01*
X22445Y16229D01*
X22437Y16249D01*
X22432Y16271D01*
X22430Y16293D01*
X22430Y16506D01*
X23141Y16761D02*
X23141Y17045D01*
X23070Y17334D02*
X22430Y17334D01*
X23070Y17263D02*
X23070Y17405D01*
X22430Y17405D02*
X22430Y17263D01*
X22430Y17669D02*
X23070Y17669D01*
X23070Y18024D02*
X22430Y17669D01*
X22430Y18024D02*
X23070Y18024D01*
X23430Y14703D02*
X23928Y14703D01*
X23950Y14701D01*
X23972Y14696D01*
X23992Y14688D01*
X24011Y14676D01*
X24028Y14661D01*
X24043Y14644D01*
X24055Y14625D01*
X24063Y14605D01*
X24068Y14583D01*
X24070Y14561D01*
X24070Y14490D01*
X24070Y15118D02*
X23430Y15118D01*
X23430Y14941D02*
X23430Y15296D01*
X23430Y15693D02*
X24070Y15479D01*
X24070Y15906D02*
X23430Y15693D01*
X23910Y15853D02*
X23910Y15533D01*
X23714Y16400D02*
X23714Y16506D01*
X24070Y16506D01*
X24070Y16293D01*
X24068Y16271D01*
X24063Y16249D01*
X24055Y16229D01*
X24043Y16210D01*
X24028Y16193D01*
X24011Y16178D01*
X23992Y16166D01*
X23972Y16158D01*
X23950Y16153D01*
X23928Y16151D01*
X23572Y16151D01*
X23550Y16153D01*
X23528Y16158D01*
X23508Y16166D01*
X23489Y16178D01*
X23472Y16193D01*
X23457Y16210D01*
X23445Y16229D01*
X23437Y16249D01*
X23432Y16271D01*
X23430Y16293D01*
X23430Y16506D01*
X24141Y16761D02*
X24141Y17045D01*
X23892Y17279D02*
X23608Y17279D01*
X23583Y17281D01*
X23558Y17286D01*
X23534Y17295D01*
X23512Y17307D01*
X23491Y17322D01*
X23473Y17340D01*
X23458Y17361D01*
X23446Y17383D01*
X23437Y17407D01*
X23432Y17432D01*
X23430Y17457D01*
X23432Y17482D01*
X23437Y17507D01*
X23446Y17531D01*
X23458Y17553D01*
X23473Y17574D01*
X23491Y17592D01*
X23512Y17607D01*
X23534Y17619D01*
X23558Y17628D01*
X23583Y17633D01*
X23608Y17635D01*
X23892Y17635D01*
X23917Y17633D01*
X23942Y17628D01*
X23966Y17619D01*
X23988Y17607D01*
X24009Y17592D01*
X24027Y17574D01*
X24042Y17553D01*
X24054Y17531D01*
X24063Y17507D01*
X24068Y17482D01*
X24070Y17457D01*
X24068Y17432D01*
X24063Y17407D01*
X24054Y17383D01*
X24042Y17361D01*
X24027Y17340D01*
X24009Y17322D01*
X23988Y17307D01*
X23966Y17295D01*
X23942Y17286D01*
X23917Y17281D01*
X23892Y17279D01*
X23892Y17915D02*
X23430Y17915D01*
X23892Y17915D02*
X23917Y17917D01*
X23942Y17922D01*
X23966Y17931D01*
X23988Y17943D01*
X24009Y17958D01*
X24027Y17976D01*
X24042Y17997D01*
X24054Y18019D01*
X24063Y18043D01*
X24068Y18068D01*
X24070Y18093D01*
X24068Y18118D01*
X24063Y18143D01*
X24054Y18167D01*
X24042Y18189D01*
X24027Y18210D01*
X24009Y18228D01*
X23988Y18243D01*
X23966Y18255D01*
X23942Y18264D01*
X23917Y18269D01*
X23892Y18271D01*
X23430Y18271D01*
X23430Y18688D02*
X24070Y18688D01*
X23430Y18510D02*
X23430Y18865D01*
X24430Y14703D02*
X24928Y14703D01*
X24950Y14701D01*
X24972Y14696D01*
X24992Y14688D01*
X25011Y14676D01*
X25028Y14661D01*
X25043Y14644D01*
X25055Y14625D01*
X25063Y14605D01*
X25068Y14583D01*
X25070Y14561D01*
X25070Y14490D01*
X25070Y15118D02*
X24430Y15118D01*
X24430Y14941D02*
X24430Y15296D01*
X24430Y15693D02*
X25070Y15479D01*
X25070Y15906D02*
X24430Y15693D01*
X24910Y15853D02*
X24910Y15533D01*
X24714Y16400D02*
X24714Y16506D01*
X25070Y16506D01*
X25070Y16293D01*
X25068Y16271D01*
X25063Y16249D01*
X25055Y16229D01*
X25043Y16210D01*
X25028Y16193D01*
X25011Y16178D01*
X24992Y16166D01*
X24972Y16158D01*
X24950Y16153D01*
X24928Y16151D01*
X24572Y16151D01*
X24550Y16153D01*
X24528Y16158D01*
X24508Y16166D01*
X24489Y16178D01*
X24472Y16193D01*
X24457Y16210D01*
X24445Y16229D01*
X24437Y16249D01*
X24432Y16271D01*
X24430Y16293D01*
X24430Y16506D01*
X25141Y16761D02*
X25141Y17045D01*
X25070Y17472D02*
X25068Y17494D01*
X25063Y17516D01*
X25055Y17536D01*
X25043Y17555D01*
X25028Y17572D01*
X25011Y17587D01*
X24992Y17599D01*
X24972Y17607D01*
X24950Y17612D01*
X24928Y17614D01*
X25070Y17472D02*
X25068Y17438D01*
X25062Y17405D01*
X25053Y17372D01*
X25040Y17341D01*
X25024Y17312D01*
X25004Y17284D01*
X24981Y17259D01*
X24572Y17277D02*
X24550Y17279D01*
X24528Y17284D01*
X24508Y17292D01*
X24489Y17304D01*
X24472Y17319D01*
X24457Y17336D01*
X24445Y17355D01*
X24437Y17375D01*
X24432Y17397D01*
X24430Y17419D01*
X24432Y17448D01*
X24436Y17476D01*
X24444Y17503D01*
X24454Y17530D01*
X24467Y17555D01*
X24483Y17579D01*
X24572Y17277D02*
X24593Y17279D01*
X24614Y17283D01*
X24634Y17291D01*
X24653Y17302D01*
X24669Y17315D01*
X24684Y17330D01*
X24696Y17348D01*
X24804Y17543D02*
X24816Y17561D01*
X24831Y17576D01*
X24847Y17589D01*
X24866Y17600D01*
X24886Y17608D01*
X24907Y17612D01*
X24928Y17614D01*
X24803Y17543D02*
X24697Y17347D01*
X25070Y17875D02*
X25070Y18160D01*
X25070Y17875D02*
X24430Y17875D01*
X24430Y18160D01*
X24714Y18088D02*
X24714Y17875D01*
X24430Y18408D02*
X25070Y18408D01*
X25070Y18693D01*
X25380Y4239D02*
X25807Y4239D01*
X25593Y4026D02*
X25593Y4452D01*
X26072Y3990D02*
X26285Y3990D01*
X26307Y3992D01*
X26329Y3997D01*
X26349Y4005D01*
X26368Y4017D01*
X26385Y4032D01*
X26400Y4049D01*
X26412Y4068D01*
X26420Y4088D01*
X26425Y4110D01*
X26427Y4132D01*
X26428Y4132D02*
X26428Y4203D01*
X26427Y4203D02*
X26425Y4225D01*
X26420Y4247D01*
X26412Y4267D01*
X26400Y4286D01*
X26385Y4303D01*
X26368Y4318D01*
X26349Y4330D01*
X26329Y4338D01*
X26307Y4343D01*
X26285Y4345D01*
X26285Y4346D02*
X26072Y4346D01*
X26072Y4630D01*
X26428Y4630D01*
X26652Y4630D02*
X26865Y3990D01*
X27078Y4630D01*
X25736Y1346D02*
X25629Y1346D01*
X25736Y1346D02*
X25736Y990D01*
X25522Y990D01*
X25500Y992D01*
X25478Y997D01*
X25458Y1005D01*
X25439Y1017D01*
X25422Y1032D01*
X25407Y1049D01*
X25395Y1068D01*
X25387Y1088D01*
X25382Y1110D01*
X25380Y1132D01*
X25380Y1488D01*
X25382Y1510D01*
X25387Y1532D01*
X25395Y1552D01*
X25407Y1571D01*
X25422Y1588D01*
X25439Y1603D01*
X25458Y1615D01*
X25478Y1623D01*
X25500Y1628D01*
X25522Y1630D01*
X25736Y1630D01*
X26036Y1630D02*
X26036Y990D01*
X26392Y990D02*
X26036Y1630D01*
X26392Y1630D02*
X26392Y990D01*
X26693Y990D02*
X26693Y1630D01*
X26871Y1630D01*
X26896Y1628D01*
X26921Y1623D01*
X26945Y1614D01*
X26967Y1602D01*
X26988Y1587D01*
X27006Y1569D01*
X27021Y1548D01*
X27033Y1526D01*
X27042Y1502D01*
X27047Y1477D01*
X27049Y1452D01*
X27048Y1452D02*
X27048Y1168D01*
X27049Y1168D02*
X27047Y1143D01*
X27042Y1118D01*
X27033Y1094D01*
X27021Y1072D01*
X27006Y1051D01*
X26988Y1033D01*
X26967Y1018D01*
X26945Y1006D01*
X26921Y997D01*
X26896Y992D01*
X26871Y990D01*
X26693Y990D01*
X25686Y9856D02*
X25579Y9856D01*
X25686Y9856D02*
X25686Y9500D01*
X25472Y9500D01*
X25450Y9502D01*
X25428Y9507D01*
X25408Y9515D01*
X25389Y9527D01*
X25372Y9542D01*
X25357Y9559D01*
X25345Y9578D01*
X25337Y9598D01*
X25332Y9620D01*
X25330Y9642D01*
X25330Y9998D01*
X25332Y10020D01*
X25337Y10042D01*
X25345Y10062D01*
X25357Y10081D01*
X25372Y10098D01*
X25389Y10113D01*
X25408Y10125D01*
X25428Y10133D01*
X25450Y10138D01*
X25472Y10140D01*
X25686Y10140D01*
X25995Y10140D02*
X25995Y9500D01*
X25995Y10140D02*
X26173Y10140D01*
X26198Y10138D01*
X26223Y10133D01*
X26247Y10124D01*
X26269Y10112D01*
X26290Y10097D01*
X26308Y10079D01*
X26323Y10058D01*
X26335Y10036D01*
X26344Y10012D01*
X26349Y9987D01*
X26351Y9962D01*
X26349Y9937D01*
X26344Y9912D01*
X26335Y9888D01*
X26323Y9866D01*
X26308Y9845D01*
X26290Y9827D01*
X26269Y9812D01*
X26247Y9800D01*
X26223Y9791D01*
X26198Y9786D01*
X26173Y9784D01*
X25995Y9784D01*
X26636Y9500D02*
X26636Y10140D01*
X26565Y9500D02*
X26707Y9500D01*
X26707Y10140D02*
X26565Y10140D01*
X26951Y9962D02*
X26951Y9678D01*
X26950Y9962D02*
X26952Y9987D01*
X26957Y10012D01*
X26966Y10036D01*
X26978Y10058D01*
X26993Y10079D01*
X27011Y10097D01*
X27032Y10112D01*
X27054Y10124D01*
X27078Y10133D01*
X27103Y10138D01*
X27128Y10140D01*
X27153Y10138D01*
X27178Y10133D01*
X27202Y10124D01*
X27224Y10112D01*
X27245Y10097D01*
X27263Y10079D01*
X27278Y10058D01*
X27290Y10036D01*
X27299Y10012D01*
X27304Y9987D01*
X27306Y9962D01*
X27306Y9678D01*
X27304Y9653D01*
X27299Y9628D01*
X27290Y9604D01*
X27278Y9582D01*
X27263Y9561D01*
X27245Y9543D01*
X27224Y9528D01*
X27202Y9516D01*
X27178Y9507D01*
X27153Y9502D01*
X27128Y9500D01*
X27103Y9502D01*
X27078Y9507D01*
X27054Y9516D01*
X27032Y9528D01*
X27011Y9543D01*
X26993Y9561D01*
X26978Y9582D01*
X26966Y9604D01*
X26957Y9628D01*
X26952Y9653D01*
X26950Y9678D01*
X27540Y9429D02*
X27824Y9429D01*
X28058Y9500D02*
X28272Y9500D01*
X28294Y9502D01*
X28316Y9507D01*
X28336Y9515D01*
X28355Y9527D01*
X28372Y9542D01*
X28387Y9559D01*
X28399Y9578D01*
X28407Y9598D01*
X28412Y9620D01*
X28414Y9642D01*
X28414Y9713D01*
X28412Y9735D01*
X28407Y9757D01*
X28399Y9777D01*
X28387Y9796D01*
X28372Y9813D01*
X28355Y9828D01*
X28336Y9840D01*
X28316Y9848D01*
X28294Y9853D01*
X28272Y9855D01*
X28272Y9856D02*
X28058Y9856D01*
X28058Y10140D01*
X28414Y10140D01*
X28674Y9500D02*
X28887Y9500D01*
X28909Y9502D01*
X28931Y9507D01*
X28951Y9515D01*
X28970Y9527D01*
X28987Y9542D01*
X29002Y9559D01*
X29014Y9578D01*
X29022Y9598D01*
X29027Y9620D01*
X29029Y9642D01*
X29029Y9713D01*
X29027Y9735D01*
X29022Y9757D01*
X29014Y9777D01*
X29002Y9796D01*
X28987Y9813D01*
X28970Y9828D01*
X28951Y9840D01*
X28931Y9848D01*
X28909Y9853D01*
X28887Y9855D01*
X28887Y9856D02*
X28674Y9856D01*
X28674Y10140D01*
X29029Y10140D01*
X25686Y10856D02*
X25579Y10856D01*
X25686Y10856D02*
X25686Y10500D01*
X25472Y10500D01*
X25450Y10502D01*
X25428Y10507D01*
X25408Y10515D01*
X25389Y10527D01*
X25372Y10542D01*
X25357Y10559D01*
X25345Y10578D01*
X25337Y10598D01*
X25332Y10620D01*
X25330Y10642D01*
X25330Y10998D01*
X25332Y11020D01*
X25337Y11042D01*
X25345Y11062D01*
X25357Y11081D01*
X25372Y11098D01*
X25389Y11113D01*
X25408Y11125D01*
X25428Y11133D01*
X25450Y11138D01*
X25472Y11140D01*
X25686Y11140D01*
X25995Y11140D02*
X25995Y10500D01*
X25995Y11140D02*
X26173Y11140D01*
X26198Y11138D01*
X26223Y11133D01*
X26247Y11124D01*
X26269Y11112D01*
X26290Y11097D01*
X26308Y11079D01*
X26323Y11058D01*
X26335Y11036D01*
X26344Y11012D01*
X26349Y10987D01*
X26351Y10962D01*
X26349Y10937D01*
X26344Y10912D01*
X26335Y10888D01*
X26323Y10866D01*
X26308Y10845D01*
X26290Y10827D01*
X26269Y10812D01*
X26247Y10800D01*
X26223Y10791D01*
X26198Y10786D01*
X26173Y10784D01*
X25995Y10784D01*
X26636Y10500D02*
X26636Y11140D01*
X26565Y10500D02*
X26707Y10500D01*
X26707Y11140D02*
X26565Y11140D01*
X26951Y10962D02*
X26951Y10678D01*
X26950Y10962D02*
X26952Y10987D01*
X26957Y11012D01*
X26966Y11036D01*
X26978Y11058D01*
X26993Y11079D01*
X27011Y11097D01*
X27032Y11112D01*
X27054Y11124D01*
X27078Y11133D01*
X27103Y11138D01*
X27128Y11140D01*
X27153Y11138D01*
X27178Y11133D01*
X27202Y11124D01*
X27224Y11112D01*
X27245Y11097D01*
X27263Y11079D01*
X27278Y11058D01*
X27290Y11036D01*
X27299Y11012D01*
X27304Y10987D01*
X27306Y10962D01*
X27306Y10678D01*
X27304Y10653D01*
X27299Y10628D01*
X27290Y10604D01*
X27278Y10582D01*
X27263Y10561D01*
X27245Y10543D01*
X27224Y10528D01*
X27202Y10516D01*
X27178Y10507D01*
X27153Y10502D01*
X27128Y10500D01*
X27103Y10502D01*
X27078Y10507D01*
X27054Y10516D01*
X27032Y10528D01*
X27011Y10543D01*
X26993Y10561D01*
X26978Y10582D01*
X26966Y10604D01*
X26957Y10628D01*
X26952Y10653D01*
X26950Y10678D01*
X27540Y10429D02*
X27824Y10429D01*
X28058Y10500D02*
X28272Y10500D01*
X28294Y10502D01*
X28316Y10507D01*
X28336Y10515D01*
X28355Y10527D01*
X28372Y10542D01*
X28387Y10559D01*
X28399Y10578D01*
X28407Y10598D01*
X28412Y10620D01*
X28414Y10642D01*
X28414Y10713D01*
X28412Y10735D01*
X28407Y10757D01*
X28399Y10777D01*
X28387Y10796D01*
X28372Y10813D01*
X28355Y10828D01*
X28336Y10840D01*
X28316Y10848D01*
X28294Y10853D01*
X28272Y10855D01*
X28272Y10856D02*
X28058Y10856D01*
X28058Y11140D01*
X28414Y11140D01*
X28816Y10784D02*
X29029Y10784D01*
X28816Y10785D02*
X28794Y10787D01*
X28772Y10792D01*
X28752Y10800D01*
X28733Y10812D01*
X28716Y10827D01*
X28701Y10844D01*
X28689Y10863D01*
X28681Y10883D01*
X28676Y10905D01*
X28674Y10927D01*
X28674Y10962D01*
X28673Y10962D02*
X28675Y10987D01*
X28680Y11012D01*
X28689Y11036D01*
X28701Y11058D01*
X28716Y11079D01*
X28734Y11097D01*
X28755Y11112D01*
X28777Y11124D01*
X28801Y11133D01*
X28826Y11138D01*
X28851Y11140D01*
X28876Y11138D01*
X28901Y11133D01*
X28925Y11124D01*
X28947Y11112D01*
X28968Y11097D01*
X28986Y11079D01*
X29001Y11058D01*
X29013Y11036D01*
X29022Y11012D01*
X29027Y10987D01*
X29029Y10962D01*
X29029Y10784D01*
X29027Y10752D01*
X29022Y10721D01*
X29013Y10690D01*
X29001Y10661D01*
X28985Y10633D01*
X28967Y10607D01*
X28946Y10583D01*
X28922Y10562D01*
X28896Y10544D01*
X28868Y10528D01*
X28839Y10516D01*
X28808Y10507D01*
X28777Y10502D01*
X28745Y10500D01*
X25686Y11856D02*
X25579Y11856D01*
X25686Y11856D02*
X25686Y11500D01*
X25472Y11500D01*
X25450Y11502D01*
X25428Y11507D01*
X25408Y11515D01*
X25389Y11527D01*
X25372Y11542D01*
X25357Y11559D01*
X25345Y11578D01*
X25337Y11598D01*
X25332Y11620D01*
X25330Y11642D01*
X25330Y11998D01*
X25332Y12020D01*
X25337Y12042D01*
X25345Y12062D01*
X25357Y12081D01*
X25372Y12098D01*
X25389Y12113D01*
X25408Y12125D01*
X25428Y12133D01*
X25450Y12138D01*
X25472Y12140D01*
X25686Y12140D01*
X25995Y12140D02*
X25995Y11500D01*
X25995Y12140D02*
X26173Y12140D01*
X26198Y12138D01*
X26223Y12133D01*
X26247Y12124D01*
X26269Y12112D01*
X26290Y12097D01*
X26308Y12079D01*
X26323Y12058D01*
X26335Y12036D01*
X26344Y12012D01*
X26349Y11987D01*
X26351Y11962D01*
X26349Y11937D01*
X26344Y11912D01*
X26335Y11888D01*
X26323Y11866D01*
X26308Y11845D01*
X26290Y11827D01*
X26269Y11812D01*
X26247Y11800D01*
X26223Y11791D01*
X26198Y11786D01*
X26173Y11784D01*
X25995Y11784D01*
X26636Y11500D02*
X26636Y12140D01*
X26565Y11500D02*
X26707Y11500D01*
X26707Y12140D02*
X26565Y12140D01*
X26951Y11962D02*
X26951Y11678D01*
X26950Y11962D02*
X26952Y11987D01*
X26957Y12012D01*
X26966Y12036D01*
X26978Y12058D01*
X26993Y12079D01*
X27011Y12097D01*
X27032Y12112D01*
X27054Y12124D01*
X27078Y12133D01*
X27103Y12138D01*
X27128Y12140D01*
X27153Y12138D01*
X27178Y12133D01*
X27202Y12124D01*
X27224Y12112D01*
X27245Y12097D01*
X27263Y12079D01*
X27278Y12058D01*
X27290Y12036D01*
X27299Y12012D01*
X27304Y11987D01*
X27306Y11962D01*
X27306Y11678D01*
X27304Y11653D01*
X27299Y11628D01*
X27290Y11604D01*
X27278Y11582D01*
X27263Y11561D01*
X27245Y11543D01*
X27224Y11528D01*
X27202Y11516D01*
X27178Y11507D01*
X27153Y11502D01*
X27128Y11500D01*
X27103Y11502D01*
X27078Y11507D01*
X27054Y11516D01*
X27032Y11528D01*
X27011Y11543D01*
X26993Y11561D01*
X26978Y11582D01*
X26966Y11604D01*
X26957Y11628D01*
X26952Y11653D01*
X26950Y11678D01*
X27540Y11429D02*
X27824Y11429D01*
X28058Y11856D02*
X28272Y11856D01*
X28272Y11855D02*
X28294Y11853D01*
X28316Y11848D01*
X28336Y11840D01*
X28355Y11828D01*
X28372Y11813D01*
X28387Y11796D01*
X28399Y11777D01*
X28407Y11757D01*
X28412Y11735D01*
X28414Y11713D01*
X28414Y11678D01*
X28412Y11653D01*
X28407Y11628D01*
X28398Y11604D01*
X28386Y11582D01*
X28371Y11561D01*
X28353Y11543D01*
X28332Y11528D01*
X28310Y11516D01*
X28286Y11507D01*
X28261Y11502D01*
X28236Y11500D01*
X28211Y11502D01*
X28186Y11507D01*
X28162Y11516D01*
X28140Y11528D01*
X28119Y11543D01*
X28101Y11561D01*
X28086Y11582D01*
X28074Y11604D01*
X28065Y11628D01*
X28060Y11653D01*
X28058Y11678D01*
X28058Y11856D01*
X28059Y11856D02*
X28061Y11888D01*
X28066Y11919D01*
X28075Y11950D01*
X28087Y11979D01*
X28103Y12007D01*
X28121Y12033D01*
X28142Y12057D01*
X28166Y12078D01*
X28192Y12096D01*
X28220Y12112D01*
X28249Y12124D01*
X28280Y12133D01*
X28311Y12138D01*
X28343Y12140D01*
X28727Y12051D02*
X28711Y12014D01*
X28698Y11977D01*
X28687Y11939D01*
X28680Y11899D01*
X28676Y11860D01*
X28674Y11820D01*
X28726Y12051D02*
X28734Y12070D01*
X28745Y12087D01*
X28759Y12102D01*
X28774Y12115D01*
X28792Y12126D01*
X28811Y12134D01*
X28831Y12138D01*
X28851Y12140D01*
X28871Y12138D01*
X28891Y12134D01*
X28910Y12126D01*
X28928Y12115D01*
X28943Y12102D01*
X28957Y12087D01*
X28968Y12070D01*
X28976Y12051D01*
X28992Y12014D01*
X29005Y11977D01*
X29016Y11939D01*
X29023Y11899D01*
X29027Y11860D01*
X29029Y11820D01*
X28674Y11820D02*
X28676Y11780D01*
X28680Y11741D01*
X28687Y11702D01*
X28698Y11663D01*
X28711Y11626D01*
X28727Y11589D01*
X28726Y11589D02*
X28734Y11570D01*
X28745Y11553D01*
X28759Y11538D01*
X28774Y11525D01*
X28792Y11514D01*
X28811Y11506D01*
X28831Y11502D01*
X28851Y11500D01*
X28976Y11589D02*
X28992Y11626D01*
X29005Y11663D01*
X29016Y11702D01*
X29023Y11741D01*
X29027Y11780D01*
X29029Y11820D01*
X28976Y11589D02*
X28968Y11570D01*
X28957Y11553D01*
X28943Y11538D01*
X28928Y11525D01*
X28910Y11514D01*
X28891Y11506D01*
X28871Y11502D01*
X28851Y11500D01*
X28709Y11642D02*
X28994Y11998D01*
D12*
X4850Y21960D02*
X4850Y27210D01*
X11850Y27210D01*
X11850Y21960D01*
X12350Y21960D02*
X12350Y27210D01*
X19350Y27210D01*
X19350Y21960D01*
X19850Y27210D02*
X25850Y27210D01*
X25850Y21960D01*
X19850Y21960D02*
X19850Y27210D01*
X32500Y17000D02*
X38000Y17000D01*
X38000Y13250D01*
X32500Y13250D01*
X32500Y12750D02*
X38000Y12750D01*
X38000Y5750D01*
X32500Y5750D01*
X32500Y5000D02*
X38000Y5000D01*
X38000Y250D01*
D11*
X2570Y14632D02*
X2570Y14774D01*
X2570Y14632D02*
X2568Y14610D01*
X2563Y14588D01*
X2555Y14568D01*
X2543Y14549D01*
X2528Y14532D01*
X2511Y14517D01*
X2492Y14505D01*
X2472Y14497D01*
X2450Y14492D01*
X2428Y14490D01*
X2072Y14490D01*
X2050Y14492D01*
X2028Y14497D01*
X2008Y14505D01*
X1989Y14517D01*
X1972Y14532D01*
X1957Y14549D01*
X1945Y14568D01*
X1937Y14588D01*
X1932Y14610D01*
X1930Y14632D01*
X1930Y14774D01*
X2108Y15004D02*
X2392Y15004D01*
X2108Y15004D02*
X2083Y15006D01*
X2058Y15011D01*
X2034Y15020D01*
X2012Y15032D01*
X1991Y15047D01*
X1973Y15065D01*
X1958Y15086D01*
X1946Y15108D01*
X1937Y15132D01*
X1932Y15157D01*
X1930Y15182D01*
X1932Y15207D01*
X1937Y15232D01*
X1946Y15256D01*
X1958Y15278D01*
X1973Y15299D01*
X1991Y15317D01*
X2012Y15332D01*
X2034Y15344D01*
X2058Y15353D01*
X2083Y15358D01*
X2108Y15360D01*
X2392Y15360D01*
X2417Y15358D01*
X2442Y15353D01*
X2466Y15344D01*
X2488Y15332D01*
X2509Y15317D01*
X2527Y15299D01*
X2542Y15278D01*
X2554Y15256D01*
X2563Y15232D01*
X2568Y15207D01*
X2570Y15182D01*
X2568Y15157D01*
X2563Y15132D01*
X2554Y15108D01*
X2542Y15086D01*
X2527Y15065D01*
X2509Y15047D01*
X2488Y15032D01*
X2466Y15020D01*
X2442Y15011D01*
X2417Y15006D01*
X2392Y15004D01*
X2570Y15640D02*
X1930Y15640D01*
X2570Y15996D01*
X1930Y15996D01*
X1930Y16413D02*
X2570Y16413D01*
X1930Y16235D02*
X1930Y16591D01*
X2641Y16784D02*
X2641Y17068D01*
X2570Y17357D02*
X1930Y17357D01*
X2570Y17428D02*
X2570Y17285D01*
X1930Y17285D02*
X1930Y17428D01*
X1930Y17692D02*
X2570Y17692D01*
X2570Y18047D02*
X1930Y17692D01*
X1930Y18047D02*
X2570Y18047D01*
X1570Y14774D02*
X1570Y14632D01*
X1568Y14610D01*
X1563Y14588D01*
X1555Y14568D01*
X1543Y14549D01*
X1528Y14532D01*
X1511Y14517D01*
X1492Y14505D01*
X1472Y14497D01*
X1450Y14492D01*
X1428Y14490D01*
X1072Y14490D01*
X1050Y14492D01*
X1028Y14497D01*
X1008Y14505D01*
X989Y14517D01*
X972Y14532D01*
X957Y14549D01*
X945Y14568D01*
X937Y14588D01*
X932Y14610D01*
X930Y14632D01*
X930Y14774D01*
X1108Y15004D02*
X1392Y15004D01*
X1108Y15004D02*
X1083Y15006D01*
X1058Y15011D01*
X1034Y15020D01*
X1012Y15032D01*
X991Y15047D01*
X973Y15065D01*
X958Y15086D01*
X946Y15108D01*
X937Y15132D01*
X932Y15157D01*
X930Y15182D01*
X932Y15207D01*
X937Y15232D01*
X946Y15256D01*
X958Y15278D01*
X973Y15299D01*
X991Y15317D01*
X1012Y15332D01*
X1034Y15344D01*
X1058Y15353D01*
X1083Y15358D01*
X1108Y15360D01*
X1392Y15360D01*
X1417Y15358D01*
X1442Y15353D01*
X1466Y15344D01*
X1488Y15332D01*
X1509Y15317D01*
X1527Y15299D01*
X1542Y15278D01*
X1554Y15256D01*
X1563Y15232D01*
X1568Y15207D01*
X1570Y15182D01*
X1568Y15157D01*
X1563Y15132D01*
X1554Y15108D01*
X1542Y15086D01*
X1527Y15065D01*
X1509Y15047D01*
X1488Y15032D01*
X1466Y15020D01*
X1442Y15011D01*
X1417Y15006D01*
X1392Y15004D01*
X1570Y15640D02*
X930Y15640D01*
X1570Y15996D01*
X930Y15996D01*
X930Y16413D02*
X1570Y16413D01*
X930Y16235D02*
X930Y16591D01*
X1641Y16784D02*
X1641Y17068D01*
X1392Y17302D02*
X1108Y17302D01*
X1083Y17304D01*
X1058Y17309D01*
X1034Y17318D01*
X1012Y17330D01*
X991Y17345D01*
X973Y17363D01*
X958Y17384D01*
X946Y17406D01*
X937Y17430D01*
X932Y17455D01*
X930Y17480D01*
X932Y17505D01*
X937Y17530D01*
X946Y17554D01*
X958Y17576D01*
X973Y17597D01*
X991Y17615D01*
X1012Y17630D01*
X1034Y17642D01*
X1058Y17651D01*
X1083Y17656D01*
X1108Y17658D01*
X1108Y17657D02*
X1392Y17657D01*
X1392Y17658D02*
X1417Y17656D01*
X1442Y17651D01*
X1466Y17642D01*
X1488Y17630D01*
X1509Y17615D01*
X1527Y17597D01*
X1542Y17576D01*
X1554Y17554D01*
X1563Y17530D01*
X1568Y17505D01*
X1570Y17480D01*
X1568Y17455D01*
X1563Y17430D01*
X1554Y17406D01*
X1542Y17384D01*
X1527Y17363D01*
X1509Y17345D01*
X1488Y17330D01*
X1466Y17318D01*
X1442Y17309D01*
X1417Y17304D01*
X1392Y17302D01*
X1392Y17938D02*
X930Y17938D01*
X1392Y17938D02*
X1417Y17940D01*
X1442Y17945D01*
X1466Y17954D01*
X1488Y17966D01*
X1509Y17981D01*
X1527Y17999D01*
X1542Y18020D01*
X1554Y18042D01*
X1563Y18066D01*
X1568Y18091D01*
X1570Y18116D01*
X1568Y18141D01*
X1563Y18166D01*
X1554Y18190D01*
X1542Y18212D01*
X1527Y18233D01*
X1509Y18251D01*
X1488Y18266D01*
X1466Y18278D01*
X1442Y18287D01*
X1417Y18292D01*
X1392Y18294D01*
X1392Y18293D02*
X930Y18293D01*
X930Y18710D02*
X1570Y18710D01*
X930Y18533D02*
X930Y18888D01*
X3570Y14774D02*
X3570Y14632D01*
X3568Y14610D01*
X3563Y14588D01*
X3555Y14568D01*
X3543Y14549D01*
X3528Y14532D01*
X3511Y14517D01*
X3492Y14505D01*
X3472Y14497D01*
X3450Y14492D01*
X3428Y14490D01*
X3072Y14490D01*
X3050Y14492D01*
X3028Y14497D01*
X3008Y14505D01*
X2989Y14517D01*
X2972Y14532D01*
X2957Y14549D01*
X2945Y14568D01*
X2937Y14588D01*
X2932Y14610D01*
X2930Y14632D01*
X2930Y14774D01*
X3108Y15004D02*
X3392Y15004D01*
X3108Y15004D02*
X3083Y15006D01*
X3058Y15011D01*
X3034Y15020D01*
X3012Y15032D01*
X2991Y15047D01*
X2973Y15065D01*
X2958Y15086D01*
X2946Y15108D01*
X2937Y15132D01*
X2932Y15157D01*
X2930Y15182D01*
X2932Y15207D01*
X2937Y15232D01*
X2946Y15256D01*
X2958Y15278D01*
X2973Y15299D01*
X2991Y15317D01*
X3012Y15332D01*
X3034Y15344D01*
X3058Y15353D01*
X3083Y15358D01*
X3108Y15360D01*
X3392Y15360D01*
X3417Y15358D01*
X3442Y15353D01*
X3466Y15344D01*
X3488Y15332D01*
X3509Y15317D01*
X3527Y15299D01*
X3542Y15278D01*
X3554Y15256D01*
X3563Y15232D01*
X3568Y15207D01*
X3570Y15182D01*
X3568Y15157D01*
X3563Y15132D01*
X3554Y15108D01*
X3542Y15086D01*
X3527Y15065D01*
X3509Y15047D01*
X3488Y15032D01*
X3466Y15020D01*
X3442Y15011D01*
X3417Y15006D01*
X3392Y15004D01*
X3570Y15640D02*
X2930Y15640D01*
X3570Y15996D01*
X2930Y15996D01*
X2930Y16413D02*
X3570Y16413D01*
X2930Y16235D02*
X2930Y16591D01*
X3641Y16784D02*
X3641Y17068D01*
X3214Y17571D02*
X3214Y17678D01*
X3570Y17678D01*
X3570Y17465D01*
X3568Y17443D01*
X3563Y17421D01*
X3555Y17401D01*
X3543Y17382D01*
X3528Y17365D01*
X3511Y17350D01*
X3492Y17338D01*
X3472Y17330D01*
X3450Y17325D01*
X3428Y17323D01*
X3428Y17322D02*
X3072Y17322D01*
X3072Y17323D02*
X3050Y17325D01*
X3028Y17330D01*
X3008Y17338D01*
X2989Y17350D01*
X2972Y17365D01*
X2957Y17382D01*
X2945Y17401D01*
X2937Y17421D01*
X2932Y17443D01*
X2930Y17465D01*
X2930Y17678D01*
X2930Y17979D02*
X3570Y17979D01*
X3570Y18334D02*
X2930Y17979D01*
X2930Y18334D02*
X3570Y18334D01*
X3570Y18635D02*
X2930Y18635D01*
X2930Y18813D01*
X2932Y18838D01*
X2937Y18863D01*
X2946Y18887D01*
X2958Y18909D01*
X2973Y18930D01*
X2991Y18948D01*
X3012Y18963D01*
X3034Y18975D01*
X3058Y18984D01*
X3083Y18989D01*
X3108Y18991D01*
X3392Y18991D01*
X3417Y18989D01*
X3442Y18984D01*
X3466Y18975D01*
X3488Y18963D01*
X3509Y18948D01*
X3527Y18930D01*
X3542Y18909D01*
X3554Y18887D01*
X3563Y18863D01*
X3568Y18838D01*
X3570Y18813D01*
X3570Y18635D01*
D13*
X10915Y2324D02*
X10979Y2243D01*
X10915Y2324D02*
X11205Y2324D01*
X11205Y2404D02*
X11205Y2243D01*
X11060Y2531D02*
X11033Y2533D01*
X11006Y2537D01*
X10980Y2545D01*
X10955Y2555D01*
X10956Y2555D02*
X10942Y2562D01*
X10931Y2571D01*
X10922Y2583D01*
X10917Y2597D01*
X10915Y2612D01*
X10917Y2627D01*
X10922Y2641D01*
X10931Y2653D01*
X10942Y2662D01*
X10956Y2669D01*
X10955Y2668D02*
X10980Y2678D01*
X11006Y2686D01*
X11033Y2690D01*
X11060Y2692D01*
X11060Y2531D02*
X11087Y2533D01*
X11114Y2537D01*
X11140Y2545D01*
X11165Y2555D01*
X11164Y2555D02*
X11178Y2562D01*
X11189Y2571D01*
X11198Y2583D01*
X11203Y2597D01*
X11205Y2612D01*
X11165Y2668D02*
X11140Y2678D01*
X11114Y2686D01*
X11087Y2690D01*
X11060Y2692D01*
X11164Y2669D02*
X11178Y2662D01*
X11189Y2653D01*
X11198Y2641D01*
X11203Y2627D01*
X11205Y2612D01*
X11141Y2547D02*
X10979Y2676D01*
X11060Y2819D02*
X11033Y2821D01*
X11006Y2825D01*
X10980Y2833D01*
X10955Y2843D01*
X10956Y2843D02*
X10942Y2850D01*
X10931Y2859D01*
X10922Y2871D01*
X10917Y2885D01*
X10915Y2900D01*
X10917Y2915D01*
X10922Y2929D01*
X10931Y2941D01*
X10942Y2950D01*
X10956Y2957D01*
X10955Y2956D02*
X10980Y2966D01*
X11006Y2974D01*
X11033Y2978D01*
X11060Y2980D01*
X11060Y2819D02*
X11087Y2821D01*
X11114Y2825D01*
X11140Y2833D01*
X11165Y2843D01*
X11164Y2843D02*
X11178Y2850D01*
X11189Y2859D01*
X11198Y2871D01*
X11203Y2885D01*
X11205Y2900D01*
X11165Y2956D02*
X11140Y2966D01*
X11114Y2974D01*
X11087Y2978D01*
X11060Y2980D01*
X11164Y2957D02*
X11178Y2950D01*
X11189Y2941D01*
X11198Y2929D01*
X11203Y2915D01*
X11205Y2900D01*
X11141Y2835D02*
X10979Y2964D01*
X11012Y3114D02*
X11205Y3114D01*
X11012Y3114D02*
X11012Y3194D01*
X11014Y3206D01*
X11018Y3218D01*
X11026Y3228D01*
X11036Y3236D01*
X11048Y3240D01*
X11060Y3242D01*
X11205Y3242D01*
X11205Y3386D02*
X10915Y3386D01*
X10915Y3515D01*
X11044Y3515D02*
X11044Y3386D01*
X9045Y5309D02*
X9109Y5535D01*
X9045Y5309D02*
X9206Y5309D01*
X9158Y5374D02*
X9158Y5245D01*
X9319Y5245D02*
X9319Y5261D01*
X9335Y5261D01*
X9335Y5245D01*
X9319Y5245D01*
X9448Y5503D02*
X9448Y5535D01*
X9609Y5535D01*
X9529Y5245D01*
X9743Y5293D02*
X9743Y5438D01*
X9743Y5293D02*
X9745Y5281D01*
X9749Y5269D01*
X9757Y5259D01*
X9767Y5251D01*
X9779Y5247D01*
X9791Y5245D01*
X9872Y5245D01*
X9872Y5438D01*
X10015Y5535D02*
X10015Y5245D01*
X10015Y5535D02*
X10144Y5535D01*
X10144Y5406D02*
X10015Y5406D01*
X7877Y5705D02*
X7813Y5479D01*
X7974Y5479D01*
X7925Y5415D02*
X7925Y5544D01*
X8101Y5673D02*
X8101Y5705D01*
X8262Y5705D01*
X8181Y5415D01*
X8389Y5560D02*
X8391Y5587D01*
X8395Y5614D01*
X8403Y5640D01*
X8413Y5665D01*
X8412Y5664D02*
X8419Y5678D01*
X8428Y5689D01*
X8440Y5698D01*
X8454Y5703D01*
X8469Y5705D01*
X8484Y5703D01*
X8498Y5698D01*
X8510Y5689D01*
X8519Y5678D01*
X8526Y5664D01*
X8526Y5665D02*
X8536Y5640D01*
X8544Y5614D01*
X8548Y5587D01*
X8550Y5560D01*
X8389Y5560D02*
X8391Y5533D01*
X8395Y5506D01*
X8403Y5480D01*
X8413Y5455D01*
X8412Y5456D02*
X8419Y5442D01*
X8428Y5431D01*
X8440Y5422D01*
X8454Y5417D01*
X8469Y5415D01*
X8526Y5455D02*
X8536Y5480D01*
X8544Y5506D01*
X8548Y5533D01*
X8550Y5560D01*
X8526Y5456D02*
X8519Y5442D01*
X8510Y5431D01*
X8498Y5422D01*
X8484Y5417D01*
X8469Y5415D01*
X8405Y5479D02*
X8534Y5641D01*
X8685Y5608D02*
X8685Y5318D01*
X8685Y5608D02*
X8765Y5608D01*
X8777Y5606D01*
X8789Y5602D01*
X8799Y5594D01*
X8807Y5584D01*
X8811Y5572D01*
X8813Y5560D01*
X8814Y5560D02*
X8814Y5463D01*
X8813Y5463D02*
X8811Y5451D01*
X8807Y5439D01*
X8799Y5429D01*
X8789Y5421D01*
X8777Y5417D01*
X8765Y5415D01*
X8685Y5415D01*
X8946Y5415D02*
X8946Y5705D01*
X9075Y5705D01*
X9075Y5576D02*
X8946Y5576D01*
X7313Y10607D02*
X7311Y10623D01*
X7306Y10639D01*
X7297Y10653D01*
X7286Y10664D01*
X7272Y10673D01*
X7256Y10678D01*
X7240Y10680D01*
X7240Y10679D02*
X7223Y10678D01*
X7207Y10673D01*
X7192Y10666D01*
X7179Y10656D01*
X7167Y10644D01*
X7158Y10630D01*
X7152Y10615D01*
X7289Y10551D02*
X7299Y10562D01*
X7307Y10576D01*
X7311Y10591D01*
X7313Y10607D01*
X7288Y10551D02*
X7151Y10389D01*
X7312Y10389D01*
X7601Y10607D02*
X7599Y10623D01*
X7594Y10639D01*
X7585Y10653D01*
X7574Y10664D01*
X7560Y10673D01*
X7544Y10678D01*
X7528Y10680D01*
X7528Y10679D02*
X7511Y10678D01*
X7495Y10673D01*
X7480Y10666D01*
X7467Y10656D01*
X7455Y10644D01*
X7446Y10630D01*
X7440Y10615D01*
X7577Y10551D02*
X7587Y10562D01*
X7595Y10576D01*
X7599Y10591D01*
X7601Y10607D01*
X7576Y10551D02*
X7439Y10389D01*
X7600Y10389D01*
X7735Y10293D02*
X7735Y10583D01*
X7816Y10583D01*
X7816Y10582D02*
X7828Y10580D01*
X7840Y10576D01*
X7850Y10568D01*
X7858Y10558D01*
X7862Y10546D01*
X7864Y10534D01*
X7864Y10438D01*
X7862Y10426D01*
X7858Y10414D01*
X7850Y10404D01*
X7840Y10396D01*
X7828Y10392D01*
X7816Y10390D01*
X7816Y10389D02*
X7735Y10389D01*
X7997Y10389D02*
X7997Y10679D01*
X8126Y10679D01*
X8126Y10551D02*
X7997Y10551D01*
X7303Y7081D02*
X7319Y7079D01*
X7335Y7074D01*
X7349Y7065D01*
X7360Y7054D01*
X7369Y7040D01*
X7374Y7024D01*
X7376Y7008D01*
X7303Y7080D02*
X7286Y7079D01*
X7270Y7074D01*
X7255Y7067D01*
X7242Y7057D01*
X7230Y7045D01*
X7221Y7031D01*
X7215Y7016D01*
X7352Y6952D02*
X7362Y6963D01*
X7370Y6977D01*
X7374Y6992D01*
X7376Y7008D01*
X7351Y6952D02*
X7214Y6791D01*
X7376Y6791D01*
X7664Y7008D02*
X7662Y7024D01*
X7657Y7040D01*
X7648Y7054D01*
X7637Y7065D01*
X7623Y7074D01*
X7607Y7079D01*
X7591Y7081D01*
X7591Y7080D02*
X7574Y7079D01*
X7558Y7074D01*
X7543Y7067D01*
X7530Y7057D01*
X7518Y7045D01*
X7509Y7031D01*
X7503Y7016D01*
X7640Y6952D02*
X7650Y6963D01*
X7658Y6977D01*
X7662Y6992D01*
X7664Y7008D01*
X7639Y6952D02*
X7502Y6791D01*
X7664Y6791D01*
X7799Y6694D02*
X7799Y6984D01*
X7879Y6984D01*
X7891Y6982D01*
X7903Y6978D01*
X7913Y6970D01*
X7921Y6960D01*
X7925Y6948D01*
X7927Y6936D01*
X7927Y6839D01*
X7925Y6827D01*
X7921Y6815D01*
X7913Y6805D01*
X7903Y6797D01*
X7891Y6793D01*
X7879Y6791D01*
X7799Y6791D01*
X8060Y6791D02*
X8060Y7081D01*
X8189Y7081D01*
X8189Y6952D02*
X8060Y6952D01*
D14*
X14000Y13328D02*
X14002Y13350D01*
X14007Y13370D01*
X14017Y13390D01*
X14029Y13408D01*
X14044Y13423D01*
X14062Y13435D01*
X14082Y13445D01*
X14102Y13450D01*
X14124Y13452D01*
X14146Y13450D01*
X14166Y13445D01*
X14186Y13435D01*
X14204Y13423D01*
X14219Y13408D01*
X14231Y13390D01*
X14241Y13370D01*
X14246Y13350D01*
X14248Y13328D01*
X14246Y13306D01*
X14241Y13286D01*
X14231Y13266D01*
X14219Y13248D01*
X14204Y13233D01*
X14186Y13221D01*
X14166Y13211D01*
X14146Y13206D01*
X14124Y13204D01*
X14102Y13206D01*
X14082Y13211D01*
X14062Y13221D01*
X14044Y13233D01*
X14029Y13248D01*
X14017Y13266D01*
X14007Y13286D01*
X14002Y13306D01*
X14000Y13328D01*
D11*
X10050Y6760D02*
X9650Y6760D01*
X14550Y6760D02*
X14550Y7160D01*
X14550Y11660D02*
X14150Y11660D01*
X9650Y11660D02*
X9650Y11260D01*
X9650Y7160D02*
X9650Y6760D01*
X14150Y6760D02*
X14550Y6760D01*
X14550Y11260D02*
X14550Y11660D01*
X10050Y11660D02*
X9650Y11660D01*
D13*
X8849Y11434D02*
X8849Y11278D01*
X8940Y11160D01*
X8849Y11278D02*
X8757Y11160D01*
X8849Y11278D02*
X8992Y11330D01*
X8849Y11278D02*
X8705Y11330D01*
X11825Y9945D02*
X11825Y9606D01*
X11827Y9584D01*
X11832Y9563D01*
X11841Y9544D01*
X11853Y9526D01*
X11867Y9510D01*
X11884Y9496D01*
X11903Y9486D01*
X11924Y9479D01*
X11945Y9475D01*
X11967Y9475D01*
X11988Y9479D01*
X12009Y9486D01*
X12028Y9496D01*
X12045Y9510D01*
X12059Y9526D01*
X12071Y9544D01*
X12080Y9563D01*
X12085Y9584D01*
X12087Y9606D01*
X12086Y9606D02*
X12086Y9945D01*
X12290Y9841D02*
X12421Y9945D01*
X12421Y9475D01*
X12551Y9475D02*
X12290Y9475D01*
X21140Y946D02*
X21430Y1043D01*
X21140Y1139D01*
X21140Y1250D02*
X21172Y1250D01*
X21140Y1250D02*
X21140Y1411D01*
X21430Y1331D01*
X21349Y1538D02*
X21332Y1540D01*
X21316Y1545D01*
X21301Y1553D01*
X21289Y1565D01*
X21279Y1579D01*
X21272Y1594D01*
X21268Y1611D01*
X21268Y1627D01*
X21272Y1644D01*
X21279Y1660D01*
X21289Y1673D01*
X21301Y1685D01*
X21316Y1693D01*
X21332Y1698D01*
X21349Y1700D01*
X21366Y1698D01*
X21382Y1693D01*
X21397Y1685D01*
X21409Y1673D01*
X21419Y1660D01*
X21426Y1644D01*
X21430Y1627D01*
X21430Y1611D01*
X21426Y1594D01*
X21419Y1579D01*
X21409Y1565D01*
X21397Y1553D01*
X21382Y1545D01*
X21366Y1540D01*
X21349Y1538D01*
X21204Y1555D02*
X21190Y1557D01*
X21176Y1561D01*
X21164Y1569D01*
X21154Y1579D01*
X21146Y1591D01*
X21142Y1605D01*
X21140Y1619D01*
X21142Y1633D01*
X21146Y1647D01*
X21154Y1659D01*
X21164Y1669D01*
X21176Y1677D01*
X21190Y1681D01*
X21204Y1683D01*
X21218Y1681D01*
X21232Y1677D01*
X21244Y1669D01*
X21254Y1659D01*
X21262Y1647D01*
X21266Y1633D01*
X21268Y1619D01*
X21266Y1605D01*
X21262Y1591D01*
X21254Y1579D01*
X21244Y1569D01*
X21232Y1561D01*
X21218Y1557D01*
X21204Y1555D01*
X21430Y1836D02*
X21430Y1965D01*
X21430Y1836D02*
X21140Y1836D01*
X21140Y1965D01*
X21269Y1933D02*
X21269Y1836D01*
X21285Y2076D02*
X21258Y2078D01*
X21231Y2082D01*
X21205Y2090D01*
X21180Y2100D01*
X21180Y2099D02*
X21166Y2106D01*
X21155Y2115D01*
X21146Y2127D01*
X21141Y2141D01*
X21139Y2156D01*
X21141Y2171D01*
X21146Y2185D01*
X21155Y2197D01*
X21166Y2206D01*
X21180Y2213D01*
X21205Y2223D01*
X21231Y2231D01*
X21258Y2235D01*
X21285Y2237D01*
X21285Y2076D02*
X21312Y2078D01*
X21339Y2082D01*
X21365Y2090D01*
X21390Y2100D01*
X21389Y2099D02*
X21403Y2106D01*
X21414Y2115D01*
X21423Y2127D01*
X21428Y2141D01*
X21430Y2156D01*
X21390Y2213D02*
X21365Y2223D01*
X21339Y2231D01*
X21312Y2235D01*
X21285Y2237D01*
X21389Y2213D02*
X21403Y2206D01*
X21414Y2197D01*
X21423Y2185D01*
X21428Y2171D01*
X21430Y2156D01*
X21365Y2092D02*
X21204Y2221D01*
X21430Y2364D02*
X21430Y2460D01*
X21429Y2460D02*
X21427Y2474D01*
X21423Y2488D01*
X21415Y2500D01*
X21405Y2510D01*
X21393Y2518D01*
X21379Y2522D01*
X21365Y2524D01*
X21365Y2525D02*
X21333Y2525D01*
X21333Y2524D02*
X21319Y2522D01*
X21305Y2518D01*
X21293Y2510D01*
X21283Y2500D01*
X21275Y2488D01*
X21271Y2474D01*
X21269Y2460D01*
X21269Y2364D01*
X21140Y2364D01*
X21140Y2525D01*
X21317Y2655D02*
X21317Y2848D01*
X21204Y2978D02*
X21140Y3059D01*
X21430Y3059D01*
X21430Y3139D02*
X21430Y2978D01*
X21285Y3266D02*
X21258Y3268D01*
X21231Y3272D01*
X21205Y3280D01*
X21180Y3290D01*
X21166Y3297D01*
X21155Y3306D01*
X21146Y3318D01*
X21141Y3332D01*
X21139Y3347D01*
X21141Y3362D01*
X21146Y3376D01*
X21155Y3388D01*
X21166Y3397D01*
X21180Y3404D01*
X21180Y3403D02*
X21205Y3413D01*
X21231Y3421D01*
X21258Y3425D01*
X21285Y3427D01*
X21285Y3266D02*
X21312Y3268D01*
X21339Y3272D01*
X21365Y3280D01*
X21390Y3290D01*
X21389Y3290D02*
X21403Y3297D01*
X21414Y3306D01*
X21423Y3318D01*
X21428Y3332D01*
X21430Y3347D01*
X21390Y3403D02*
X21365Y3413D01*
X21339Y3421D01*
X21312Y3425D01*
X21285Y3427D01*
X21389Y3404D02*
X21403Y3397D01*
X21414Y3388D01*
X21423Y3376D01*
X21428Y3362D01*
X21430Y3347D01*
X21365Y3282D02*
X21204Y3411D01*
X21285Y3554D02*
X21258Y3556D01*
X21231Y3560D01*
X21205Y3568D01*
X21180Y3578D01*
X21166Y3585D01*
X21155Y3594D01*
X21146Y3606D01*
X21141Y3620D01*
X21139Y3635D01*
X21141Y3650D01*
X21146Y3664D01*
X21155Y3676D01*
X21166Y3685D01*
X21180Y3692D01*
X21180Y3691D02*
X21205Y3701D01*
X21231Y3709D01*
X21258Y3713D01*
X21285Y3715D01*
X21285Y3554D02*
X21312Y3556D01*
X21339Y3560D01*
X21365Y3568D01*
X21390Y3578D01*
X21389Y3578D02*
X21403Y3585D01*
X21414Y3594D01*
X21423Y3606D01*
X21428Y3620D01*
X21430Y3635D01*
X21390Y3691D02*
X21365Y3701D01*
X21339Y3709D01*
X21312Y3713D01*
X21285Y3715D01*
X21389Y3692D02*
X21403Y3685D01*
X21414Y3676D01*
X21423Y3664D01*
X21428Y3650D01*
X21430Y3635D01*
X21365Y3570D02*
X21204Y3699D01*
X21285Y3842D02*
X21258Y3844D01*
X21231Y3848D01*
X21205Y3856D01*
X21180Y3866D01*
X21166Y3873D01*
X21155Y3882D01*
X21146Y3894D01*
X21141Y3908D01*
X21139Y3923D01*
X21141Y3938D01*
X21146Y3952D01*
X21155Y3964D01*
X21166Y3973D01*
X21180Y3980D01*
X21180Y3979D02*
X21205Y3989D01*
X21231Y3997D01*
X21258Y4001D01*
X21285Y4003D01*
X21285Y3842D02*
X21312Y3844D01*
X21339Y3848D01*
X21365Y3856D01*
X21390Y3866D01*
X21389Y3866D02*
X21403Y3873D01*
X21414Y3882D01*
X21423Y3894D01*
X21428Y3908D01*
X21430Y3923D01*
X21390Y3979D02*
X21365Y3989D01*
X21339Y3997D01*
X21312Y4001D01*
X21285Y4003D01*
X21389Y3980D02*
X21403Y3973D01*
X21414Y3964D01*
X21423Y3952D01*
X21428Y3938D01*
X21430Y3923D01*
X21365Y3858D02*
X21204Y3987D01*
X21317Y4133D02*
X21317Y4326D01*
X21429Y4544D02*
X21427Y4558D01*
X21423Y4572D01*
X21415Y4584D01*
X21405Y4594D01*
X21393Y4602D01*
X21379Y4606D01*
X21365Y4608D01*
X21430Y4544D02*
X21428Y4523D01*
X21423Y4502D01*
X21415Y4482D01*
X21404Y4464D01*
X21390Y4447D01*
X21204Y4455D02*
X21190Y4457D01*
X21176Y4461D01*
X21164Y4469D01*
X21154Y4479D01*
X21146Y4491D01*
X21142Y4505D01*
X21140Y4519D01*
X21142Y4538D01*
X21146Y4557D01*
X21154Y4575D01*
X21164Y4592D01*
X21204Y4455D02*
X21217Y4456D01*
X21230Y4461D01*
X21242Y4467D01*
X21252Y4476D01*
X21260Y4487D01*
X21309Y4576D02*
X21317Y4587D01*
X21327Y4596D01*
X21339Y4602D01*
X21352Y4607D01*
X21365Y4608D01*
X21309Y4576D02*
X21261Y4487D01*
X21140Y4738D02*
X21430Y4738D01*
X21301Y4835D02*
X21140Y4738D01*
X21301Y4835D02*
X21140Y4931D01*
X21430Y4931D01*
X21430Y5132D02*
X21140Y5132D01*
X21140Y5052D02*
X21140Y5213D01*
X21317Y5324D02*
X21317Y5517D01*
X21430Y5708D02*
X21140Y5708D01*
X21140Y5628D02*
X21140Y5789D01*
X21140Y5908D02*
X21430Y5908D01*
X21140Y5908D02*
X21140Y5989D01*
X21139Y5989D02*
X21141Y6006D01*
X21146Y6022D01*
X21154Y6037D01*
X21166Y6049D01*
X21180Y6059D01*
X21195Y6066D01*
X21212Y6070D01*
X21228Y6070D01*
X21245Y6066D01*
X21261Y6059D01*
X21274Y6049D01*
X21286Y6037D01*
X21294Y6022D01*
X21299Y6006D01*
X21301Y5989D01*
X21301Y5908D01*
X21301Y6005D02*
X21430Y6069D01*
X18736Y8055D02*
X18655Y7991D01*
X18736Y8055D02*
X18736Y7765D01*
X18816Y7765D02*
X18655Y7765D01*
X18943Y7910D02*
X18945Y7937D01*
X18949Y7964D01*
X18957Y7990D01*
X18967Y8015D01*
X18967Y8014D02*
X18974Y8028D01*
X18983Y8039D01*
X18995Y8048D01*
X19009Y8053D01*
X19024Y8055D01*
X19039Y8053D01*
X19053Y8048D01*
X19065Y8039D01*
X19074Y8028D01*
X19081Y8014D01*
X19080Y8015D02*
X19090Y7990D01*
X19098Y7964D01*
X19102Y7937D01*
X19104Y7910D01*
X18943Y7910D02*
X18945Y7883D01*
X18949Y7856D01*
X18957Y7830D01*
X18967Y7805D01*
X18967Y7806D02*
X18974Y7792D01*
X18983Y7781D01*
X18995Y7772D01*
X19009Y7767D01*
X19024Y7765D01*
X19080Y7805D02*
X19090Y7830D01*
X19098Y7856D01*
X19102Y7883D01*
X19104Y7910D01*
X19081Y7806D02*
X19074Y7792D01*
X19065Y7781D01*
X19053Y7772D01*
X19039Y7767D01*
X19024Y7765D01*
X18959Y7829D02*
X19088Y7991D01*
X19238Y7958D02*
X19238Y7813D01*
X19240Y7801D01*
X19244Y7789D01*
X19252Y7779D01*
X19262Y7771D01*
X19274Y7767D01*
X19286Y7765D01*
X19366Y7765D01*
X19366Y7958D01*
X19510Y8055D02*
X19510Y7765D01*
X19510Y8055D02*
X19639Y8055D01*
X19639Y7926D02*
X19510Y7926D01*
D10*
X12804Y803D02*
X12804Y752D01*
X12804Y803D02*
X13059Y803D01*
X12932Y343D01*
X13234Y343D02*
X13234Y368D01*
X13259Y368D01*
X13259Y343D01*
X13234Y343D01*
X13434Y343D02*
X13587Y343D01*
X13605Y345D01*
X13622Y349D01*
X13638Y357D01*
X13653Y367D01*
X13665Y379D01*
X13675Y394D01*
X13683Y410D01*
X13687Y427D01*
X13689Y445D01*
X13689Y496D01*
X13687Y514D01*
X13683Y531D01*
X13675Y547D01*
X13665Y562D01*
X13653Y574D01*
X13638Y584D01*
X13622Y592D01*
X13605Y596D01*
X13587Y598D01*
X13434Y598D01*
X13434Y803D01*
X13689Y803D01*
X13900Y803D02*
X13900Y343D01*
X13900Y496D02*
X14104Y650D01*
X13989Y560D02*
X14104Y343D01*
X14269Y445D02*
X14269Y547D01*
X14270Y547D02*
X14272Y566D01*
X14277Y584D01*
X14285Y601D01*
X14297Y616D01*
X14311Y628D01*
X14327Y638D01*
X14344Y645D01*
X14363Y649D01*
X14381Y649D01*
X14400Y645D01*
X14417Y638D01*
X14433Y628D01*
X14447Y616D01*
X14459Y601D01*
X14467Y584D01*
X14472Y566D01*
X14474Y547D01*
X14474Y445D01*
X14472Y426D01*
X14467Y408D01*
X14459Y391D01*
X14447Y376D01*
X14433Y364D01*
X14417Y354D01*
X14400Y347D01*
X14381Y343D01*
X14363Y343D01*
X14344Y347D01*
X14327Y354D01*
X14311Y364D01*
X14297Y376D01*
X14285Y391D01*
X14277Y408D01*
X14272Y426D01*
X14270Y445D01*
X14674Y343D02*
X14674Y803D01*
X14674Y650D02*
X14802Y650D01*
X14819Y648D01*
X14835Y642D01*
X14850Y633D01*
X14862Y621D01*
X14871Y606D01*
X14877Y590D01*
X14879Y573D01*
X14879Y343D01*
X15103Y343D02*
X15103Y650D01*
X15333Y650D01*
X15348Y649D01*
X15362Y644D01*
X15376Y637D01*
X15387Y627D01*
X15397Y616D01*
X15404Y602D01*
X15409Y588D01*
X15410Y573D01*
X15410Y343D01*
X15257Y343D02*
X15257Y650D01*
D13*
X14493Y2905D02*
X14205Y2987D01*
X14493Y2905D02*
X14493Y3111D01*
X14411Y3049D02*
X14575Y3049D01*
X14575Y3265D02*
X14575Y3368D01*
X14573Y3387D01*
X14568Y3405D01*
X14560Y3422D01*
X14548Y3437D01*
X14534Y3450D01*
X14518Y3460D01*
X14500Y3467D01*
X14482Y3471D01*
X14462Y3471D01*
X14444Y3467D01*
X14426Y3460D01*
X14410Y3450D01*
X14396Y3437D01*
X14384Y3422D01*
X14376Y3405D01*
X14371Y3387D01*
X14369Y3368D01*
X14205Y3388D02*
X14205Y3265D01*
X14205Y3388D02*
X14207Y3405D01*
X14212Y3421D01*
X14221Y3436D01*
X14232Y3449D01*
X14246Y3459D01*
X14262Y3466D01*
X14278Y3470D01*
X14296Y3470D01*
X14312Y3466D01*
X14328Y3459D01*
X14342Y3449D01*
X14353Y3436D01*
X14362Y3421D01*
X14367Y3405D01*
X14369Y3388D01*
X14369Y3306D01*
X14205Y3638D02*
X14575Y3638D01*
X14452Y3638D02*
X14328Y3802D01*
X14400Y3710D02*
X14575Y3802D01*
X14493Y3934D02*
X14411Y3934D01*
X14394Y3936D01*
X14378Y3941D01*
X14363Y3950D01*
X14350Y3961D01*
X14340Y3975D01*
X14333Y3991D01*
X14329Y4007D01*
X14329Y4025D01*
X14333Y4041D01*
X14340Y4057D01*
X14350Y4071D01*
X14363Y4082D01*
X14378Y4091D01*
X14394Y4096D01*
X14411Y4098D01*
X14493Y4098D01*
X14510Y4096D01*
X14526Y4091D01*
X14541Y4082D01*
X14554Y4071D01*
X14564Y4057D01*
X14571Y4041D01*
X14575Y4025D01*
X14575Y4007D01*
X14571Y3991D01*
X14564Y3975D01*
X14554Y3961D01*
X14541Y3950D01*
X14526Y3941D01*
X14510Y3936D01*
X14493Y3934D01*
X14575Y4258D02*
X14205Y4258D01*
X14328Y4258D02*
X14328Y4360D01*
X14330Y4374D01*
X14334Y4387D01*
X14342Y4399D01*
X14351Y4408D01*
X14363Y4416D01*
X14376Y4420D01*
X14390Y4422D01*
X14575Y4422D01*
X14575Y4600D02*
X14328Y4600D01*
X14328Y4785D01*
X14330Y4799D01*
X14334Y4812D01*
X14342Y4824D01*
X14351Y4833D01*
X14363Y4841D01*
X14376Y4845D01*
X14390Y4847D01*
X14575Y4847D01*
X14575Y4724D02*
X14328Y4724D01*
D10*
X3510Y8960D02*
X3050Y8960D01*
X3510Y9216D01*
X3050Y9216D01*
X3050Y9523D02*
X3510Y9523D01*
X3050Y9395D02*
X3050Y9651D01*
X3050Y9833D02*
X3510Y9833D01*
X3050Y9833D02*
X3050Y9961D01*
X3052Y9982D01*
X3057Y10003D01*
X3065Y10022D01*
X3077Y10040D01*
X3091Y10055D01*
X3108Y10068D01*
X3127Y10078D01*
X3147Y10085D01*
X3167Y10089D01*
X3189Y10089D01*
X3209Y10085D01*
X3229Y10078D01*
X3248Y10068D01*
X3265Y10055D01*
X3279Y10040D01*
X3291Y10022D01*
X3299Y10003D01*
X3304Y9982D01*
X3306Y9961D01*
X3306Y9833D01*
X3306Y9986D02*
X3510Y10088D01*
X3510Y10280D02*
X3510Y10433D01*
X3508Y10451D01*
X3504Y10468D01*
X3496Y10484D01*
X3486Y10499D01*
X3474Y10511D01*
X3459Y10521D01*
X3443Y10529D01*
X3426Y10533D01*
X3408Y10535D01*
X3408Y10536D02*
X3357Y10536D01*
X3357Y10535D02*
X3339Y10533D01*
X3322Y10529D01*
X3306Y10521D01*
X3291Y10511D01*
X3279Y10499D01*
X3269Y10484D01*
X3261Y10468D01*
X3257Y10451D01*
X3255Y10433D01*
X3254Y10433D02*
X3254Y10280D01*
X3050Y10280D01*
X3050Y10536D01*
X3152Y10730D02*
X3050Y10858D01*
X3510Y10858D01*
X3510Y10730D02*
X3510Y10986D01*
X3306Y11282D02*
X3306Y11436D01*
X3305Y11282D02*
X3303Y11264D01*
X3299Y11247D01*
X3291Y11231D01*
X3281Y11216D01*
X3269Y11204D01*
X3254Y11194D01*
X3238Y11186D01*
X3221Y11182D01*
X3203Y11180D01*
X3178Y11180D01*
X3157Y11182D01*
X3136Y11187D01*
X3117Y11195D01*
X3099Y11207D01*
X3084Y11221D01*
X3071Y11238D01*
X3061Y11257D01*
X3054Y11277D01*
X3050Y11297D01*
X3050Y11319D01*
X3054Y11339D01*
X3061Y11359D01*
X3071Y11378D01*
X3084Y11395D01*
X3099Y11409D01*
X3117Y11421D01*
X3136Y11429D01*
X3157Y11434D01*
X3178Y11436D01*
X3306Y11436D01*
X3306Y11435D02*
X3333Y11433D01*
X3359Y11428D01*
X3384Y11419D01*
X3408Y11408D01*
X3430Y11393D01*
X3450Y11375D01*
X3468Y11355D01*
X3483Y11333D01*
X3494Y11309D01*
X3503Y11284D01*
X3508Y11258D01*
X3510Y11231D01*
X3382Y11630D02*
X3361Y11632D01*
X3340Y11637D01*
X3321Y11645D01*
X3303Y11657D01*
X3288Y11671D01*
X3275Y11688D01*
X3265Y11707D01*
X3258Y11727D01*
X3254Y11747D01*
X3254Y11769D01*
X3258Y11789D01*
X3265Y11809D01*
X3275Y11828D01*
X3288Y11845D01*
X3303Y11859D01*
X3321Y11871D01*
X3340Y11879D01*
X3361Y11884D01*
X3382Y11886D01*
X3403Y11884D01*
X3424Y11879D01*
X3443Y11871D01*
X3461Y11859D01*
X3476Y11845D01*
X3489Y11828D01*
X3499Y11809D01*
X3506Y11789D01*
X3510Y11769D01*
X3510Y11747D01*
X3506Y11727D01*
X3499Y11707D01*
X3489Y11688D01*
X3476Y11671D01*
X3461Y11657D01*
X3443Y11645D01*
X3424Y11637D01*
X3403Y11632D01*
X3382Y11630D01*
X3152Y11656D02*
X3133Y11658D01*
X3115Y11663D01*
X3098Y11671D01*
X3083Y11683D01*
X3071Y11697D01*
X3061Y11713D01*
X3054Y11730D01*
X3050Y11749D01*
X3050Y11767D01*
X3054Y11786D01*
X3061Y11803D01*
X3071Y11819D01*
X3083Y11833D01*
X3098Y11845D01*
X3115Y11853D01*
X3133Y11858D01*
X3152Y11860D01*
X3171Y11858D01*
X3189Y11853D01*
X3206Y11845D01*
X3221Y11833D01*
X3233Y11819D01*
X3243Y11803D01*
X3250Y11786D01*
X3254Y11767D01*
X3254Y11749D01*
X3250Y11730D01*
X3243Y11713D01*
X3233Y11697D01*
X3221Y11683D01*
X3206Y11671D01*
X3189Y11663D01*
X3171Y11658D01*
X3152Y11656D01*
X3050Y12095D02*
X3510Y12095D01*
X3510Y12351D02*
X3050Y12095D01*
X3050Y12351D02*
X3510Y12351D01*
X3510Y12576D02*
X3050Y12576D01*
X3510Y12576D02*
X3510Y12780D01*
X3510Y13048D02*
X3050Y13048D01*
X3050Y12920D02*
X3050Y13176D01*
X3152Y13340D02*
X3050Y13468D01*
X3510Y13468D01*
X3510Y13340D02*
X3510Y13596D01*
X3254Y13984D02*
X3254Y14061D01*
X3510Y14061D01*
X3510Y13907D01*
X3508Y13889D01*
X3504Y13872D01*
X3496Y13856D01*
X3486Y13841D01*
X3474Y13829D01*
X3459Y13819D01*
X3443Y13811D01*
X3426Y13807D01*
X3408Y13805D01*
X3152Y13805D01*
X3132Y13807D01*
X3113Y13813D01*
X3095Y13822D01*
X3080Y13835D01*
X3067Y13850D01*
X3058Y13868D01*
X3052Y13887D01*
X3050Y13907D01*
X3050Y14061D01*
D14*
X1730Y7600D02*
X1730Y4100D01*
X2730Y4100D02*
X2730Y7600D01*
X2230Y4100D02*
X2230Y3900D01*
X2230Y4100D02*
X1730Y4100D01*
X2230Y7600D02*
X2230Y7800D01*
X2230Y7600D02*
X2730Y7600D01*
X2730Y4100D02*
X2230Y4100D01*
X2230Y7600D02*
X1730Y7600D01*
D11*
X12751Y3970D02*
X13329Y3970D01*
X13329Y2890D02*
X12751Y2890D01*
X12751Y3224D02*
X12751Y3636D01*
X13329Y3261D02*
X13329Y3224D01*
X13329Y3599D02*
X13329Y3636D01*
X13329Y2907D02*
X13329Y2890D01*
X13329Y3953D02*
X13329Y3970D01*
X12751Y3953D02*
X12751Y3970D01*
X12751Y2907D02*
X12751Y2890D01*
D15*
X11647Y2670D02*
X11647Y2450D01*
X11586Y2670D02*
X11708Y2670D01*
X11795Y2670D02*
X11795Y2450D01*
X11893Y2450D01*
X12036Y2450D02*
X11963Y2670D01*
X12109Y2670D02*
X12036Y2450D01*
X12191Y2646D02*
X12191Y2670D01*
X12313Y2670D01*
X12252Y2450D01*
X12407Y2450D02*
X12480Y2450D01*
X12493Y2452D01*
X12504Y2457D01*
X12515Y2464D01*
X12522Y2474D01*
X12527Y2486D01*
X12529Y2499D01*
X12529Y2523D01*
X12527Y2536D01*
X12522Y2548D01*
X12515Y2558D01*
X12505Y2565D01*
X12493Y2570D01*
X12480Y2572D01*
X12407Y2572D01*
X12407Y2670D01*
X12529Y2670D01*
X12623Y2450D02*
X12696Y2450D01*
X12709Y2452D01*
X12720Y2457D01*
X12731Y2464D01*
X12738Y2474D01*
X12743Y2486D01*
X12745Y2499D01*
X12745Y2523D01*
X12743Y2536D01*
X12738Y2548D01*
X12731Y2558D01*
X12721Y2565D01*
X12709Y2570D01*
X12696Y2572D01*
X12623Y2572D01*
X12623Y2670D01*
X12745Y2670D01*
X12839Y2450D02*
X12900Y2450D01*
X12915Y2452D01*
X12928Y2457D01*
X12940Y2465D01*
X12950Y2476D01*
X12957Y2489D01*
X12961Y2504D01*
X12961Y2518D01*
X12957Y2533D01*
X12950Y2546D01*
X12940Y2557D01*
X12928Y2565D01*
X12915Y2570D01*
X12900Y2572D01*
X12912Y2670D02*
X12839Y2670D01*
X12912Y2670D02*
X12925Y2668D01*
X12937Y2663D01*
X12947Y2656D01*
X12954Y2646D01*
X12959Y2634D01*
X12961Y2621D01*
X12959Y2608D01*
X12954Y2597D01*
X12947Y2586D01*
X12937Y2579D01*
X12925Y2574D01*
X12912Y2572D01*
X12863Y2572D01*
X13055Y2450D02*
X13116Y2450D01*
X13131Y2452D01*
X13144Y2457D01*
X13156Y2465D01*
X13166Y2476D01*
X13173Y2489D01*
X13177Y2504D01*
X13177Y2518D01*
X13173Y2533D01*
X13166Y2546D01*
X13156Y2557D01*
X13144Y2565D01*
X13131Y2570D01*
X13116Y2572D01*
X13128Y2670D02*
X13055Y2670D01*
X13128Y2670D02*
X13141Y2668D01*
X13153Y2663D01*
X13163Y2656D01*
X13170Y2646D01*
X13175Y2634D01*
X13177Y2621D01*
X13175Y2608D01*
X13170Y2597D01*
X13163Y2586D01*
X13153Y2579D01*
X13141Y2574D01*
X13128Y2572D01*
X13079Y2572D01*
X13281Y2670D02*
X13281Y2450D01*
X13281Y2670D02*
X13342Y2670D01*
X13357Y2668D01*
X13370Y2663D01*
X13382Y2655D01*
X13392Y2644D01*
X13399Y2631D01*
X13403Y2616D01*
X13403Y2602D01*
X13399Y2587D01*
X13392Y2574D01*
X13382Y2563D01*
X13370Y2555D01*
X13357Y2550D01*
X13342Y2548D01*
X13281Y2548D01*
X13494Y2450D02*
X13494Y2670D01*
X13555Y2670D01*
X13569Y2668D01*
X13581Y2664D01*
X13593Y2657D01*
X13603Y2647D01*
X13610Y2635D01*
X13614Y2623D01*
X13616Y2609D01*
X13616Y2511D01*
X13614Y2497D01*
X13610Y2485D01*
X13603Y2473D01*
X13593Y2463D01*
X13581Y2456D01*
X13569Y2452D01*
X13555Y2450D01*
X13494Y2450D01*
X13728Y2572D02*
X13789Y2572D01*
X13804Y2570D01*
X13817Y2565D01*
X13829Y2557D01*
X13839Y2546D01*
X13846Y2533D01*
X13850Y2518D01*
X13850Y2504D01*
X13846Y2489D01*
X13839Y2476D01*
X13829Y2465D01*
X13817Y2457D01*
X13804Y2452D01*
X13789Y2450D01*
X13728Y2450D01*
X13728Y2670D01*
X13789Y2670D01*
X13802Y2668D01*
X13814Y2663D01*
X13824Y2656D01*
X13831Y2646D01*
X13836Y2634D01*
X13838Y2621D01*
X13836Y2608D01*
X13831Y2597D01*
X13824Y2586D01*
X13814Y2579D01*
X13802Y2574D01*
X13789Y2572D01*
X13921Y2670D02*
X13994Y2450D01*
X14068Y2670D01*
X14158Y2670D02*
X14158Y2450D01*
X14158Y2670D02*
X14219Y2670D01*
X14234Y2668D01*
X14247Y2663D01*
X14259Y2655D01*
X14269Y2644D01*
X14276Y2631D01*
X14280Y2616D01*
X14280Y2602D01*
X14276Y2587D01*
X14269Y2574D01*
X14259Y2563D01*
X14247Y2555D01*
X14234Y2550D01*
X14219Y2548D01*
X14158Y2548D01*
X14231Y2548D02*
X14280Y2450D01*
D13*
X13321Y5217D02*
X13424Y5299D01*
X13424Y4929D01*
X13321Y4929D02*
X13527Y4929D01*
X13690Y4991D02*
X13690Y5176D01*
X13690Y4991D02*
X13692Y4977D01*
X13696Y4964D01*
X13704Y4952D01*
X13713Y4943D01*
X13725Y4935D01*
X13738Y4931D01*
X13752Y4929D01*
X13854Y4929D01*
X13854Y5176D01*
X14030Y5299D02*
X14030Y4929D01*
X14030Y5299D02*
X14194Y5299D01*
X14194Y5135D02*
X14030Y5135D01*
X11992Y3856D02*
X11909Y3958D01*
X12279Y3958D01*
X12279Y3856D02*
X12279Y4061D01*
X12218Y4224D02*
X12033Y4224D01*
X12218Y4224D02*
X12232Y4226D01*
X12245Y4230D01*
X12257Y4238D01*
X12266Y4247D01*
X12274Y4259D01*
X12278Y4272D01*
X12280Y4286D01*
X12279Y4286D02*
X12279Y4389D01*
X12033Y4389D01*
X11909Y4564D02*
X12279Y4564D01*
X11909Y4564D02*
X11909Y4729D01*
X12074Y4729D02*
X12074Y4564D01*
X16784Y8056D02*
X16800Y8054D01*
X16816Y8049D01*
X16830Y8040D01*
X16841Y8029D01*
X16850Y8015D01*
X16855Y7999D01*
X16857Y7983D01*
X16784Y8055D02*
X16767Y8054D01*
X16751Y8049D01*
X16736Y8042D01*
X16723Y8032D01*
X16711Y8020D01*
X16702Y8006D01*
X16696Y7991D01*
X16832Y7927D02*
X16842Y7938D01*
X16850Y7952D01*
X16854Y7967D01*
X16856Y7983D01*
X16832Y7926D02*
X16695Y7765D01*
X16856Y7765D01*
X17145Y7983D02*
X17143Y7999D01*
X17138Y8015D01*
X17129Y8029D01*
X17118Y8040D01*
X17104Y8049D01*
X17088Y8054D01*
X17072Y8056D01*
X17072Y8055D02*
X17055Y8054D01*
X17039Y8049D01*
X17024Y8042D01*
X17011Y8032D01*
X16999Y8020D01*
X16990Y8006D01*
X16984Y7991D01*
X17120Y7927D02*
X17130Y7938D01*
X17138Y7952D01*
X17142Y7967D01*
X17144Y7983D01*
X17120Y7926D02*
X16983Y7765D01*
X17144Y7765D01*
X17278Y7813D02*
X17278Y7958D01*
X17278Y7813D02*
X17280Y7801D01*
X17284Y7789D01*
X17292Y7779D01*
X17302Y7771D01*
X17314Y7767D01*
X17326Y7765D01*
X17406Y7765D01*
X17406Y7958D01*
X17550Y8055D02*
X17550Y7765D01*
X17550Y8055D02*
X17679Y8055D01*
X17679Y7926D02*
X17550Y7926D01*
D11*
X30030Y18600D02*
X31170Y18600D01*
X31170Y20320D02*
X30030Y20320D01*
D13*
X29569Y20388D02*
X29569Y20544D01*
X29569Y20388D02*
X29660Y20270D01*
X29569Y20388D02*
X29477Y20270D01*
X29569Y20388D02*
X29712Y20440D01*
X29569Y20388D02*
X29425Y20440D01*
X30264Y18314D02*
X30264Y17106D01*
X30264Y18314D02*
X30936Y18314D01*
X30936Y17106D01*
X30264Y17106D01*
X29264Y17106D02*
X29264Y18314D01*
X29936Y18314D01*
X29936Y17106D01*
X29264Y17106D01*
X29996Y21296D02*
X31204Y21296D01*
X31204Y20624D01*
X29996Y20624D01*
X29996Y21296D01*
X32496Y20296D02*
X33704Y20296D01*
X33704Y19624D01*
X32496Y19624D01*
X32496Y20296D01*
D16*
X33051Y19889D02*
X33051Y19832D01*
X33051Y19889D02*
X33067Y19889D01*
X33074Y19887D01*
X33080Y19883D01*
X33083Y19877D01*
X33083Y19869D01*
X33080Y19863D01*
X33074Y19859D01*
X33067Y19857D01*
X33051Y19857D01*
X33070Y19857D02*
X33083Y19832D01*
X33111Y19832D02*
X33127Y19832D01*
X33134Y19834D01*
X33140Y19838D01*
X33143Y19844D01*
X33143Y19852D01*
X33140Y19858D01*
X33134Y19862D01*
X33127Y19864D01*
X33130Y19889D02*
X33111Y19889D01*
X33130Y19889D02*
X33136Y19888D01*
X33140Y19884D01*
X33143Y19879D01*
X33143Y19873D01*
X33140Y19868D01*
X33136Y19864D01*
X33130Y19863D01*
X33117Y19863D01*
D13*
X33704Y21296D02*
X32496Y21296D01*
X33704Y21296D02*
X33704Y20624D01*
X32496Y20624D01*
X32496Y21296D01*
D16*
X32961Y21099D02*
X32961Y21042D01*
X32961Y21099D02*
X32977Y21099D01*
X32984Y21097D01*
X32990Y21093D01*
X32993Y21087D01*
X32993Y21079D01*
X32990Y21073D01*
X32984Y21069D01*
X32977Y21067D01*
X32961Y21067D01*
X32980Y21067D02*
X32993Y21042D01*
X33038Y21098D02*
X33043Y21097D01*
X33048Y21094D01*
X33051Y21089D01*
X33052Y21084D01*
X33038Y21098D02*
X33031Y21096D01*
X33025Y21092D01*
X33021Y21086D01*
X33047Y21073D02*
X33051Y21078D01*
X33052Y21084D01*
X33048Y21073D02*
X33021Y21042D01*
X33053Y21042D01*
D13*
X32496Y19296D02*
X33704Y19296D01*
X33704Y18624D01*
X32496Y18624D01*
X32496Y19296D01*
D16*
X33111Y19109D02*
X33111Y19052D01*
X33111Y19109D02*
X33127Y19109D01*
X33134Y19107D01*
X33140Y19103D01*
X33143Y19097D01*
X33143Y19089D01*
X33140Y19083D01*
X33134Y19079D01*
X33127Y19077D01*
X33111Y19077D01*
X33130Y19077D02*
X33143Y19052D01*
X33171Y19064D02*
X33184Y19109D01*
X33171Y19064D02*
X33203Y19064D01*
X33193Y19052D02*
X33193Y19077D01*
D13*
X33704Y17624D02*
X32496Y17624D01*
X32496Y18296D01*
X33704Y18296D01*
X33704Y17624D01*
D16*
X33147Y17821D02*
X33147Y17878D01*
X33163Y17878D01*
X33170Y17876D01*
X33176Y17872D01*
X33179Y17866D01*
X33179Y17858D01*
X33176Y17852D01*
X33170Y17848D01*
X33163Y17846D01*
X33163Y17847D02*
X33147Y17847D01*
X33166Y17847D02*
X33179Y17821D01*
X33207Y17821D02*
X33226Y17821D01*
X33231Y17822D01*
X33235Y17825D01*
X33238Y17829D01*
X33239Y17834D01*
X33239Y17840D01*
X33238Y17845D01*
X33235Y17849D01*
X33231Y17852D01*
X33226Y17853D01*
X33207Y17853D01*
X33207Y17878D01*
X33239Y17878D01*
D13*
X38336Y17456D02*
X38336Y18664D01*
X38336Y17456D02*
X37664Y17456D01*
X37664Y18664D01*
X38336Y18664D01*
D16*
X38139Y18107D02*
X38082Y18107D01*
X38082Y18123D01*
X38084Y18130D01*
X38088Y18136D01*
X38094Y18139D01*
X38102Y18139D01*
X38108Y18136D01*
X38112Y18130D01*
X38114Y18123D01*
X38113Y18123D02*
X38113Y18107D01*
X38113Y18126D02*
X38139Y18139D01*
X38107Y18167D02*
X38107Y18186D01*
X38108Y18191D01*
X38111Y18195D01*
X38115Y18198D01*
X38120Y18199D01*
X38123Y18199D01*
X38130Y18197D01*
X38136Y18193D01*
X38139Y18187D01*
X38139Y18179D01*
X38136Y18173D01*
X38130Y18169D01*
X38123Y18167D01*
X38107Y18167D01*
X38097Y18169D01*
X38089Y18174D01*
X38084Y18182D01*
X38082Y18192D01*
D13*
X36404Y18954D02*
X35196Y18954D01*
X35196Y19626D01*
X36404Y19626D01*
X36404Y18954D01*
D16*
X35847Y19151D02*
X35847Y19208D01*
X35863Y19208D01*
X35870Y19206D01*
X35876Y19202D01*
X35879Y19196D01*
X35879Y19188D01*
X35876Y19182D01*
X35870Y19178D01*
X35863Y19176D01*
X35863Y19177D02*
X35847Y19177D01*
X35866Y19177D02*
X35879Y19151D01*
X35907Y19202D02*
X35907Y19208D01*
X35939Y19208D01*
X35923Y19151D01*
D13*
X36796Y18964D02*
X38004Y18964D01*
X36796Y18964D02*
X36796Y19636D01*
X38004Y19636D01*
X38004Y18964D01*
D16*
X37447Y19161D02*
X37447Y19218D01*
X37463Y19218D01*
X37470Y19216D01*
X37476Y19212D01*
X37479Y19206D01*
X37479Y19198D01*
X37476Y19192D01*
X37470Y19188D01*
X37463Y19186D01*
X37463Y19187D02*
X37447Y19187D01*
X37466Y19187D02*
X37479Y19161D01*
X37507Y19177D02*
X37509Y19184D01*
X37513Y19190D01*
X37519Y19193D01*
X37527Y19193D01*
X37533Y19190D01*
X37537Y19184D01*
X37539Y19177D01*
X37537Y19170D01*
X37533Y19164D01*
X37527Y19161D01*
X37519Y19161D01*
X37513Y19164D01*
X37509Y19170D01*
X37507Y19177D01*
X37510Y19206D02*
X37511Y19212D01*
X37515Y19216D01*
X37520Y19219D01*
X37526Y19219D01*
X37531Y19216D01*
X37535Y19212D01*
X37536Y19206D01*
X37535Y19200D01*
X37531Y19196D01*
X37526Y19193D01*
X37520Y19193D01*
X37515Y19196D01*
X37511Y19200D01*
X37510Y19206D01*
D13*
X31264Y18314D02*
X31264Y17106D01*
X31264Y18314D02*
X31936Y18314D01*
X31936Y17106D01*
X31264Y17106D01*
X35014Y17456D02*
X35014Y18664D01*
X35686Y18664D01*
X35686Y17456D01*
X35014Y17456D01*
D16*
X35018Y17921D02*
X34961Y17921D01*
X34961Y17937D01*
X34963Y17944D01*
X34967Y17950D01*
X34973Y17953D01*
X34981Y17953D01*
X34987Y17950D01*
X34991Y17944D01*
X34993Y17937D01*
X34993Y17921D01*
X34993Y17940D02*
X35018Y17953D01*
X34974Y17981D02*
X34961Y17997D01*
X35018Y17997D01*
X35018Y17981D02*
X35018Y18013D01*
X34974Y18041D02*
X34961Y18057D01*
X35018Y18057D01*
X35018Y18041D02*
X35018Y18073D01*
D13*
X36006Y18646D02*
X37214Y18646D01*
X37214Y17974D01*
X36006Y17974D01*
X36006Y18646D01*
D16*
X36471Y18449D02*
X36471Y18392D01*
X36471Y18449D02*
X36487Y18449D01*
X36494Y18447D01*
X36500Y18443D01*
X36503Y18437D01*
X36503Y18429D01*
X36500Y18423D01*
X36494Y18419D01*
X36487Y18417D01*
X36471Y18417D01*
X36490Y18417D02*
X36503Y18392D01*
X36531Y18436D02*
X36547Y18449D01*
X36547Y18392D01*
X36531Y18392D02*
X36563Y18392D01*
X36609Y18448D02*
X36614Y18447D01*
X36619Y18444D01*
X36622Y18439D01*
X36623Y18434D01*
X36609Y18448D02*
X36602Y18446D01*
X36596Y18442D01*
X36592Y18436D01*
X36618Y18423D02*
X36622Y18428D01*
X36623Y18434D01*
X36618Y18423D02*
X36591Y18392D01*
X36623Y18392D01*
D11*
X29150Y24710D02*
X29150Y24910D01*
X29350Y24910D01*
X29150Y24210D02*
X29150Y24010D01*
X29350Y24010D01*
X29850Y24010D02*
X30050Y24010D01*
X30050Y24210D01*
X30050Y24710D02*
X30050Y24910D01*
X29850Y24910D01*
D14*
X29575Y22235D02*
X29125Y22235D01*
X29375Y22385D01*
X29125Y22535D01*
X29575Y22535D01*
X29450Y22755D02*
X29250Y22755D01*
X29229Y22757D01*
X29209Y22762D01*
X29191Y22770D01*
X29173Y22781D01*
X29158Y22795D01*
X29145Y22812D01*
X29136Y22830D01*
X29129Y22849D01*
X29125Y22870D01*
X29125Y22890D01*
X29129Y22911D01*
X29136Y22930D01*
X29145Y22948D01*
X29158Y22965D01*
X29173Y22979D01*
X29191Y22990D01*
X29209Y22998D01*
X29229Y23003D01*
X29250Y23005D01*
X29450Y23005D01*
X29471Y23003D01*
X29491Y22998D01*
X29509Y22990D01*
X29527Y22979D01*
X29542Y22965D01*
X29555Y22948D01*
X29564Y22930D01*
X29571Y22911D01*
X29575Y22890D01*
X29575Y22870D01*
X29571Y22849D01*
X29564Y22830D01*
X29555Y22812D01*
X29542Y22795D01*
X29527Y22781D01*
X29509Y22770D01*
X29491Y22762D01*
X29471Y22757D01*
X29450Y22755D01*
X29575Y23340D02*
X29573Y23357D01*
X29569Y23374D01*
X29562Y23390D01*
X29552Y23404D01*
X29539Y23417D01*
X29525Y23427D01*
X29509Y23434D01*
X29492Y23438D01*
X29475Y23440D01*
X29575Y23340D02*
X29573Y23312D01*
X29568Y23285D01*
X29559Y23259D01*
X29546Y23234D01*
X29531Y23211D01*
X29513Y23190D01*
X29225Y23203D02*
X29208Y23205D01*
X29191Y23209D01*
X29175Y23216D01*
X29161Y23226D01*
X29148Y23239D01*
X29138Y23253D01*
X29131Y23269D01*
X29127Y23286D01*
X29125Y23303D01*
X29127Y23327D01*
X29131Y23351D01*
X29139Y23374D01*
X29149Y23396D01*
X29163Y23416D01*
X29225Y23202D02*
X29243Y23204D01*
X29260Y23208D01*
X29276Y23215D01*
X29290Y23225D01*
X29303Y23238D01*
X29313Y23252D01*
X29387Y23390D02*
X29397Y23404D01*
X29410Y23417D01*
X29424Y23427D01*
X29440Y23434D01*
X29457Y23438D01*
X29475Y23440D01*
X29388Y23390D02*
X29313Y23253D01*
X29125Y23660D02*
X29575Y23660D01*
X29575Y23610D02*
X29575Y23710D01*
X29125Y23710D02*
X29125Y23610D01*
D11*
X30400Y24710D02*
X30400Y24910D01*
X30600Y24910D01*
X30400Y24210D02*
X30400Y24010D01*
X30600Y24010D01*
X31100Y24010D02*
X31300Y24010D01*
X31300Y24210D01*
X31300Y24710D02*
X31300Y24910D01*
X31100Y24910D01*
D14*
X30825Y22235D02*
X30375Y22235D01*
X30625Y22385D01*
X30375Y22535D01*
X30825Y22535D01*
X30825Y22790D02*
X30375Y22790D01*
X30825Y22740D02*
X30825Y22840D01*
X30375Y22840D02*
X30375Y22740D01*
X30825Y23160D02*
X30823Y23177D01*
X30819Y23194D01*
X30812Y23210D01*
X30802Y23224D01*
X30789Y23237D01*
X30775Y23247D01*
X30759Y23254D01*
X30742Y23258D01*
X30725Y23260D01*
X30825Y23160D02*
X30823Y23132D01*
X30818Y23105D01*
X30809Y23079D01*
X30796Y23054D01*
X30781Y23031D01*
X30763Y23010D01*
X30475Y23023D02*
X30458Y23025D01*
X30441Y23029D01*
X30425Y23036D01*
X30411Y23046D01*
X30398Y23059D01*
X30388Y23073D01*
X30381Y23089D01*
X30377Y23106D01*
X30375Y23123D01*
X30377Y23147D01*
X30381Y23171D01*
X30389Y23194D01*
X30399Y23216D01*
X30413Y23236D01*
X30475Y23022D02*
X30493Y23024D01*
X30510Y23028D01*
X30526Y23035D01*
X30540Y23045D01*
X30553Y23058D01*
X30563Y23072D01*
X30637Y23210D02*
X30647Y23224D01*
X30660Y23237D01*
X30674Y23247D01*
X30690Y23254D01*
X30707Y23258D01*
X30725Y23260D01*
X30638Y23210D02*
X30563Y23073D01*
X30500Y23445D02*
X30700Y23445D01*
X30500Y23445D02*
X30479Y23447D01*
X30459Y23452D01*
X30441Y23460D01*
X30423Y23471D01*
X30408Y23485D01*
X30395Y23502D01*
X30386Y23520D01*
X30379Y23539D01*
X30375Y23560D01*
X30375Y23580D01*
X30379Y23601D01*
X30386Y23620D01*
X30395Y23638D01*
X30408Y23655D01*
X30423Y23669D01*
X30441Y23680D01*
X30459Y23688D01*
X30479Y23693D01*
X30500Y23695D01*
X30700Y23695D01*
X30721Y23693D01*
X30741Y23688D01*
X30759Y23680D01*
X30777Y23669D01*
X30792Y23655D01*
X30805Y23638D01*
X30814Y23620D01*
X30821Y23601D01*
X30825Y23580D01*
X30825Y23560D01*
X30821Y23539D01*
X30814Y23520D01*
X30805Y23502D01*
X30792Y23485D01*
X30777Y23471D01*
X30759Y23460D01*
X30741Y23452D01*
X30721Y23447D01*
X30700Y23445D01*
D11*
X27900Y24710D02*
X27900Y24910D01*
X28100Y24910D01*
X27900Y24210D02*
X27900Y24010D01*
X28100Y24010D01*
X28600Y24010D02*
X28800Y24010D01*
X28800Y24210D01*
X28800Y24710D02*
X28800Y24910D01*
X28600Y24910D01*
D14*
X28225Y22485D02*
X28242Y22483D01*
X28259Y22479D01*
X28275Y22472D01*
X28289Y22462D01*
X28302Y22449D01*
X28312Y22435D01*
X28319Y22419D01*
X28323Y22402D01*
X28325Y22385D01*
X28323Y22357D01*
X28318Y22330D01*
X28309Y22304D01*
X28296Y22279D01*
X28281Y22256D01*
X28263Y22235D01*
X27975Y22248D02*
X27958Y22250D01*
X27941Y22254D01*
X27925Y22261D01*
X27911Y22271D01*
X27898Y22284D01*
X27888Y22298D01*
X27881Y22314D01*
X27877Y22331D01*
X27875Y22348D01*
X27877Y22372D01*
X27881Y22396D01*
X27889Y22419D01*
X27899Y22441D01*
X27913Y22461D01*
X27975Y22247D02*
X27993Y22249D01*
X28010Y22253D01*
X28026Y22260D01*
X28040Y22270D01*
X28053Y22283D01*
X28063Y22297D01*
X28137Y22435D02*
X28147Y22449D01*
X28160Y22462D01*
X28174Y22472D01*
X28190Y22479D01*
X28207Y22483D01*
X28225Y22485D01*
X28138Y22435D02*
X28063Y22298D01*
X28325Y22769D02*
X28325Y22869D01*
X28325Y22769D02*
X28323Y22752D01*
X28319Y22735D01*
X28312Y22719D01*
X28302Y22705D01*
X28289Y22692D01*
X28275Y22682D01*
X28259Y22675D01*
X28242Y22671D01*
X28225Y22669D01*
X27975Y22669D01*
X27958Y22671D01*
X27941Y22675D01*
X27925Y22682D01*
X27911Y22692D01*
X27898Y22705D01*
X27888Y22719D01*
X27881Y22735D01*
X27877Y22752D01*
X27875Y22769D01*
X27875Y22869D01*
X27875Y23067D02*
X28325Y23067D01*
X28150Y23067D02*
X27875Y23317D01*
X28050Y23167D02*
X28325Y23317D01*
D11*
X31650Y24710D02*
X31650Y24910D01*
X31850Y24910D01*
X31650Y24210D02*
X31650Y24010D01*
X31850Y24010D01*
X32350Y24010D02*
X32550Y24010D01*
X32550Y24210D01*
X32550Y24710D02*
X32550Y24910D01*
X32350Y24910D01*
D14*
X32075Y22435D02*
X32075Y22335D01*
X32073Y22318D01*
X32069Y22301D01*
X32062Y22285D01*
X32052Y22271D01*
X32039Y22258D01*
X32025Y22248D01*
X32009Y22241D01*
X31992Y22237D01*
X31975Y22235D01*
X31725Y22235D01*
X31708Y22237D01*
X31691Y22241D01*
X31675Y22248D01*
X31661Y22258D01*
X31648Y22271D01*
X31638Y22285D01*
X31631Y22301D01*
X31627Y22318D01*
X31625Y22335D01*
X31625Y22435D01*
X31975Y22846D02*
X31992Y22844D01*
X32009Y22840D01*
X32025Y22833D01*
X32039Y22823D01*
X32052Y22810D01*
X32062Y22796D01*
X32069Y22780D01*
X32073Y22763D01*
X32075Y22746D01*
X32073Y22718D01*
X32068Y22691D01*
X32059Y22665D01*
X32046Y22640D01*
X32031Y22617D01*
X32013Y22596D01*
X31725Y22609D02*
X31708Y22611D01*
X31691Y22615D01*
X31675Y22622D01*
X31661Y22632D01*
X31648Y22645D01*
X31638Y22659D01*
X31631Y22675D01*
X31627Y22692D01*
X31625Y22709D01*
X31627Y22733D01*
X31631Y22757D01*
X31639Y22780D01*
X31649Y22802D01*
X31663Y22822D01*
X31725Y22609D02*
X31743Y22611D01*
X31760Y22615D01*
X31776Y22622D01*
X31790Y22632D01*
X31803Y22645D01*
X31813Y22659D01*
X31887Y22797D02*
X31897Y22811D01*
X31910Y22824D01*
X31924Y22834D01*
X31940Y22841D01*
X31957Y22845D01*
X31975Y22847D01*
X31888Y22796D02*
X31813Y22659D01*
D11*
X26650Y24710D02*
X26650Y24910D01*
X26850Y24910D01*
X26650Y24210D02*
X26650Y24010D01*
X26850Y24010D01*
X27350Y24010D02*
X27550Y24010D01*
X27550Y24210D01*
X27550Y24710D02*
X27550Y24910D01*
X27350Y24910D01*
D14*
X27150Y22505D02*
X27150Y22205D01*
X27300Y22355D02*
X27000Y22355D01*
X27325Y22710D02*
X27325Y22860D01*
X27323Y22877D01*
X27319Y22894D01*
X27312Y22910D01*
X27302Y22924D01*
X27289Y22937D01*
X27275Y22947D01*
X27259Y22954D01*
X27242Y22958D01*
X27225Y22960D01*
X27175Y22960D01*
X27158Y22958D01*
X27141Y22954D01*
X27125Y22947D01*
X27111Y22937D01*
X27098Y22924D01*
X27088Y22910D01*
X27081Y22894D01*
X27077Y22877D01*
X27075Y22860D01*
X27075Y22710D01*
X26875Y22710D01*
X26875Y22960D01*
X26875Y23135D02*
X27325Y23285D01*
X26875Y23435D01*
D11*
X32870Y24050D02*
X33070Y24050D01*
X32870Y24050D02*
X32870Y24250D01*
X33570Y24050D02*
X33770Y24050D01*
X33770Y24250D01*
X33770Y24750D02*
X33770Y24950D01*
X33570Y24950D01*
X33070Y24950D02*
X32870Y24950D01*
X32870Y24750D01*
D14*
X33075Y22235D02*
X33075Y22160D01*
X33075Y22235D02*
X33325Y22235D01*
X33325Y22085D01*
X33323Y22068D01*
X33319Y22051D01*
X33312Y22035D01*
X33302Y22021D01*
X33289Y22008D01*
X33275Y21998D01*
X33259Y21991D01*
X33242Y21987D01*
X33225Y21985D01*
X32975Y21985D01*
X32958Y21987D01*
X32941Y21991D01*
X32925Y21998D01*
X32911Y22008D01*
X32898Y22021D01*
X32888Y22035D01*
X32881Y22051D01*
X32877Y22068D01*
X32875Y22085D01*
X32875Y22235D01*
X32875Y22465D02*
X33325Y22465D01*
X33325Y22715D02*
X32875Y22465D01*
X32875Y22715D02*
X33325Y22715D01*
X33325Y22945D02*
X32875Y22945D01*
X32875Y23070D01*
X32877Y23090D01*
X32881Y23109D01*
X32889Y23127D01*
X32899Y23143D01*
X32912Y23158D01*
X32927Y23171D01*
X32943Y23181D01*
X32961Y23189D01*
X32980Y23193D01*
X33000Y23195D01*
X33200Y23195D01*
X33220Y23193D01*
X33239Y23189D01*
X33257Y23181D01*
X33273Y23171D01*
X33288Y23158D01*
X33301Y23143D01*
X33311Y23127D01*
X33319Y23109D01*
X33323Y23090D01*
X33325Y23070D01*
X33325Y22945D01*
D11*
X36825Y26441D02*
X42612Y26441D01*
X42612Y21559D01*
X36825Y21559D01*
X36825Y26441D01*
D10*
X36842Y21205D02*
X36844Y21236D01*
X36850Y21266D01*
X36859Y21295D01*
X36873Y21322D01*
X36889Y21348D01*
X36909Y21371D01*
X36932Y21392D01*
X36957Y21409D01*
X36984Y21424D01*
X37013Y21434D01*
X37043Y21441D01*
X37073Y21444D01*
X37104Y21443D01*
X37134Y21438D01*
X37164Y21429D01*
X37192Y21417D01*
X37218Y21401D01*
X37242Y21382D01*
X37263Y21360D01*
X37281Y21335D01*
X37296Y21309D01*
X37308Y21280D01*
X37316Y21251D01*
X37320Y21220D01*
X37320Y21190D01*
X37316Y21159D01*
X37308Y21130D01*
X37296Y21101D01*
X37281Y21075D01*
X37263Y21050D01*
X37242Y21028D01*
X37218Y21009D01*
X37192Y20993D01*
X37164Y20981D01*
X37134Y20972D01*
X37104Y20967D01*
X37073Y20966D01*
X37043Y20969D01*
X37013Y20976D01*
X36984Y20986D01*
X36957Y21001D01*
X36932Y21018D01*
X36909Y21039D01*
X36889Y21062D01*
X36873Y21088D01*
X36859Y21115D01*
X36850Y21144D01*
X36844Y21174D01*
X36842Y21205D01*
D17*
X10600Y22460D02*
X10350Y22210D01*
X10600Y22460D02*
X11100Y22460D01*
X11350Y22210D01*
X11350Y21710D02*
X11100Y21460D01*
X10600Y21460D01*
X10350Y21710D01*
X9100Y22460D02*
X8600Y22460D01*
X9100Y22460D02*
X9350Y22210D01*
X9350Y21710D02*
X9100Y21460D01*
X9350Y22210D02*
X9600Y22460D01*
X10100Y22460D01*
X10350Y22210D01*
X10350Y21710D02*
X10100Y21460D01*
X9600Y21460D01*
X9350Y21710D01*
X7600Y22460D02*
X7350Y22210D01*
X7600Y22460D02*
X8100Y22460D01*
X8350Y22210D01*
X8350Y21710D02*
X8100Y21460D01*
X7600Y21460D01*
X7350Y21710D01*
X8350Y22210D02*
X8600Y22460D01*
X8350Y21710D02*
X8600Y21460D01*
X9100Y21460D01*
X6100Y22460D02*
X5600Y22460D01*
X6100Y22460D02*
X6350Y22210D01*
X6350Y21710D02*
X6100Y21460D01*
X6350Y22210D02*
X6600Y22460D01*
X7100Y22460D01*
X7350Y22210D01*
X7350Y21710D02*
X7100Y21460D01*
X6600Y21460D01*
X6350Y21710D01*
X5350Y21710D02*
X5350Y22210D01*
X5600Y22460D01*
X5350Y21710D02*
X5600Y21460D01*
X6100Y21460D01*
X11350Y21710D02*
X11350Y22210D01*
D14*
X6625Y21225D02*
X6625Y21035D01*
X6688Y21119D02*
X6625Y21225D01*
X6688Y21119D02*
X6752Y21225D01*
X6752Y21035D01*
X6873Y21088D02*
X6873Y21172D01*
X6875Y21186D01*
X6880Y21199D01*
X6889Y21209D01*
X6900Y21218D01*
X6912Y21223D01*
X6926Y21225D01*
X6940Y21223D01*
X6953Y21218D01*
X6963Y21209D01*
X6972Y21199D01*
X6977Y21186D01*
X6979Y21172D01*
X6979Y21088D01*
X6977Y21074D01*
X6972Y21062D01*
X6963Y21051D01*
X6953Y21042D01*
X6940Y21037D01*
X6926Y21035D01*
X6912Y21037D01*
X6900Y21042D01*
X6889Y21051D01*
X6880Y21062D01*
X6875Y21074D01*
X6873Y21088D01*
X7097Y21035D02*
X7097Y21225D01*
X7097Y21035D02*
X7182Y21035D01*
X7284Y21035D02*
X7369Y21035D01*
X7284Y21035D02*
X7284Y21225D01*
X7369Y21225D01*
X7348Y21141D02*
X7284Y21141D01*
X7453Y21035D02*
X7580Y21225D01*
X7453Y21225D02*
X7580Y21035D01*
X7669Y21014D02*
X7753Y21014D01*
X7908Y21035D02*
X7919Y21036D01*
X7929Y21041D01*
X7938Y21047D01*
X7944Y21056D01*
X7949Y21066D01*
X7950Y21077D01*
X7908Y21035D02*
X7891Y21037D01*
X7874Y21042D01*
X7858Y21050D01*
X7845Y21061D01*
X7851Y21183D02*
X7852Y21194D01*
X7857Y21204D01*
X7863Y21213D01*
X7872Y21219D01*
X7882Y21224D01*
X7893Y21225D01*
X7910Y21223D01*
X7926Y21218D01*
X7940Y21209D01*
X7850Y21183D02*
X7851Y21172D01*
X7856Y21162D01*
X7862Y21153D01*
X7871Y21146D01*
X7930Y21114D02*
X7939Y21107D01*
X7945Y21098D01*
X7950Y21088D01*
X7951Y21077D01*
X7930Y21114D02*
X7872Y21146D01*
X8062Y21225D02*
X8062Y21035D01*
X8146Y21035D01*
X8230Y21014D02*
X8315Y21014D01*
X8414Y21141D02*
X8477Y21141D01*
X8477Y21140D02*
X8488Y21139D01*
X8498Y21134D01*
X8507Y21128D01*
X8513Y21119D01*
X8518Y21109D01*
X8519Y21098D01*
X8519Y21088D01*
X8520Y21088D02*
X8518Y21074D01*
X8513Y21062D01*
X8504Y21051D01*
X8494Y21042D01*
X8481Y21037D01*
X8467Y21035D01*
X8453Y21037D01*
X8441Y21042D01*
X8430Y21051D01*
X8421Y21062D01*
X8416Y21074D01*
X8414Y21088D01*
X8414Y21141D01*
X8416Y21157D01*
X8420Y21173D01*
X8428Y21188D01*
X8439Y21200D01*
X8451Y21211D01*
X8466Y21219D01*
X8482Y21223D01*
X8498Y21225D01*
X8643Y21225D02*
X8643Y21035D01*
X8643Y21225D02*
X8696Y21225D01*
X8710Y21223D01*
X8723Y21218D01*
X8733Y21209D01*
X8742Y21199D01*
X8747Y21186D01*
X8749Y21172D01*
X8747Y21158D01*
X8742Y21146D01*
X8733Y21135D01*
X8723Y21126D01*
X8710Y21121D01*
X8696Y21119D01*
X8643Y21119D01*
X8856Y21035D02*
X8856Y21225D01*
X8834Y21035D02*
X8877Y21035D01*
X8877Y21225D02*
X8834Y21225D01*
X8983Y21225D02*
X8983Y21035D01*
X9088Y21035D02*
X8983Y21225D01*
X9088Y21225D02*
X9088Y21035D01*
D17*
X17850Y22210D02*
X18100Y22460D01*
X18600Y22460D01*
X18850Y22210D01*
X18850Y21710D02*
X18600Y21460D01*
X18100Y21460D01*
X17850Y21710D01*
X16600Y22460D02*
X16100Y22460D01*
X16600Y22460D02*
X16850Y22210D01*
X16850Y21710D02*
X16600Y21460D01*
X16850Y22210D02*
X17100Y22460D01*
X17600Y22460D01*
X17850Y22210D01*
X17850Y21710D02*
X17600Y21460D01*
X17100Y21460D01*
X16850Y21710D01*
X15100Y22460D02*
X14850Y22210D01*
X15100Y22460D02*
X15600Y22460D01*
X15850Y22210D01*
X15850Y21710D02*
X15600Y21460D01*
X15100Y21460D01*
X14850Y21710D01*
X15850Y22210D02*
X16100Y22460D01*
X15850Y21710D02*
X16100Y21460D01*
X16600Y21460D01*
X13600Y22460D02*
X13100Y22460D01*
X13600Y22460D02*
X13850Y22210D01*
X13850Y21710D02*
X13600Y21460D01*
X13850Y22210D02*
X14100Y22460D01*
X14600Y22460D01*
X14850Y22210D01*
X14850Y21710D02*
X14600Y21460D01*
X14100Y21460D01*
X13850Y21710D01*
X12850Y21710D02*
X12850Y22210D01*
X13100Y22460D01*
X12850Y21710D02*
X13100Y21460D01*
X13600Y21460D01*
X18850Y21710D02*
X18850Y22210D01*
X33100Y7210D02*
X33350Y6960D01*
X33350Y6460D01*
X33100Y6210D01*
X32600Y6210D02*
X32350Y6460D01*
X32350Y6960D01*
X32600Y7210D01*
X33350Y8460D02*
X33350Y8960D01*
X33350Y8460D02*
X33100Y8210D01*
X32600Y8210D02*
X32350Y8460D01*
X33100Y8210D02*
X33350Y7960D01*
X33350Y7460D01*
X33100Y7210D01*
X32600Y7210D02*
X32350Y7460D01*
X32350Y7960D01*
X32600Y8210D01*
X33350Y9960D02*
X33100Y10210D01*
X33350Y9960D02*
X33350Y9460D01*
X33100Y9210D01*
X32600Y9210D02*
X32350Y9460D01*
X32350Y9960D01*
X32600Y10210D01*
X33100Y9210D02*
X33350Y8960D01*
X32600Y9210D02*
X32350Y8960D01*
X32350Y8460D01*
X33350Y11460D02*
X33350Y11960D01*
X33350Y11460D02*
X33100Y11210D01*
X32600Y11210D02*
X32350Y11460D01*
X33100Y11210D02*
X33350Y10960D01*
X33350Y10460D01*
X33100Y10210D01*
X32600Y10210D02*
X32350Y10460D01*
X32350Y10960D01*
X32600Y11210D01*
X32600Y12210D02*
X33100Y12210D01*
X33350Y11960D01*
X32600Y12210D02*
X32350Y11960D01*
X32350Y11460D01*
X32600Y6210D02*
X33100Y6210D01*
X24100Y22460D02*
X23600Y22460D01*
X24100Y22460D02*
X24350Y22210D01*
X24350Y21710D02*
X24100Y21460D01*
X24350Y22210D02*
X24600Y22460D01*
X25100Y22460D01*
X25350Y22210D01*
X25350Y21710D02*
X25100Y21460D01*
X24600Y21460D01*
X24350Y21710D01*
X22600Y22460D02*
X22350Y22210D01*
X22600Y22460D02*
X23100Y22460D01*
X23350Y22210D01*
X23350Y21710D02*
X23100Y21460D01*
X22600Y21460D01*
X22350Y21710D01*
X23350Y22210D02*
X23600Y22460D01*
X23350Y21710D02*
X23600Y21460D01*
X24100Y21460D01*
X21100Y22460D02*
X20600Y22460D01*
X21100Y22460D02*
X21350Y22210D01*
X21350Y21710D02*
X21100Y21460D01*
X21350Y22210D02*
X21600Y22460D01*
X22100Y22460D01*
X22350Y22210D01*
X22350Y21710D02*
X22100Y21460D01*
X21600Y21460D01*
X21350Y21710D01*
X20350Y21710D02*
X20350Y22210D01*
X20600Y22460D01*
X20350Y21710D02*
X20600Y21460D01*
X21100Y21460D01*
X25350Y21710D02*
X25350Y22210D01*
X24100Y4960D02*
X23600Y4960D01*
X23350Y5210D01*
X23350Y5710D02*
X23600Y5960D01*
X23350Y5210D02*
X23100Y4960D01*
X22600Y4960D01*
X22350Y5210D01*
X22350Y5710D02*
X22600Y5960D01*
X23100Y5960D01*
X23350Y5710D01*
X24350Y5710D02*
X24350Y5210D01*
X24100Y4960D01*
X24350Y5710D02*
X24100Y5960D01*
X23600Y5960D01*
X22350Y5710D02*
X22350Y5210D01*
X32100Y1460D02*
X32100Y960D01*
X31850Y710D01*
X31350Y710D02*
X31100Y960D01*
X32100Y2460D02*
X31850Y2710D01*
X32100Y2460D02*
X32100Y1960D01*
X31850Y1710D01*
X31350Y1710D02*
X31100Y1960D01*
X31100Y2460D01*
X31350Y2710D01*
X31850Y1710D02*
X32100Y1460D01*
X31350Y1710D02*
X31100Y1460D01*
X31100Y960D01*
X32100Y3960D02*
X32100Y4460D01*
X32100Y3960D02*
X31850Y3710D01*
X31350Y3710D02*
X31100Y3960D01*
X31850Y3710D02*
X32100Y3460D01*
X32100Y2960D01*
X31850Y2710D01*
X31350Y2710D02*
X31100Y2960D01*
X31100Y3460D01*
X31350Y3710D01*
X31350Y4710D02*
X31850Y4710D01*
X32100Y4460D01*
X31350Y4710D02*
X31100Y4460D01*
X31100Y3960D01*
X31350Y710D02*
X31850Y710D01*
D14*
X32175Y2222D02*
X32365Y2222D01*
X32281Y2285D02*
X32175Y2222D01*
X32281Y2285D02*
X32175Y2348D01*
X32365Y2348D01*
X32312Y2470D02*
X32228Y2470D01*
X32214Y2472D01*
X32202Y2477D01*
X32191Y2486D01*
X32182Y2497D01*
X32177Y2509D01*
X32175Y2523D01*
X32177Y2537D01*
X32182Y2550D01*
X32191Y2560D01*
X32202Y2569D01*
X32214Y2574D01*
X32228Y2576D01*
X32228Y2575D02*
X32312Y2575D01*
X32312Y2576D02*
X32326Y2574D01*
X32339Y2569D01*
X32349Y2560D01*
X32358Y2550D01*
X32363Y2537D01*
X32365Y2523D01*
X32363Y2509D01*
X32358Y2497D01*
X32349Y2486D01*
X32339Y2477D01*
X32326Y2472D01*
X32312Y2470D01*
X32365Y2694D02*
X32175Y2694D01*
X32365Y2694D02*
X32365Y2778D01*
X32365Y2881D02*
X32365Y2965D01*
X32365Y2881D02*
X32175Y2881D01*
X32175Y2965D01*
X32259Y2944D02*
X32259Y2881D01*
X32365Y3050D02*
X32175Y3176D01*
X32175Y3050D02*
X32365Y3176D01*
X32386Y3265D02*
X32386Y3350D01*
X32365Y3505D02*
X32364Y3516D01*
X32359Y3526D01*
X32353Y3535D01*
X32344Y3541D01*
X32334Y3546D01*
X32323Y3547D01*
X32365Y3505D02*
X32363Y3488D01*
X32358Y3471D01*
X32350Y3455D01*
X32339Y3442D01*
X32217Y3447D02*
X32206Y3448D01*
X32196Y3453D01*
X32187Y3459D01*
X32181Y3468D01*
X32176Y3478D01*
X32175Y3489D01*
X32177Y3506D01*
X32182Y3522D01*
X32191Y3536D01*
X32217Y3447D02*
X32228Y3448D01*
X32238Y3453D01*
X32247Y3459D01*
X32254Y3468D01*
X32286Y3527D02*
X32293Y3536D01*
X32302Y3542D01*
X32312Y3547D01*
X32323Y3548D01*
X32286Y3526D02*
X32254Y3468D01*
X32175Y3659D02*
X32365Y3659D01*
X32365Y3743D01*
X32386Y3827D02*
X32386Y3911D01*
X32323Y4011D02*
X32175Y4053D01*
X32323Y4011D02*
X32323Y4116D01*
X32281Y4085D02*
X32365Y4085D01*
X32365Y4240D02*
X32175Y4240D01*
X32175Y4292D01*
X32177Y4306D01*
X32182Y4319D01*
X32191Y4329D01*
X32202Y4338D01*
X32214Y4343D01*
X32228Y4345D01*
X32242Y4343D01*
X32255Y4338D01*
X32265Y4329D01*
X32274Y4319D01*
X32279Y4306D01*
X32281Y4292D01*
X32281Y4240D01*
X32365Y4452D02*
X32175Y4452D01*
X32365Y4431D02*
X32365Y4473D01*
X32175Y4473D02*
X32175Y4431D01*
X32175Y4579D02*
X32365Y4579D01*
X32365Y4685D02*
X32175Y4579D01*
X32175Y4685D02*
X32365Y4685D01*
D17*
X1850Y21710D02*
X1600Y21460D01*
X1100Y21460D01*
X850Y21710D01*
X850Y22210D02*
X1100Y22460D01*
X1600Y22460D01*
X1850Y22210D01*
X3100Y21460D02*
X3600Y21460D01*
X3100Y21460D02*
X2850Y21710D01*
X2850Y22210D02*
X3100Y22460D01*
X2850Y21710D02*
X2600Y21460D01*
X2100Y21460D01*
X1850Y21710D01*
X1850Y22210D02*
X2100Y22460D01*
X2600Y22460D01*
X2850Y22210D01*
X3850Y22210D02*
X3850Y21710D01*
X3600Y21460D01*
X3850Y22210D02*
X3600Y22460D01*
X3100Y22460D01*
X850Y22210D02*
X850Y21710D01*
D14*
X3603Y21185D02*
X3603Y21037D01*
X3602Y21026D01*
X3597Y21016D01*
X3591Y21007D01*
X3582Y21001D01*
X3572Y20996D01*
X3561Y20995D01*
X3540Y20995D01*
X3719Y21048D02*
X3721Y21062D01*
X3726Y21075D01*
X3735Y21085D01*
X3746Y21094D01*
X3758Y21099D01*
X3772Y21101D01*
X3786Y21099D01*
X3799Y21094D01*
X3809Y21085D01*
X3818Y21075D01*
X3823Y21062D01*
X3825Y21048D01*
X3823Y21034D01*
X3818Y21022D01*
X3809Y21011D01*
X3799Y21002D01*
X3786Y20997D01*
X3772Y20995D01*
X3758Y20997D01*
X3746Y21002D01*
X3735Y21011D01*
X3726Y21022D01*
X3721Y21034D01*
X3719Y21048D01*
X3730Y21143D02*
X3732Y21155D01*
X3737Y21166D01*
X3744Y21175D01*
X3755Y21181D01*
X3766Y21185D01*
X3778Y21185D01*
X3789Y21181D01*
X3800Y21175D01*
X3807Y21166D01*
X3812Y21155D01*
X3814Y21143D01*
X3812Y21131D01*
X3807Y21120D01*
X3800Y21111D01*
X3789Y21105D01*
X3778Y21101D01*
X3766Y21101D01*
X3755Y21105D01*
X3744Y21111D01*
X3737Y21120D01*
X3732Y21131D01*
X3730Y21143D01*
D11*
X10400Y20260D02*
X10600Y20260D01*
X10400Y20260D02*
X10400Y20460D01*
X11100Y20260D02*
X11300Y20260D01*
X11300Y20460D01*
X11300Y20960D02*
X11300Y21160D01*
X11100Y21160D01*
X10600Y21160D02*
X10400Y21160D01*
X10400Y20960D01*
X10300Y21160D02*
X10100Y21160D01*
X10300Y21160D02*
X10300Y20960D01*
X9600Y21160D02*
X9400Y21160D01*
X9400Y20960D01*
X9400Y20460D02*
X9400Y20260D01*
X9600Y20260D01*
X10100Y20260D02*
X10300Y20260D01*
X10300Y20460D01*
X8600Y20260D02*
X8400Y20260D01*
X8400Y20460D01*
X9100Y20260D02*
X9300Y20260D01*
X9300Y20460D01*
X9300Y20960D02*
X9300Y21160D01*
X9100Y21160D01*
X8600Y21160D02*
X8400Y21160D01*
X8400Y20960D01*
X7600Y20260D02*
X7400Y20260D01*
X7400Y20460D01*
X8100Y20260D02*
X8300Y20260D01*
X8300Y20460D01*
X8300Y20960D02*
X8300Y21160D01*
X8100Y21160D01*
X7600Y21160D02*
X7400Y21160D01*
X7400Y20960D01*
X6400Y20960D02*
X6400Y21160D01*
X6600Y21160D01*
X6400Y20460D02*
X6400Y20260D01*
X6600Y20260D01*
X7100Y20260D02*
X7300Y20260D01*
X7300Y20460D01*
X7300Y20960D02*
X7300Y21160D01*
X7100Y21160D01*
X6300Y20460D02*
X6300Y20260D01*
X6100Y20260D01*
X6300Y20960D02*
X6300Y21160D01*
X6100Y21160D01*
X5600Y21160D02*
X5400Y21160D01*
X5400Y20960D01*
X5400Y20460D02*
X5400Y20260D01*
X5600Y20260D01*
X17900Y20260D02*
X18100Y20260D01*
X17900Y20260D02*
X17900Y20460D01*
X18600Y20260D02*
X18800Y20260D01*
X18800Y20460D01*
X18800Y20960D02*
X18800Y21160D01*
X18600Y21160D01*
X18100Y21160D02*
X17900Y21160D01*
X17900Y20960D01*
X17100Y20260D02*
X16900Y20260D01*
X16900Y20460D01*
X17600Y20260D02*
X17800Y20260D01*
X17800Y20460D01*
X17800Y20960D02*
X17800Y21160D01*
X17600Y21160D01*
X17100Y21160D02*
X16900Y21160D01*
X16900Y20960D01*
X16100Y20260D02*
X15900Y20260D01*
X15900Y20460D01*
X16600Y20260D02*
X16800Y20260D01*
X16800Y20460D01*
X16800Y20960D02*
X16800Y21160D01*
X16600Y21160D01*
X16100Y21160D02*
X15900Y21160D01*
X15900Y20960D01*
X15100Y20260D02*
X14900Y20260D01*
X14900Y20460D01*
X15600Y20260D02*
X15800Y20260D01*
X15800Y20460D01*
X15800Y20960D02*
X15800Y21160D01*
X15600Y21160D01*
X15100Y21160D02*
X14900Y21160D01*
X14900Y20960D01*
X14100Y20260D02*
X13900Y20260D01*
X13900Y20460D01*
X14600Y20260D02*
X14800Y20260D01*
X14800Y20460D01*
X14800Y20960D02*
X14800Y21160D01*
X14600Y21160D01*
X14100Y21160D02*
X13900Y21160D01*
X13900Y20960D01*
X13100Y20260D02*
X12900Y20260D01*
X12900Y20460D01*
X13600Y20260D02*
X13800Y20260D01*
X13800Y20460D01*
X13800Y20960D02*
X13800Y21160D01*
X13600Y21160D01*
X13100Y21160D02*
X12900Y21160D01*
X12900Y20960D01*
X32400Y1660D02*
X32400Y1460D01*
X32400Y1660D02*
X32600Y1660D01*
X32400Y960D02*
X32400Y760D01*
X32600Y760D01*
X33100Y760D02*
X33300Y760D01*
X33300Y960D01*
X33300Y1460D02*
X33300Y1660D01*
X33100Y1660D01*
X24300Y7160D02*
X24100Y7160D01*
X24300Y7160D02*
X24300Y6960D01*
X23600Y7160D02*
X23400Y7160D01*
X23400Y6960D01*
X23400Y6460D02*
X23400Y6260D01*
X23600Y6260D01*
X24100Y6260D02*
X24300Y6260D01*
X24300Y6460D01*
X23300Y7160D02*
X23100Y7160D01*
X23300Y7160D02*
X23300Y6960D01*
X22600Y7160D02*
X22400Y7160D01*
X22400Y6960D01*
X22400Y6460D02*
X22400Y6260D01*
X22600Y6260D01*
X23100Y6260D02*
X23300Y6260D01*
X23300Y6460D01*
X32400Y2660D02*
X32400Y2460D01*
X32400Y2660D02*
X32600Y2660D01*
X32400Y1960D02*
X32400Y1760D01*
X32600Y1760D01*
X33100Y1760D02*
X33300Y1760D01*
X33300Y1960D01*
X33300Y2460D02*
X33300Y2660D01*
X33100Y2660D01*
X32400Y3460D02*
X32400Y3660D01*
X32600Y3660D01*
X32400Y2960D02*
X32400Y2760D01*
X32600Y2760D01*
X33100Y2760D02*
X33300Y2760D01*
X33300Y2960D01*
X33300Y3460D02*
X33300Y3660D01*
X33100Y3660D01*
X32400Y4460D02*
X32400Y4660D01*
X32600Y4660D01*
X32400Y3960D02*
X32400Y3760D01*
X32600Y3760D01*
X33100Y3760D02*
X33300Y3760D01*
X33300Y3960D01*
X33300Y4460D02*
X33300Y4660D01*
X33100Y4660D01*
X32050Y6260D02*
X32050Y6460D01*
X32050Y6260D02*
X31850Y6260D01*
X32050Y6960D02*
X32050Y7160D01*
X31850Y7160D01*
X31350Y7160D02*
X31150Y7160D01*
X31150Y6960D01*
X31150Y6460D02*
X31150Y6260D01*
X31350Y6260D01*
X32050Y7260D02*
X32050Y7460D01*
X32050Y7260D02*
X31850Y7260D01*
X32050Y7960D02*
X32050Y8160D01*
X31850Y8160D01*
X31350Y8160D02*
X31150Y8160D01*
X31150Y7960D01*
X31150Y7460D02*
X31150Y7260D01*
X31350Y7260D01*
X32050Y8260D02*
X32050Y8460D01*
X32050Y8260D02*
X31850Y8260D01*
X32050Y8960D02*
X32050Y9160D01*
X31850Y9160D01*
X31350Y9160D02*
X31150Y9160D01*
X31150Y8960D01*
X31150Y8460D02*
X31150Y8260D01*
X31350Y8260D01*
X32050Y9260D02*
X32050Y9460D01*
X32050Y9260D02*
X31850Y9260D01*
X32050Y9960D02*
X32050Y10160D01*
X31850Y10160D01*
X31350Y10160D02*
X31150Y10160D01*
X31150Y9960D01*
X31150Y9460D02*
X31150Y9260D01*
X31350Y9260D01*
D14*
X31175Y10410D02*
X31175Y10735D01*
X31175Y10410D02*
X31177Y10389D01*
X31182Y10369D01*
X31190Y10351D01*
X31201Y10333D01*
X31215Y10318D01*
X31232Y10305D01*
X31250Y10296D01*
X31269Y10289D01*
X31290Y10285D01*
X31310Y10285D01*
X31331Y10289D01*
X31350Y10296D01*
X31368Y10305D01*
X31385Y10318D01*
X31399Y10333D01*
X31410Y10351D01*
X31418Y10369D01*
X31423Y10389D01*
X31425Y10410D01*
X31425Y10735D01*
X31735Y10735D02*
X31735Y10285D01*
X31735Y10510D02*
X31673Y10548D01*
X31672Y10548D02*
X31659Y10558D01*
X31649Y10570D01*
X31641Y10585D01*
X31637Y10601D01*
X31636Y10617D01*
X31639Y10633D01*
X31646Y10649D01*
X31655Y10662D01*
X31667Y10673D01*
X31682Y10681D01*
X31698Y10686D01*
X31697Y10685D02*
X31721Y10688D01*
X31745Y10688D01*
X31768Y10685D01*
X31792Y10679D01*
X31814Y10671D01*
X31835Y10660D01*
X31735Y10510D02*
X31798Y10473D01*
X31798Y10472D02*
X31811Y10462D01*
X31821Y10450D01*
X31829Y10435D01*
X31833Y10419D01*
X31834Y10403D01*
X31831Y10387D01*
X31824Y10371D01*
X31815Y10358D01*
X31803Y10347D01*
X31788Y10339D01*
X31772Y10334D01*
X31773Y10335D02*
X31749Y10332D01*
X31725Y10332D01*
X31702Y10335D01*
X31678Y10341D01*
X31656Y10349D01*
X31635Y10360D01*
X32030Y10285D02*
X32155Y10285D01*
X32176Y10287D01*
X32196Y10292D01*
X32214Y10300D01*
X32232Y10311D01*
X32247Y10325D01*
X32260Y10342D01*
X32269Y10360D01*
X32276Y10379D01*
X32280Y10400D01*
X32280Y10420D01*
X32276Y10441D01*
X32269Y10460D01*
X32260Y10478D01*
X32247Y10495D01*
X32232Y10509D01*
X32214Y10520D01*
X32196Y10528D01*
X32176Y10533D01*
X32155Y10535D01*
X32180Y10735D02*
X32030Y10735D01*
X32180Y10735D02*
X32198Y10733D01*
X32216Y10728D01*
X32233Y10720D01*
X32247Y10709D01*
X32260Y10695D01*
X32270Y10680D01*
X32276Y10662D01*
X32280Y10644D01*
X32280Y10626D01*
X32276Y10608D01*
X32270Y10590D01*
X32260Y10575D01*
X32247Y10561D01*
X32233Y10550D01*
X32216Y10542D01*
X32198Y10537D01*
X32180Y10535D01*
X32080Y10535D01*
X32480Y10635D02*
X32605Y10735D01*
X32605Y10285D01*
X32480Y10285D02*
X32730Y10285D01*
D11*
X31150Y10960D02*
X31150Y11160D01*
X31350Y11160D01*
X31150Y10460D02*
X31150Y10260D01*
X31350Y10260D01*
X31850Y10260D02*
X32050Y10260D01*
X32050Y10460D01*
X32050Y10960D02*
X32050Y11160D01*
X31850Y11160D01*
X31150Y11960D02*
X31150Y12160D01*
X31350Y12160D01*
X31150Y11460D02*
X31150Y11260D01*
X31350Y11260D01*
X31850Y11260D02*
X32050Y11260D01*
X32050Y11460D01*
X32050Y11960D02*
X32050Y12160D01*
X31850Y12160D01*
X24600Y20260D02*
X24400Y20260D01*
X24400Y20460D01*
X25100Y20260D02*
X25300Y20260D01*
X25300Y20460D01*
X25300Y20960D02*
X25300Y21160D01*
X25100Y21160D01*
X24600Y21160D02*
X24400Y21160D01*
X24400Y20960D01*
X23600Y20260D02*
X23400Y20260D01*
X23400Y20460D01*
X24100Y20260D02*
X24300Y20260D01*
X24300Y20460D01*
X24300Y20960D02*
X24300Y21160D01*
X24100Y21160D01*
X23600Y21160D02*
X23400Y21160D01*
X23400Y20960D01*
X22600Y20260D02*
X22400Y20260D01*
X22400Y20460D01*
X23100Y20260D02*
X23300Y20260D01*
X23300Y20460D01*
X23300Y20960D02*
X23300Y21160D01*
X23100Y21160D01*
X22600Y21160D02*
X22400Y21160D01*
X22400Y20960D01*
X21600Y20260D02*
X21400Y20260D01*
X21400Y20460D01*
X22100Y20260D02*
X22300Y20260D01*
X22300Y20460D01*
X22300Y20960D02*
X22300Y21160D01*
X22100Y21160D01*
X21600Y21160D02*
X21400Y21160D01*
X21400Y20960D01*
X20600Y20260D02*
X20400Y20260D01*
X20400Y20460D01*
X21100Y20260D02*
X21300Y20260D01*
X21300Y20460D01*
X21300Y20960D02*
X21300Y21160D01*
X21100Y21160D01*
X20600Y21160D02*
X20400Y21160D01*
X20400Y20960D01*
X1800Y21160D02*
X1600Y21160D01*
X1800Y21160D02*
X1800Y20960D01*
X1100Y21160D02*
X900Y21160D01*
X900Y20960D01*
X900Y20460D02*
X900Y20260D01*
X1100Y20260D01*
X1600Y20260D02*
X1800Y20260D01*
X1800Y20460D01*
X2600Y21160D02*
X2800Y21160D01*
X2800Y20960D01*
X2100Y21160D02*
X1900Y21160D01*
X1900Y20960D01*
X1900Y20460D02*
X1900Y20260D01*
X2100Y20260D01*
X2600Y20260D02*
X2800Y20260D01*
X2800Y20460D01*
X3600Y21160D02*
X3800Y21160D01*
X3800Y20960D01*
X3100Y21160D02*
X2900Y21160D01*
X2900Y20960D01*
X2900Y20460D02*
X2900Y20260D01*
X3100Y20260D01*
X3600Y20260D02*
X3800Y20260D01*
X3800Y20460D01*
D17*
X33100Y14710D02*
X33350Y14460D01*
X33350Y13960D01*
X33100Y13710D01*
X32600Y13710D02*
X32350Y13960D01*
X32350Y14460D01*
X32600Y14710D01*
X33350Y15960D02*
X33350Y16460D01*
X33350Y15960D02*
X33100Y15710D01*
X32600Y15710D02*
X32350Y15960D01*
X33100Y15710D02*
X33350Y15460D01*
X33350Y14960D01*
X33100Y14710D01*
X32600Y14710D02*
X32350Y14960D01*
X32350Y15460D01*
X32600Y15710D01*
X32600Y16710D02*
X33100Y16710D01*
X33350Y16460D01*
X32600Y16710D02*
X32350Y16460D01*
X32350Y15960D01*
X32600Y13710D02*
X33100Y13710D01*
D11*
X32050Y16660D02*
X31850Y16660D01*
X32050Y16660D02*
X32050Y16460D01*
X31350Y16660D02*
X31150Y16660D01*
X31150Y16460D01*
X31150Y15960D02*
X31150Y15760D01*
X31350Y15760D01*
X31850Y15760D02*
X32050Y15760D01*
X32050Y15960D01*
X32050Y15660D02*
X31850Y15660D01*
X32050Y15660D02*
X32050Y15460D01*
X31350Y15660D02*
X31150Y15660D01*
X31150Y15460D01*
X31150Y14960D02*
X31150Y14760D01*
X31350Y14760D01*
X31850Y14760D02*
X32050Y14760D01*
X32050Y14960D01*
X32050Y14660D02*
X31850Y14660D01*
X32050Y14660D02*
X32050Y14460D01*
X31350Y14660D02*
X31150Y14660D01*
X31150Y14460D01*
X31150Y13960D02*
X31150Y13760D01*
X31350Y13760D01*
X31850Y13760D02*
X32050Y13760D01*
X32050Y13960D01*
X26650Y25710D02*
X26650Y25910D01*
X26850Y25910D01*
X26650Y25210D02*
X26650Y25010D01*
X26850Y25010D01*
X27350Y25010D02*
X27550Y25010D01*
X27550Y25210D01*
X27550Y25710D02*
X27550Y25910D01*
X27350Y25910D01*
X27900Y25910D02*
X27900Y25710D01*
X27900Y25910D02*
X28100Y25910D01*
X27900Y25210D02*
X27900Y25010D01*
X28100Y25010D01*
X28600Y25010D02*
X28800Y25010D01*
X28800Y25210D01*
X28800Y25710D02*
X28800Y25910D01*
X28600Y25910D01*
X29150Y25910D02*
X29150Y25710D01*
X29150Y25910D02*
X29350Y25910D01*
X29150Y25210D02*
X29150Y25010D01*
X29350Y25010D01*
X29850Y25010D02*
X30050Y25010D01*
X30050Y25210D01*
X30050Y25710D02*
X30050Y25910D01*
X29850Y25910D01*
X30400Y25910D02*
X30400Y25710D01*
X30400Y25910D02*
X30600Y25910D01*
X30400Y25210D02*
X30400Y25010D01*
X30600Y25010D01*
X31100Y25010D02*
X31300Y25010D01*
X31300Y25210D01*
X31300Y25710D02*
X31300Y25910D01*
X31100Y25910D01*
X31650Y25910D02*
X31650Y25710D01*
X31650Y25910D02*
X31850Y25910D01*
X31650Y25210D02*
X31650Y25010D01*
X31850Y25010D01*
X32350Y25010D02*
X32550Y25010D01*
X32550Y25210D01*
X32550Y25710D02*
X32550Y25910D01*
X32350Y25910D01*
X32900Y25910D02*
X32900Y25710D01*
X32900Y25910D02*
X33100Y25910D01*
X32900Y25210D02*
X32900Y25010D01*
X33100Y25010D01*
X33600Y25010D02*
X33800Y25010D01*
X33800Y25210D01*
X33800Y25710D02*
X33800Y25910D01*
X33600Y25910D01*
M02*
