G04 EAGLE Gerber RS-274X export*
G75*
%MOIN*%
%FSLAX24Y24*%
%LPD*%
%INSoldermask Top*%
%IPPOS*%
%AMOC8*
5,1,8,0,0,1.08239X$1,22.5*%
G01*
%ADD10R,0.088740X0.069055*%
%ADD11R,0.069055X0.088740*%
%ADD12R,0.061181X0.072992*%
%ADD13R,0.108425X0.128110*%
%ADD14R,0.072992X0.049370*%
%ADD15R,0.041496X0.104488*%
%ADD16R,0.076000X0.019000*%
%ADD17R,0.019000X0.076000*%
%ADD18R,0.049370X0.092677*%
%ADD19R,0.058031X0.141890*%
%ADD20R,0.116299X0.054094*%
%ADD21R,0.065118X0.049370*%
%ADD22R,0.234000X0.253000*%
%ADD23R,0.065000X0.100000*%
%ADD24P,0.079014X8X292.500000*%
%ADD25R,0.057244X0.031654*%
%ADD26R,0.072992X0.061181*%
%ADD27R,0.065000X0.019000*%
%ADD28R,0.060000X0.041496*%
%ADD29R,0.041496X0.060000*%
%ADD30P,0.102827X8X202.500000*%
%ADD31P,0.102827X8X292.500000*%
%ADD32R,0.050157X0.084409*%
%ADD33C,0.084000*%
%ADD34P,0.102827X8X112.500000*%
%ADD35P,0.102827X8X22.500000*%
%ADD36C,0.037748*%


D10*
X10400Y3621D03*
X10400Y2439D03*
D11*
X9009Y4710D03*
X10191Y4710D03*
X8941Y6240D03*
X7759Y6240D03*
D12*
X7266Y9930D03*
X8054Y9930D03*
X8074Y7540D03*
X7286Y7540D03*
D13*
X5602Y8752D03*
D14*
X8019Y9252D03*
X8019Y8228D03*
D15*
X13100Y13210D03*
X12509Y13210D03*
X13691Y13210D03*
D16*
X9495Y11080D03*
X9495Y10883D03*
X9495Y10686D03*
X9495Y10490D03*
X9495Y10293D03*
X9495Y10096D03*
X9495Y9899D03*
X9495Y9702D03*
X9495Y9505D03*
X9495Y9308D03*
X9495Y9112D03*
X9495Y8915D03*
X9495Y8718D03*
X9495Y8521D03*
X9495Y8324D03*
X9495Y8127D03*
X9495Y7930D03*
X9495Y7734D03*
X9495Y7537D03*
X9495Y7340D03*
D17*
X10230Y6605D03*
X10427Y6605D03*
X10624Y6605D03*
X10820Y6605D03*
X11017Y6605D03*
X11214Y6605D03*
X11411Y6605D03*
X11608Y6605D03*
X11805Y6605D03*
X12002Y6605D03*
X12198Y6605D03*
X12395Y6605D03*
X12592Y6605D03*
X12789Y6605D03*
X12986Y6605D03*
X13183Y6605D03*
X13380Y6605D03*
X13576Y6605D03*
X13773Y6605D03*
X13970Y6605D03*
D16*
X14705Y7340D03*
X14705Y7537D03*
X14705Y7734D03*
X14705Y7930D03*
X14705Y8127D03*
X14705Y8324D03*
X14705Y8521D03*
X14705Y8718D03*
X14705Y8915D03*
X14705Y9112D03*
X14705Y9308D03*
X14705Y9505D03*
X14705Y9702D03*
X14705Y9899D03*
X14705Y10096D03*
X14705Y10293D03*
X14705Y10490D03*
X14705Y10686D03*
X14705Y10883D03*
X14705Y11080D03*
D17*
X13970Y11815D03*
X13773Y11815D03*
X13576Y11815D03*
X13380Y11815D03*
X13183Y11815D03*
X12986Y11815D03*
X12789Y11815D03*
X12592Y11815D03*
X12395Y11815D03*
X12198Y11815D03*
X12002Y11815D03*
X11805Y11815D03*
X11608Y11815D03*
X11411Y11815D03*
X11214Y11815D03*
X11017Y11815D03*
X10820Y11815D03*
X10624Y11815D03*
X10427Y11815D03*
X10230Y11815D03*
D18*
X20700Y5978D03*
X19700Y5978D03*
X17700Y5978D03*
X16700Y5978D03*
X16700Y2002D03*
X17700Y2002D03*
X20700Y2002D03*
X18700Y5978D03*
D11*
X18549Y7250D03*
X19731Y7250D03*
D19*
X15607Y1630D03*
X13253Y1630D03*
D20*
X15340Y3303D03*
X15340Y4477D03*
D21*
X3947Y11000D03*
X4813Y11374D03*
X4813Y10626D03*
D22*
X1750Y13110D03*
D23*
X2600Y10570D03*
X880Y10570D03*
D24*
X2230Y8100D03*
X2230Y3600D03*
D25*
X13552Y3056D03*
X13552Y3430D03*
X13552Y3804D03*
X12528Y3804D03*
X12528Y3056D03*
D12*
X13306Y4570D03*
X14094Y4570D03*
D26*
X11550Y4744D03*
X11550Y3956D03*
D11*
X16589Y7250D03*
X17771Y7250D03*
D27*
X29740Y20150D03*
X29740Y19953D03*
X29740Y19755D03*
X29740Y19559D03*
X29740Y19361D03*
X29740Y19165D03*
X29740Y18968D03*
X29740Y18770D03*
X31460Y18770D03*
X31460Y18968D03*
X31460Y19165D03*
X31460Y19361D03*
X31460Y19559D03*
X31460Y19755D03*
X31460Y19953D03*
X31460Y20150D03*
D28*
X30600Y17316D03*
X30600Y18104D03*
X29600Y17316D03*
X29600Y18104D03*
D29*
X30206Y20960D03*
X30994Y20960D03*
X32706Y19960D03*
X33494Y19960D03*
X32706Y20960D03*
X33494Y20960D03*
X32706Y18960D03*
X33494Y18960D03*
X33494Y17960D03*
X32706Y17960D03*
D28*
X38000Y18454D03*
X38000Y17666D03*
D29*
X36194Y19290D03*
X35406Y19290D03*
X37794Y19300D03*
X37006Y19300D03*
D28*
X31600Y17316D03*
X31600Y18104D03*
X35350Y17666D03*
X35350Y18454D03*
D29*
X36216Y18310D03*
X37004Y18310D03*
D30*
X29600Y24460D03*
X30850Y24460D03*
X28350Y24460D03*
X32100Y24460D03*
X27100Y24460D03*
D31*
X33320Y24500D03*
D32*
X37750Y26813D03*
X38537Y26813D03*
X39325Y26813D03*
X40112Y26813D03*
X40900Y26813D03*
X41687Y26813D03*
X41687Y21187D03*
X40900Y21187D03*
X40112Y21187D03*
X39325Y21187D03*
X38537Y21187D03*
X37750Y21187D03*
D33*
X5850Y21960D03*
X6850Y21960D03*
X7850Y21960D03*
X8850Y21960D03*
X9850Y21960D03*
X10850Y21960D03*
X13350Y21960D03*
X14350Y21960D03*
X15350Y21960D03*
X16350Y21960D03*
X17350Y21960D03*
X18350Y21960D03*
X32850Y11710D03*
X32850Y10710D03*
X32850Y9710D03*
X32850Y8710D03*
X32850Y7710D03*
X32850Y6710D03*
X20850Y21960D03*
X21850Y21960D03*
X22850Y21960D03*
X23850Y21960D03*
X24850Y21960D03*
X23850Y5460D03*
X22850Y5460D03*
X31600Y4210D03*
X31600Y3210D03*
X31600Y2210D03*
X31600Y1210D03*
X3350Y21960D03*
X2350Y21960D03*
X1350Y21960D03*
D31*
X10850Y20710D03*
D34*
X9850Y20710D03*
D31*
X8850Y20710D03*
X7850Y20710D03*
D30*
X6850Y20710D03*
D35*
X5850Y20710D03*
D31*
X18350Y20710D03*
X17350Y20710D03*
X16350Y20710D03*
X15350Y20710D03*
X14350Y20710D03*
X13350Y20710D03*
D30*
X32850Y1210D03*
D34*
X23850Y6710D03*
X22850Y6710D03*
D30*
X32850Y2210D03*
X32850Y3210D03*
X32850Y4210D03*
D35*
X31600Y6710D03*
X31600Y7710D03*
X31600Y8710D03*
X31600Y9710D03*
D30*
X31600Y10710D03*
X31600Y11710D03*
D31*
X24850Y20710D03*
X23850Y20710D03*
X22850Y20710D03*
X21850Y20710D03*
X20850Y20710D03*
D34*
X1350Y20710D03*
X2350Y20710D03*
X3350Y20710D03*
D33*
X32850Y16210D03*
X32850Y15210D03*
X32850Y14210D03*
D34*
X31600Y16210D03*
X31600Y15210D03*
X31600Y14210D03*
D30*
X27100Y25460D03*
X28350Y25460D03*
X29600Y25460D03*
X30850Y25460D03*
X32100Y25460D03*
X33350Y25460D03*
D36*
X9670Y6220D03*
X10060Y9100D03*
X10070Y7790D03*
X14360Y12350D03*
X12490Y4744D03*
X15506Y8666D03*
X12180Y5670D03*
X12958Y5670D03*
X7350Y13710D03*
X8350Y13960D03*
X9350Y13960D03*
X14570Y5660D03*
X14930Y6780D03*
X15350Y17710D03*
X15350Y18519D03*
X16820Y8500D03*
X36500Y26750D03*
X34320Y26680D03*
X33850Y18460D03*
X32100Y17710D03*
X28100Y19460D03*
X29600Y20960D03*
X28659Y19960D03*
X14170Y5670D03*
X13780Y5670D03*
X13380Y5670D03*
X8850Y12110D03*
X12560Y5660D03*
X29600Y20460D03*
X29100Y16460D03*
M02*
