G04 EAGLE Gerber RS-274X export*
G75*
%MOIN*%
%FSLAX24Y24*%
%LPD*%
%INSoldermask Bottom*%
%IPPOS*%
%AMOC8*
5,1,8,0,0,1.08239X$1,22.5*%
G01*
%ADD10P,0.079014X8X292.500000*%
%ADD11P,0.102827X8X202.500000*%
%ADD12P,0.102827X8X292.500000*%
%ADD13C,0.084000*%
%ADD14P,0.102827X8X112.500000*%
%ADD15P,0.102827X8X22.500000*%
%ADD16C,0.037748*%


D10*
X2230Y8100D03*
X2230Y3600D03*
D11*
X29600Y24460D03*
X30850Y24460D03*
X28350Y24460D03*
X32100Y24460D03*
X27100Y24460D03*
D12*
X33320Y24500D03*
D13*
X5850Y21960D03*
X6850Y21960D03*
X7850Y21960D03*
X8850Y21960D03*
X9850Y21960D03*
X10850Y21960D03*
X13350Y21960D03*
X14350Y21960D03*
X15350Y21960D03*
X16350Y21960D03*
X17350Y21960D03*
X18350Y21960D03*
X32850Y11710D03*
X32850Y10710D03*
X32850Y9710D03*
X32850Y8710D03*
X32850Y7710D03*
X32850Y6710D03*
X20850Y21960D03*
X21850Y21960D03*
X22850Y21960D03*
X23850Y21960D03*
X24850Y21960D03*
X23850Y5460D03*
X22850Y5460D03*
X31600Y4210D03*
X31600Y3210D03*
X31600Y2210D03*
X31600Y1210D03*
X3350Y21960D03*
X2350Y21960D03*
X1350Y21960D03*
D12*
X10850Y20710D03*
D14*
X9850Y20710D03*
D12*
X8850Y20710D03*
X7850Y20710D03*
D11*
X6850Y20710D03*
D15*
X5850Y20710D03*
D12*
X18350Y20710D03*
X17350Y20710D03*
X16350Y20710D03*
X15350Y20710D03*
X14350Y20710D03*
X13350Y20710D03*
D11*
X32850Y1210D03*
D14*
X23850Y6710D03*
X22850Y6710D03*
D11*
X32850Y2210D03*
X32850Y3210D03*
X32850Y4210D03*
D15*
X31600Y6710D03*
X31600Y7710D03*
X31600Y8710D03*
X31600Y9710D03*
D11*
X31600Y10710D03*
X31600Y11710D03*
D12*
X24850Y20710D03*
X23850Y20710D03*
X22850Y20710D03*
X21850Y20710D03*
X20850Y20710D03*
D14*
X1350Y20710D03*
X2350Y20710D03*
X3350Y20710D03*
D13*
X32850Y16210D03*
X32850Y15210D03*
X32850Y14210D03*
D14*
X31600Y16210D03*
X31600Y15210D03*
X31600Y14210D03*
D11*
X27100Y25460D03*
X28350Y25460D03*
X29600Y25460D03*
X30850Y25460D03*
X32100Y25460D03*
X33350Y25460D03*
D16*
X9670Y6220D03*
X10060Y9100D03*
X10070Y7790D03*
X14360Y12350D03*
X12490Y4744D03*
X15506Y8666D03*
X12180Y5670D03*
X12958Y5670D03*
X7350Y13710D03*
X8350Y13960D03*
X9350Y13960D03*
X14570Y5660D03*
X14930Y6780D03*
X15350Y17710D03*
X15350Y18519D03*
X16820Y8500D03*
X36500Y26750D03*
X34320Y26680D03*
X33850Y18460D03*
X32100Y17710D03*
X28100Y19460D03*
X29600Y20960D03*
X28659Y19960D03*
X14170Y5670D03*
X13780Y5670D03*
X13380Y5670D03*
X8850Y12110D03*
X12560Y5660D03*
X29600Y20460D03*
X29100Y16460D03*
M02*
