M48
;GenerationSoftware,Autodesk,EAGLE,9.3.0*%
;CreationDate,2019-05-22T20:16:49Z*%
FMAT,2
ICI,OFF
INCH,TZ,00.0000
T3C0.0157
T2C0.0320
T1C0.0400
%
G90
M72
T1
X32850Y1210
X23850Y6710
X22850Y6710
X32850Y2210
X32850Y3210
X32850Y4210
X31600Y6710
X31600Y7710
X31600Y8710
X31600Y9710
X31600Y10710
X31600Y11710
X24850Y20710
X23850Y20710
X21850Y21960
X22850Y20710
X21850Y20710
X20850Y20710
X2350Y20710
X3350Y20710
X32850Y16210
X32850Y15210
X32850Y14210
X31600Y16210
X31600Y15210
X31600Y14210
X27100Y25460
X28350Y25460
X29600Y25460
X30850Y25460
X32100Y25460
X33350Y25460
X29600Y24460
X30850Y24460
X28350Y24460
X32100Y24460
X27100Y24460
X33320Y24500
X5850Y21960
X6850Y21960
X7850Y21960
X8850Y21960
X9850Y21960
X10850Y21960
X13350Y21960
X14350Y21960
X15350Y21960
X16350Y21960
X17350Y21960
X18350Y21960
X32850Y11710
X32850Y10710
X32850Y9710
X32850Y8710
X32850Y7710
X32850Y6710
X20850Y21960
X1350Y20710
X22850Y21960
X23850Y21960
X24850Y21960
X23850Y5460
X22850Y5460
X31600Y4210
X31600Y3210
X31600Y2210
X31600Y1210
X3350Y21960
X2350Y21960
X1350Y21960
X10850Y20710
X9850Y20710
X8850Y20710
X7850Y20710
X6850Y20710
X5850Y20710
X18350Y20710
X17350Y20710
X16350Y20710
X15350Y20710
X14350Y20710
X13350Y20710
T2
X2230Y8100
X2230Y3600
T3
X9670Y6220
X10060Y9100
X10070Y7790
X14360Y12350
X12490Y4744
X15506Y8666
X12180Y5670
X12958Y5670
X7350Y13710
X8350Y13960
X9350Y13960
X14570Y5660
X14930Y6780
X15350Y17710
X16820Y8500
X36500Y26750
X34320Y26680
X33850Y18460
X32100Y17710
X28100Y19460
X29600Y20960
X28659Y19960
X14170Y5670
X13780Y5670
X13380Y5670
X8850Y12110
X12560Y5660
X29600Y20460
X29100Y16460
X15350Y18519
M30